<?xml version="1.0" encoding="UTF-8"?>
<svg xmlns="http://www.w3.org/2000/svg" width="20" height="20" viewBox="0 0 20 20">
	<title>
		low severity
	</title>
	<path fill="#f5a623" d="M17.9 11.9c-1.4-.3-3.4-2.8-4.8-4.6l-8.8 6.2 2.3 3.3c.8 1.2 2.3 1.8 4 1.7l-1.6-2c-.1-.2 0-.4.1-.5.2-.1.4-.1.5.1l1.8 2.3c.8-.2 1.7-.6 2.6-1.1-1.3-.8-2.2-2.4-2.2-2.4-.1-.2 0-.4.1-.5.2-.1.4 0 .5.1 0 0 1 1.7 2.3 2.3.9-.7 1.6-1.3 2.1-1.9-2.1-.4-3.1-1.9-3.2-1.9-.1-.2-.1-.4.1-.5.2-.1.4-.1.5.1a5 5 0 0 0 3.1 1.7 4 4 0 0 0 .8-2c.1-.2 0-.3-.2-.4z"/>
	<path fill="#774b20" d="M11.6 5.2a1 1 0 0 0-1.3-.2L7.9 6.6 4.5 1.8a.7.7 0 0 0-.9-.2L2.1 2.7c-.3.2-.3.6-.2.8l3.4 4.8L3 10a1 1 0 0 0-.2 1.3L4 13l8.8-6.1-1.2-1.7z"/>
</svg>
