<svg xmlns="http://www.w3.org/2000/svg" width="287" height="129" fill="none" viewBox="0 0 287 129">
	<path fill="#404244" d="M.544.875h286v128h-286z"/>
	<path d="m38.545 65.256.161-42.888a2 2 0 0 1 2-1.993h53.97v7.247a2 2 0 0 0 2 2h7.089v77.091c0 1.1-1.75 1.587-2.85 1.587-1.462 0-1.329 1.158-2.62 1.519-1.292.362-1.295-1.519-2.678-1.519s-1.46 1.519-2.777 1.519-1.23-1.519-2.67-1.519-1.58 1.519-2.844 1.519S86.1 108.3 84.62 108.3s-1.474 1.519-2.783 1.519c-1.31 0-1.218-1.519-2.602-1.519s-1.332 1.159-2.67 1.519c-1.337.361-1.575-1.519-2.912-1.519s-1.437 1.519-2.726 1.519-1.081-1.519-2.511-1.519-1.59 1.519-2.926 1.519-1.451-1.519-2.842-1.519-1.24 1.519-2.613 1.519-1.422-1.519-2.786-1.519-1.344 1.519-2.687 1.519-1.282-1.519-2.722-1.519-1.495 1.519-2.845 1.519-1.231-1.519-2.411-1.519-1.674 1.925-2.962 1.519c-1.288-.405-1.14-1.519-2.577-1.519-.865 0-2.5-.469-2.5-1.333v-29.36z" style="fill-rule:evenodd;clip-rule:evenodd;fill:#101418;stroke:#a2a9b1;stroke-width:2;stroke-linecap:round"/>
	<path fill="#c8ccd1" stroke="#a2a9b1" stroke-width="2" d="m95.2 20.877.004-.001h.005l.006.005 8.187 8.31.06.06.07.05.008.01.004.023q0 .015-.003.02l-.008.011-.006.005h-8.326l-.006-.005-.008-.011-.003-.02v-8.422q0-.016.008-.026l.008-.01z"/>
	<ellipse cx="48.067" cy="31.87" fill="#a2a9b1" rx="4.513" ry="4.498"/>
	<path fill="#a2a9b1" fill-rule="evenodd" d="M81.841 37.867s10.877 7.371 13.325 4.66c2.447-2.713 0 3.936 0 3.936H73.689m-34.648-4.598s8.669 6.091 20.75 6.091 2.955 3.904 2.955 3.904H39.068" clip-rule="evenodd"/>
	<path fill="#c8ccd1" fill-rule="evenodd" d="M40.418 51.92S87.9 29.146 81.951 40.608c-5.95 11.462 21.31-2.692 21.31-2.692V51.92" clip-rule="evenodd"/>
	<path fill="#101418" d="M39.041 51.36h64.135v1H39.04z"/>
	<rect width="36.265" height="1" x="44.506" y="60.856" fill="#c8ccd1" rx=".5"/>
	<g fill="#a2a9b1">
		<rect width="40.239" height="1" x="44.506" y="72.851" rx=".5"/>
		<rect width="15.897" height="1" x="44.506" y="99.838" rx=".5"/>
		<rect width="36.265" height="1" x="61.893" y="99.838" rx=".5"/>
		<rect width="8.445" height="1" x="44.506" y="79.847" rx=".5"/>
		<rect width="8.445" height="1" x="89.713" y="79.847" rx=".5"/>
		<rect width="33.781" height="1" x="54.441" y="79.847" rx=".5"/>
		<rect width="8.445" height="1" x="44.506" y="96.34" rx=".5"/>
		<rect width="18.381" height="1" x="80.274" y="96.34" rx=".5"/>
		<rect width="24.342" height="1" x="54.441" y="96.34" rx=".5"/>
		<rect width="11.923" height="1" rx=".5" transform="matrix(-1 0 0 1 98.158 72.85)"/>
		<rect width="40.239" height="1" x="44.506" y="90.343" rx=".5"/>
		<rect width="6.955" height="1" x="71.332" y="69.352" rx=".5"/>
		<rect width="18.381" height="1" x="79.777" y="69.352" rx=".5"/>
		<rect width="25.336" height="1" x="44.506" y="69.352" rx=".5"/>
		<rect width="53.652" height="1" x="44.506" y="86.844" rx=".5"/>
		<rect width="53.652" height="1" x="44.506" y="83.346" rx=".5"/>
		<rect width="53.652" height="1" x="44.506" y="103.337" rx=".5"/>
		<rect width="53.652" height="1" x="44.506" y="76.349" rx=".5"/>
		<rect width="25.336" height="1" x="44.506" y="57.358" rx=".5"/>
	</g>
	<path fill="#f8f9fa" d="M123.544.875h163v128h-123z"/>
	<path d="m182.044 65.256.162-42.888a2 2 0 0 1 2-1.993h53.969v7.247a2 2 0 0 0 2 2h7.09v77.091c0 1.1-1.75 1.587-2.85 1.587-1.462 0-1.329 1.158-2.621 1.519-1.291.362-1.294-1.519-2.677-1.519s-1.46 1.519-2.777 1.519-1.23-1.519-2.671-1.519-1.579 1.519-2.843 1.519-1.226-1.519-2.706-1.519-1.474 1.519-2.783 1.519c-1.31 0-1.218-1.519-2.602-1.519s-1.332 1.159-2.669 1.519c-1.338.361-1.576-1.519-2.913-1.519-1.338 0-1.437 1.519-2.726 1.519s-1.081-1.519-2.511-1.519-1.589 1.519-2.926 1.519c-1.336 0-1.451-1.519-2.843-1.519s-1.24 1.519-2.612 1.519-1.422-1.519-2.786-1.519-1.344 1.519-2.687 1.519-1.282-1.519-2.722-1.519c-1.441 0-1.495 1.519-2.845 1.519s-1.231-1.519-2.412-1.519-1.673 1.925-2.961 1.519c-1.288-.405-1.139-1.519-2.577-1.519-.865 0-2.501-.469-2.501-1.333v-29.36z" style="fill-rule:evenodd;clip-rule:evenodd;fill:#fff;stroke:#a2a9b1;stroke-width:2;stroke-linecap:round"/>
	<path fill="#c8ccd1" stroke="#a2a9b1" stroke-width="2" d="M238.7 20.877h.001l.003-.001h.005l.006.005 8.187 8.31.06.06.07.05.008.01.004.023q0 .015-.003.02l-.008.011-.006.005h-8.326l-.006-.005-.008-.011q-.002-.006-.003-.02v-8.422q0-.016.008-.026l.008-.01z"/>
	<ellipse cx="191.567" cy="31.87" fill="#a2a9b1" rx="4.513" ry="4.498"/>
	<path fill="#a2a9b1" fill-rule="evenodd" d="M225.341 37.867s10.877 7.371 13.325 4.66c2.447-2.713 0 3.936 0 3.936h-21.477m-34.648-4.598s8.669 6.091 20.75 6.091 2.955 3.904 2.955 3.904h-23.678" clip-rule="evenodd"/>
	<path fill="#c8ccd1" fill-rule="evenodd" d="M183.918 51.92s47.482-22.774 41.533-11.312c-5.95 11.462 21.31-2.692 21.31-2.692V51.92" clip-rule="evenodd"/>
	<path fill="#fff" d="M182.541 51.36h64.134v1h-64.134z"/>
	<rect width="36.265" height="1" x="188.006" y="60.856" fill="#c8ccd1" rx=".5"/>
	<rect width="40.239" height="1" x="188.006" y="72.851" fill="#a2a9b1" rx=".5"/>
	<rect width="15.897" height="1" x="188.006" y="99.838" fill="#a2a9b1" rx=".5"/>
	<rect width="36.265" height="1" x="205.393" y="99.838" fill="#a2a9b1" rx=".5"/>
	<rect width="8.445" height="1" x="188.006" y="79.847" fill="#a2a9b1" rx=".5"/>
	<rect width="8.445" height="1" x="233.213" y="79.847" fill="#a2a9b1" rx=".5"/>
	<rect width="33.781" height="1" x="197.941" y="79.847" fill="#a2a9b1" rx=".5"/>
	<rect width="8.445" height="1" x="188.006" y="96.34" fill="#a2a9b1" rx=".5"/>
	<rect width="18.381" height="1" x="223.774" y="96.34" fill="#a2a9b1" rx=".5"/>
	<rect width="24.342" height="1" x="197.941" y="96.34" fill="#a2a9b1" rx=".5"/>
	<rect width="11.923" height="1" fill="#a2a9b1" rx=".5" transform="matrix(-1 0 0 1 241.658 72.85)"/>
	<rect width="40.239" height="1" x="188.006" y="90.343" fill="#a2a9b1" rx=".5"/>
	<rect width="6.955" height="1" x="214.832" y="69.352" fill="#a2a9b1" rx=".5"/>
	<rect width="18.381" height="1" x="223.277" y="69.352" fill="#a2a9b1" rx=".5"/>
	<rect width="25.336" height="1" x="188.006" y="69.352" fill="#a2a9b1" rx=".5"/>
	<rect width="53.652" height="1" x="188.006" y="86.844" fill="#a2a9b1" rx=".5"/>
	<rect width="53.652" height="1" x="188.006" y="83.346" fill="#a2a9b1" rx=".5"/>
	<rect width="53.652" height="1" x="188.006" y="103.337" fill="#a2a9b1" rx=".5"/>
	<rect width="53.652" height="1" x="188.006" y="76.349" fill="#a2a9b1" rx=".5"/>
	<rect width="25.336" height="1" x="188.006" y="57.358" fill="#a2a9b1" rx=".5"/>
</svg>
