<?xml version="1.0" encoding="UTF-8"?>
<svg xmlns="http://www.w3.org/2000/svg" width="64" height="64" viewBox="0 0 64 64">
	<path fill="#202122" fill-rule="evenodd" d="M32.166 3.814A3.56 3.56 0 0 0 28.92 5.59L.477 54.855a3.556 3.556 0 0 0 3.08 5.334h56.886a3.556 3.556 0 0 0 3.08-5.334L35.08 5.59a3.56 3.56 0 0 0-2.914-1.776m-.176 18.377q1.407 0 2.324.938.938.918.938 2.344 0 1.484-.977 5.547l-1.035 4.257q-.546 2.266-.8 5.391h-.86q-.136-2.226-.898-5.39l-1.016-4.258q-.918-3.829-.918-5.489 0-1.503.898-2.422.899-.918 2.344-.918m.04 21.27a3 3 0 0 1 2.226.937q.937.918.937 2.247 0 1.308-.937 2.246a3.03 3.03 0 0 1-2.227.918 3.1 3.1 0 0 1-2.246-.918 3.1 3.1 0 0 1-.918-2.246q0-1.31.918-2.247t2.246-.937z"/>
</svg>
