<svg width="264" height="162" fill="none" xmlns="http://www.w3.org/2000/svg"><g clip-path="url(#a)"><path fill="#fff" d="M0 0h264v162H0z"/><path d="m263.5 162.25-263-.5V.5h263v161.75Z" fill="#fff"/><path d="M11 22c0-8 6-14 14-14s14 6 14 14-6 14-14 14-14-6-14-14Zm27 23v-5H13v5h25Zm0 118V58H13v106h25M233 5h26v6h-26V5Zm-24 0h22v6h-22V5Zm-24 0h22v6h-22V5Zm-23 0h13v6h-13V5Zm15 0h6v6h-6V5Zm-23 0h6v6h-6V5Zm104 11v4h-92v-4h92Zm1-1h-94v6h94v-6Z" fill="#EAECF0"/><path d="M168 17h2v2h-2v-2Zm84 145.496V29H48v133l204 .496Z" fill="#EAECF0"/><path d="M48 29h204v11H48V29Z" fill="#C8CCD1"/><path d="M51 32h24.793v5H51v-5Zm33.223 0h9.918v5h-9.918v-5Zm16.86 0H111v5h-9.917v-5Z" fill="#fff"/><path d="m71.738 78.134-1.128 1.968-4.058-2.376a11.29 11.29 0 0 1-.792-.528 3.112 3.112 0 0 1-.623-.672c.24.56.36 1.16.36 1.8v4.656h-2.28V78.35c0-.32.016-.616.048-.888a3.2 3.2 0 0 1 .264-.84 3.545 3.545 0 0 1-.6.6 6.68 6.68 0 0 1-.746.504l-4.032 2.352-1.128-1.968 4.032-2.352c.269-.151.55-.28.84-.384.272-.112.56-.184.864-.216a4.147 4.147 0 0 1-1.703-.624L57 72.158l1.13-1.968 4.056 2.376c.288.176.544.36.768.552.24.192.448.416.624.672a3.91 3.91 0 0 1-.288-.864 5.986 5.986 0 0 1-.073-.936v-4.68h2.28v4.632c0 .32-.024.632-.072.936a3.092 3.092 0 0 1-.216.84c.17-.234.373-.444.6-.624.222-.176.47-.352.742-.528l4.032-2.328 1.128 1.968-4.032 2.328c-.27.16-.543.296-.815.408a2.79 2.79 0 0 1-.816.216c.542.064 1.086.264 1.63.6l4.056 2.376M82 90h4.286v2.143h-2.143v10.714h2.143V105H82V90Zm5.358 0h4.286v2.143H89.5v10.714h2.144V105h-4.286V90Zm43.001 0h4.286l.001 15h-4.286v-2.143h2.143V92.143h-2.144V90Zm-5.358 0h4.287l-.002 15H125v-2.143h2.144V92.143h-2.143V90Zm-58.658 23.777h-3.06l-.787 3.212h3.045l.8-3.212h.002Zm5.047-1.482-.194.855a.68.68 0 0 1-.323.473c-.172.103-.437.154-.8.154h-1.652l-.8 3.212h2.195c.267 0 .456.066.568.196.12.124.15.336.09.638l-.116.649h-3.005l-1.058 4.313h-1.136c-.122 0-.237-.02-.35-.061a.798.798 0 0 1-.258-.186.845.845 0 0 1-.154-.278.659.659 0 0 1 .013-.34l.865-3.448h-3.048l-.865 3.552c-.069.274-.21.47-.426.586-.226.119-.48.18-.735.175h-1.11l1.058-4.313h-1.783c-.258 0-.448-.062-.568-.185-.121-.124-.151-.34-.09-.649l.117-.649h2.595l.789-3.212h-2.932l.181-.844c.043-.22.15-.38.323-.484.172-.102.439-.154.8-.154h1.899l.89-3.583c.05-.22.18-.39.388-.514.205-.13.46-.199.722-.196h1.136l-1.058 4.293h3.06l1.047-4.293h1.123c.275 0 .49.069.645.206.155.137.206.316.155.535l-.89 3.552h2.697M57.343 58h54v6h-54v-6Zm20 57.001H142v3H77.343v-3Zm-20 20H142v3H57.343v-3Zm0-10H120.5v3H57.343v-3Zm20-50H142v3H77.343v-3Zm-20 10H117v3H57.343v-3ZM124 96H93.5v3H124v-3Zm-48 0H57.343v3H76v-3Z" fill="#A2A9B1"/><path fill="#54595D" d="M146 40h4v122h-4z"/><path d="M245 56.001h-39v30h39v-30Zm-26.348 13.043h1.402l8.701 8.604 4.725-2.834 7.117 5.943v.025h-31.148l9.203-11.738ZM240 105h-82v3h82v-3Zm-1 10h-81v3h81v-3Zm-4 10h-77v3h77v-3Zm8 10h-85v3h85v-3Zm-55-59.999h-30v3h30v-3Zm9 10h-39v3h39v-3Zm37 10h-76v3h76v-3ZM196.748 58H158v5.999h38.748V58Z" fill="#36C"/><path d="M0-.5h-.5v163h265V-.5H0Zm240.32 150.815-.32-.267-.32.267-11.68 9.733-11.68-9.733-.32-.267-.32.267-11.68 9.733-11.68-9.733-.32-.267-.32.267-11.68 9.733-11.68-9.733-.32-.267-.32.267-11.68 9.733-11.68-9.733-.32-.267-.32.267-11.68 9.733-11.68-9.733-.32-.267-.32.267-11.68 9.733-11.68-9.733-.32-.267-.32.267L84 160.048l-11.68-9.733-.32-.267-.32.267L60 160.048l-11.68-9.733-.32-.267-.32.267L36 160.048l-11.68-9.733-.32-.267-.32.267L12 160.048l-10.5-8.751V1.5h261v149.799l-10.5 8.749-11.68-9.733Z" fill="#fff" stroke="#E6E6E6"/></g><defs><clipPath id="a"><path fill="#fff" d="M0 0h264v162H0z"/></clipPath></defs></svg>