<?xml version="1.0" encoding="UTF-8"?>
<svg xmlns="http://www.w3.org/2000/svg" xmlns:xlink="http://www.w3.org/1999/xlink" width="426.667" height="355.2" viewBox="0 0 400 333">
	<defs id="defs5468">
		<linearGradient id="linearGradient6122">
			<stop id="stop6124" offset="0" stop-color="#777" stop-opacity="1"/>
			<stop id="stop6126" offset="1" stop-color="#777" stop-opacity="0"/>
		</linearGradient>
		<linearGradient id="linearGradient6128" x1="368.197" x2="287.136" y1="495.088" y2="543.323" gradientTransform="matrix(1.24928 0 0 1.2594 -124.18 -438.144)" gradientUnits="userSpaceOnUse" xlink:href="#linearGradient6122"/>
	</defs>
	<g id="layer2" fill-rule="evenodd" stroke-linecap="butt" stroke-linejoin="miter" stroke-opacity="1" display="inline" opacity=".05" transform="translate(-99.401 -379.666)">
		<path fill="#f9f9f9" stroke="none" stroke-width="1" d="M105.129 7.883c-1.475.041-2.63.408-3.344 1.19-5.714 6.25-10.356 8.39-8.57 31.962.95 12.533 4.27 26.447 7.603 37.217a99.419 99.419 0 0 1 5.305-.248c31.403-.587 65.103 12.858 97.41 17.351-34.224.929-69.244-14.598-101.865-14.418 2.64 8.112 5.159 13.994 6.367 15.278 1.762 1.872 1.555 12.91 1.514 22.648 37.352-4.839 55.313-14.785 85.728-16.312-32.767 9.713-56.136 15.322-85.726 17.547-.013 5.55.054 10.547.627 12.902 1.607 6.607 6.965 67.857 6.965 67.857l18.572 65 29.642 12.5 10.358 10.715s-.002 10.714 3.213 11.428c3.214.714 2.144 8.215 6.787 7.857 4.643-.357 21.785-4.285 28.928.715 7.142 5 12.856 12.5 22.142 11.785 9.286-.714 14.287-9.286 16.787-6.072 2.5 3.214 3.571 9.286 22.143 9.643 18.571.357 41.071 4.643 44.642-5 3.572-9.643 2.5-22.857 7.5-23.928 5-1.071 13.928-12.5 13.928-17.143 0-4.642 5.358-7.142 5.358-7.142l2.142-17.5L345 243.357l13.928-.714-8.213-36.07.713-44.288-15.77-31.053c-2.874-1.472-5.814-3.02-8.988-4.642-1.369-.59-2.737-1.183-4.11-1.754.505.14.992.293 1.489.44-6.784-3.375-14.511-6.818-24.145-9.68 11.527 1.808 22.685 6.865 33.778 11.744l-9.2-18.115c-9.995-.438-20.022-.105-29.261 1.423 10.173-1.875 19.7-2.745 28.511-2.9l-30.16-59.39s-23.93 7.142-26.072 2.5c-2.143-4.643-7.143-19.286-10-19.286s-57.143-9.644-57.143-9.644l-25.714-7.143-2.305 3.356c6.62 10.376 14.933 18.652 30.525 28.187-14.892-4.726-24.949-14.892-31.705-26.469l-6.693 9.748-23.037-6.43s-25.977-15.585-36.3-15.294zm88.588 98.492c-29.234 14.09-27.158 14.188-31.678 44.754 1.5-36.222-1.062-36.53 31.678-44.754zm106.412 14.168c4.657.573 9.02 1.264 13.14 2.088 4.81 2.003 9.103 4.09 13.079 6.123-7.403-2.969-15.862-5.559-26.22-8.211zm-5.356 4.498c24.954 5.83 49.515 31.951 50.641 53.074-.842-3.677-12.99-35.254-50.64-53.074z" transform="translate(99.401 379.666)"/>
		<path fill="url(#linearGradient6128)" fill-opacity="1" stroke="none" stroke-width="1" d="M344.48 39.768l-27.132 13.517s-29.34-9.383-33.6-10.496c-4.26-1.113-14.353 7.951-14.353 7.951s-.79 17.335 3.312 24.809c4.101 7.474 10.254 8.904 20.35 15.424 9.383 6.06 10.09 9.976 14.062 17.896 7.296-.846 14.215-1.195 20.707-1.146 24.584.183 43.15 5.901 53.942 10.533-.878-4.99-2.047-9.92-2.268-11.7-.473-3.816 5.363-9.064 5.363-9.064l2.21-6.201-2.524-22.103 9.306-26.24-11.673 1.75s-11.516 16.696-17.51 20.195c-5.994 3.498-26.975 4.295-26.975 4.295s-9.307-2.07-9.465-5.409c-.157-3.34 14.04-13.994 14.04-13.994l2.208-10.017zm-26.27 69.285c-3.653-.035-7.284.054-10.86.271.233.46.432.879.691 1.367.958 1.807 1.445 4.261 1.576 7.147 20.13 5.992 39.378 19.156 59.377 20.287 3.331-1.503 9.789-4.866 12.715-7.078 1.604-1.213 1.124-6.533.207-11.975-14.05-4.389-39.264-9.785-63.705-10.02zm-8.556 9.851c.015.964-.03 1.995-.084 3.037 1.253.22 2.49.448 3.7.69 4.81 2.003 9.102 4.09 13.078 6.123-5.03-2.017-10.567-3.858-16.836-5.664a80.504 80.504 0 0 1-.881 7.21c19.49 10.2 35.868 30.657 36.783 47.815-.732-3.198-10.026-27.495-37.2-45.496-1.84 9.894-5.119 20.793-7.902 28.961-5.363 15.743-30.97 43.748-30.97 43.748-6.542 6.805-33.423 27.26-35.602 28.57 21 1.282 25.42 34.874 8.832 49.243 50.223-6.16 20.536 15.025 6.916 28.787 0 0 6.182 8.993 10.283 13.287 4.102 4.293 42.749 5.725 53.002 3.34 10.254-2.386 10.255-26.239 9.782-28.465-.474-2.226 8.99-.955 11.83-7.793s11.2-15.265 11.043-17.969c-.158-2.703 1.577-10.336 3.943-13.994 2.366-3.658-3.944-11.45-4.89-14.154-.947-2.704 14.828-.795 14.828-.795s-2.524-8.746-4.733-15.584c-2.208-6.838-3.629-22.74-3.629-22.74l13.252-7.952 9.453-11.03-10.423-13.06 9.638-11.876a332.249 332.249 0 0 0-7.418-7.545c-2.898-2.131-5.612-4.32-6.455-5.627a2.006 2.006 0 0 1-.287-.758c-5.428-4.878-10.605-8.881-16.092-12.299 3.664 1.613 7.312 2.923 11.174 3.748a90.219 90.219 0 0 1 5.93 5.33c1.59-2.486 4.651-5.154 6.873-6.596-15.442 1.028-25.647-5.512-39.922-12.806-1.369-.59-2.737-1.183-4.11-1.754.505.14.992.293 1.489.44-4.328-2.153-9.048-4.331-14.395-6.372zM233.74 233.898c-.031-.002-.06-.008-.092-.01-.112.114-.063.104.092.01zm138.313-73.689c.505.671 1.01 1.38 1.515 2.072l.569-.7s-.822-.53-2.084-1.372z" transform="translate(99.401 379.666)"/>
		<path fill="#777" fill-opacity="1" stroke="#666" stroke-width="1.254" d="M277.461 439.151c-.946 1.908-11.043 2.863-11.043 2.863 18.456 11.35 50.886 15.757 68.305 2.863 0 0-5.837 1.113-10.885 1.272-5.564-.917-16.593-32.433-46.377-6.998zm40.977 8.432s-21.081 5.511-36.697-2.585c14.619-15.737 27.22-11.256 36.697 2.585z"/>
		<path fill="#666" fill-opacity="1" stroke="none" stroke-width="1.105" d="M170.7 8.512c-1.893.116-1.803 1.87-1.481 4.394 1.977 3.549 4.037 6.839 6.355 9.957.736-.53 2.23-.386 5.09.719 10.485 4.048 13.83 5.623 14.275 7.422.291 1.172-2.996 5.29-3.425 7.654.715.542 1.473 1.086 2.23 1.631.177-.023.325-.025.527-.064 6.916-1.35 12.715-11.696 12.715-11.696s5.132 2.024 7.586 6.297c2.454 4.273-.446 3.6 6.246 4.276 6.693.674 8.03-2.702 14.723-2.252 6.693.45 8.7-1.124 10.484 2.474 1.785 3.599-1.785 3.599 4.239 4.274 6.023.674 9.594-7.197 11.156-.225 1.562 6.972-.67 8.995 1.56 12.818 2.231 3.824 6.024 6.075 8.924 4.5 2.9-1.574 3.57-4.275 6.694-6.074 3.123-1.799 2.007-4.946 6.468-1.347 4.462 3.598 2.01 4.721 6.471 5.396 4.462.675 5.577-4.272 10.484-1.123 4.908 3.148-5.131 5.17 7.362 4.945 6.849-.123 17.87 1.659 19.19 1.907l14.835-21.163c-1.667-.237-27.445 8.357-30.601 8.414-13.36.243-2.627-1.943-7.875-5.345-5.249-3.402-6.44 1.944-11.211 1.215-4.772-.73-2.149-1.944-6.92-5.832-4.772-3.888-3.578-.485-6.918 1.459-3.34 1.944-4.055 4.86-7.156 6.56-3.102 1.701.254-3.75-2.131-7.88-2.386-4.132-7.414-3.298-9.084-10.83-1.67-7.534-5.487.97-11.928.241-6.441-.729-2.623-.729-4.531-4.617-1.909-3.888-4.058-2.188-11.215-2.674-7.157-.486-8.59 3.161-15.746 2.432-7.157-.729-4.056 0-6.68-4.617-2.624-4.617-8.111-6.805-8.111-6.805s2.942 8.704-4.453 10.162c-7.396 1.458-7.953-5.544-8.43-7.488-.477-1.944-4.057-3.647-15.27-8.022-2.102-.82-3.514-1.151-4.449-1.093zm-1.048 8.642c.089 2.006-.072 4.175-.943 6.305-3.579 8.748-11.733 1.615-25.809 2.344l14.479 10.414c13.162-.675 13.913 8.28 17.26.183 1.606-3.886.657-7.895.38-10.6-2.01-2.767-3.787-5.673-5.367-8.646zm165.391 51.782l-7.225 4.386c.116 5.053-15.819 14.898-7.728 11.432 8.923-3.823 8.254 2.474 12.27-4.723 2.61-4.678 15.396-7.721 16.96-6.945l-14.277-4.15z" display="inline" transform="translate(99.401 379.666)"/>
		<path fill="#fff" stroke="none" stroke-width="1.105" d="M170.963 2.367c-3.415.21-.431 5.645-1.152 11.606.487.854.984 1.69 1.486 2.515.26.427.528.844.793 1.264.278.441.557.88.842 1.314.31.472.625.94.943 1.403.24.35.487.696.732 1.043.355.499.708.999 1.075 1.49-.504-5.016-2.02-8.368 5.246-5.563 10.485 4.049 13.829 5.621 14.275 7.42.446 1.8-7.583 10.572-.668 9.223 6.916-1.35 12.715-11.697 12.715-11.697s5.132 2.024 7.586 6.297c2.454 4.273-.447 3.6 6.246 4.275 6.693.675 8.03-2.7 14.723-2.25 6.692.45 8.701-1.124 10.486 2.475 1.785 3.598-1.785 3.598 4.238 4.273 6.024.675 9.593-7.196 11.155-.225 1.561 6.972-.669 8.996 1.562 12.819 2.23 3.823 6.022 6.072 8.922 4.498 2.9-1.574 3.57-4.273 6.693-6.072 3.124-1.8 2.007-4.946 6.47-1.348 4.46 3.598 2.008 4.722 6.47 5.396 4.461.675 5.576-4.273 10.484-1.125 4.908 3.149-5.131 5.173 7.361 4.948 12.493-.225 10.039 3.372 13.608-.9 3.57-4.274 18.07-13.718 19.855-13.268 1.785.45-19.855 19.34-15.617 23.613 4.239 4.273-16.062 16.644-7.138 12.82 8.923-3.823 8.255 2.474 12.271-4.722 4.016-7.197 4.907-4.724 8.477-2.475 3.569 2.249 4.462 3.372 10.039 1.123 5.577-2.249 10.71-1.574 12.494-6.072 1.784-4.498 1.473-2.172 8.388-2.172 6.916 0 13.248-20.766 13.248-20.766s6.471.45 5.579 3.823c-.893 3.373-11.824 11.02-10.932 14.619.892 3.598 6.023 6.97 3.123 10.793-2.9 3.823-7.136 6.299-2.228 9.222 4.907 2.924 7.36 9.668 5.353 11.243-2.008 1.574-5.577 6.3-6.916 8.548-1.339 2.25-3.572.898-3.795 6.07-.143 3.311.092 5.614 1.031 8.313.03.01.056.023.084.033 1.085.4 2.111.799 3.09 1.194l.363.146c.875.357 1.705.708 2.49 1.053.168.073.335.144.499.217.696.31 1.35.612 1.972.908.177.084.363.17.534.252.739.358 1.436.705 2.06 1.031a85.8 85.8 0 0 0-2.717-.967 129.82 129.82 0 0 0-3.068-.992c-.557-.173-1.099-.344-1.69-.52-.678-.201-1.405-.405-2.124-.609-.314-.089-.608-.178-.93-.267.464 1.11 1.04 2.318 1.754 3.703 2.9 5.622.446 9.894-4.016 10.119-3.02.152-.831-11.642-2.56-15.096l-.034-.008c-.768-.193-1.562-.382-2.361-.574l-.006-.002c-.94.515-2.153 1.617-3.74 3.537-4.694 5.679-7.47 11.589-8.688 16.924 1.488.383 2.978.72 4.471 1.002l.174.03c.7.13 1.402.248 2.103.353l.166.023c.688.101 1.376.191 2.065.266.155.017.311.026.467.041.606.06 1.213.117 1.82.156.175.011.35.013.525.022.594.032 1.188.06 1.784.07.229.004.458-.004.687-.004.53.001 1.059.004 1.59-.013.777-.026 1.556-.07 2.336-.137a65.77 65.77 0 0 1-4.73.883c-.217.032-.435.066-.649.095-.736.1-1.461.186-2.174.254-.1.01-.196.015-.295.024a50.129 50.129 0 0 1-4.07.195c-.15 0-.3.005-.45.004a46.616 46.616 0 0 1-1.921-.05l-.535-.032a43.89 43.89 0 0 1-3.877-.397 24.82 24.82 0 0 0-.2 4.12l.024.021c.309.276.613.57.92.852a93.68 93.68 0 0 1 4.738 4.673c.356.375.713.742 1.067 1.125.793.861 1.582 1.744 2.369 2.65.47.543.94 1.108 1.408 1.667a134.861 134.861 0 0 1 2.68 3.29c.3.382.6.771.9 1.159a173.236 173.236 0 0 1 3.772 5.063c.906-.739 1.968-1.59 3.398-2.715 5.248-4.131-.953-3.403-.953-3.403s-3.102-2.186-9.543-7.775c-1.375-1.193-2.308-1.669-2.85-1.852-.721.033-.71-.24 0 0 1.31-.06 4.971-1.198 11.022-8.593 11.928-14.58 3.744-3.175 8.515-3.418 4.772-.243 5.977-14.081 2.875-20.157-3.101-6.075-3.816-8.99-3.578-14.58.239-5.589 6.881-2.54 8.313-4.97 1.431-2.43.991-9.125 3.138-10.827 2.148-1.7-.478-8.989-5.726-12.148-5.249-3.159-.715-5.834 2.387-9.965 3.101-4.13 3.45-7.3 2.496-11.187-.955-3.888 4.899-12.627 5.853-16.272.954-3.645-5.963-4.13-5.963-4.13s-2.206 7.702-9.601 7.702c-7.396 0-11.633 12.224-13.541 17.084-1.909 4.86-7.397 4.129-13.362 6.559-5.964 2.43-6.917 1.215-10.734-1.215s-1.616-5.579-5.91 2.197c-4.294 7.777 3.524-4.198-7.578-1.537-10.692 2.564 15.05-14.726 13.449-15.797-5.37-3.59 18.608-25.031 16.7-25.517-1.91-.486-31.93 18.785-35.747 23.402-3.817 4.617-1.193.728-14.553.971-13.36.243-2.624-1.942-7.873-5.344-5.248-3.402-6.441 1.944-11.213 1.215-4.771-.729-2.148-1.944-6.92-5.832-4.771-3.888-3.578-.485-6.918 1.459-3.34 1.944-4.054 4.858-7.156 6.559-3.101 1.7.257-3.75-2.129-7.881-2.385-4.131-7.414-3.297-9.084-10.83-1.67-7.533-5.488.973-11.93.244-6.44-.73-2.622-.73-4.53-4.617-1.91-3.888-4.058-2.188-11.215-2.674-7.158-.486-8.587 3.158-15.745 2.43-7.157-.73-4.057 0-6.681-4.618-2.625-4.617-8.11-6.802-8.11-6.802s2.943 8.702-4.453 10.16c-7.395 1.458-7.952-5.543-8.43-7.487-.477-1.944-4.056-3.647-15.269-8.021-2.102-.82-3.517-1.153-4.451-1.096zm-1.682 14.055c-.095.299-.185.597-.306.894-3.579 8.749-16.196 2.851-30.272 3.58l16.822 10.524c13.162-.675 16.031 6.934 19.377-1.162.484-1.171.72-2.354.827-3.512-2.47-3.273-4.597-6.753-6.448-10.324zM55.148 25.4c-4.97.12-2.2 7.637-5.109 7.413-3.21-.249-33.343-1.985-38.283-.497-4.94 1.49-10.373 5.459-10.867 6.7-.494 1.24 1.726 1.243 3.949 3.228s1.482 1.24 3.21 7.692c1.73 6.451-.244 3.226.497 8.685.74 5.46-.743 4.96 9.137 12.652 9.88 7.693 1.73.993 9.386 4.715 7.657 3.722 4.693 2.484 3.705 4.717-.988 2.233-6.67 4.96-9.88 10.916-3.211 5.955.246 1.738 16.794 2.979 16.549 1.24 1.484 1.24 7.165 7.443 5.68 6.203 9.631 4.466 8.396 22.58-1.235 18.114.289 6.877 3.006 8.117 2.717 1.24 3.91-5.388 11.072-2.162 7.163 3.226-2.59 7.17-2.838 11.389-.247 4.218 4.878 5.9.926 10.863-3.952 4.963 1.172 1.074 4.877 7.03 3.705 5.955-4.1-4.674 13.93-.704 18.03 3.97 5.186 5.955 5.433 13.15.247 7.197-2.715 3.227-7.902 10.174-5.187 6.948 7.278 3.12 10.736 4.608 3.458 1.489 6.455 7.016 8.184 20.168 1.729 13.151 1.976-1.986 1.976-1.986s6.436-1.985 11.375 8.685c4.94 10.67 3.936 10.175 5.418 12.904 1.482 2.73-5.169 3.199 2.24 10.147 7.41 6.948 4.181 4.99 6.157 12.185.585 2.131 1.786 3.079 3.27 3.743-2.113 3.04-4.331 7.772-4.6 11.515-.432 6.007 15.498.946 33.086 13.11 17.96 12.421 14.628 7.548 13.435 14.595-1.193 7.047-1.67 7.775 1.909 6.317 3.578-1.458 4.294 2.674 4.294 7.29 0 4.618 9.78 10.692 15.506 4.86 5.726-5.832 21.232 3.404 29.582 11.666 8.35 8.262 7.874 2.914 14.076 4.615 6.203 1.701 1.909-2.185 5.249-4.615s8.464-5.554 10.61-.937c2.148 4.617 7.523 9.683 21.837 8.468 14.314-1.215 25.05.974 27.912 1.946 2.863.972 7.875 2.43 12.646-.487 4.772-2.916 8.825-13.12 8.586-14.822-.238-1.7.24-7.048 1.91-12.637s1.191-3.888 4.77-4.617c3.579-.729 9.068-5.346 9.068-8.02 0-2.672-.954-6.562 3.102-11.179s7.873-3.887 6.441-6.074c-1.431-2.187-2.387-5.831-.24-8.99 2.147-3.16 20.648 7.953 6.81-5.655-19.651-19.85 6.768-14.378 8.673-1.564 2.624-.486-6.163-9.232-10.022-34.264-3.082-19.99 11.74-20.263 8.615-22.916 0 0 3.338-3.156 9.78-8.502 6.441-5.346 1.434-5.59.718-9.478-.715-3.888-3.818-3.16-8.59-7.291-4.771-4.132-1.43-3.16 2.149-6.319 2.325-2.052 3.523-3.134 5.459-4.734l-.024-.026c-.717-.756-1.42-1.487-2.119-2.214-.013-.014-.025-.028-.039-.041-.311.348-.757.756-1.373 1.236-4.908 3.823-5.575 4.498-8.922 7.422-3.346 2.923-6.471 2.024-2.01 5.847 4.462 3.824 7.365 3.148 8.034 6.747.669 3.598 5.355 3.823-.668 8.771-6.023 4.948-9.149 7.871-9.149 7.871s-18.291-13.495-10.93 8.77c7.363 22.264 11.824 31.26 9.37 31.71-2.454.45-11.601 3.598-12.94-5.398-1.338-8.996-17.4-4.496-4.46 8.098 12.938 12.594 7.808 13.492 5.8 16.416-2.008 2.923-1.118 6.298.22 8.322 1.34 2.024-2.228 1.35-6.02 5.623-3.793 4.273-2.901 7.87-2.901 10.344 0 2.474-5.13 6.747-8.477 7.422-3.346.674-2.9-.9-4.462 4.273-1.562 5.173-2.007 10.12-1.784 11.694.223 1.574-3.571 11.02-8.033 13.718-4.462 2.699-9.145 1.35-11.822.45-2.677-.9-12.718-2.922-26.104-1.797-13.385 1.124-20.076-3.151-22.084-7.424-2.007-4.273-5.13-1.8-8.253.449-3.124 2.249.893 5.848-4.907 4.273-5.8-1.574-5.356 3.373-13.164-4.273s-22.308-16.19-27.662-10.793c-5.354 5.398-13.162 5.398-13.162 1.125s-.67-8.097-4.016-6.748c-3.346 1.35-2.898.676-1.783-5.846 1.116-6.522 10.932-7.646-8.476-13.718-19.409-6.073-36.81-11.921-36.364-17.543.169-2.125.455-3.356.842-4.059 2.441 1.315 3.241 3.55 4.768 9.48l-3.159-17.566c-3.346-13.044-11.375-7.42-13.16-13.941-1.784-6.522 8.253-7.197 1.56-13.494-6.692-6.297-7.805-4.275-9.144-6.749-1.338-2.473 1.56-2.022-2.902-11.693-4.462-9.67-12.27-7.871-12.27-7.871s-.221 13.716-1.783 1.797c-1.561-11.92-1.562-11.018-4.685-12.367-3.123-1.35-8.255 2.7-3.57-3.598 4.684-6.297 7.363-2.7 7.14-9.223-.223-6.522 11.375-8.321-4.91-11.92-16.285-3.598-18.07-.45-21.416-5.847-3.346-5.398-6.693-5.621-3.123-10.12 3.57-4.497 5.355-4.721 5.578-8.544.223-3.823 1.339-4.948-5.13-7.871-6.47-2.924-6.692-2.25-9.145-3.375-2.454-1.125-4.686 14.393-3.57-2.024 1.115-16.417-2.456-14.844-7.587-20.467-5.13-5.622 8.478-5.62-6.468-6.744-14.947-1.124-18.07 2.697-15.17-2.7 2.9-5.398 8.031-7.87 8.923-9.893.893-2.024 3.568-.902-3.347-4.276-6.916-3.373.447 2.698-8.477-4.273-8.923-6.972-7.584-6.521-8.254-11.469-.669-4.948 1.115-2.024-.447-7.871s-.89-5.172-2.898-6.97c-2.008-1.8-4.017-1.8-3.57-2.925.445-1.124 5.354-4.723 9.816-6.072 4.461-1.35 31.676.224 34.576.45 2.9.224-.445-8.096 6.248-6.522 6.692 1.574 7.717 2.919 9.502 3.594 1.785.674 4.107 4.952 6.338.904 2.23-4.048 2.899-5.624 5.576-3.6 2.677 2.024 8.7 5.848 8.7 5.848l-.28-3.943s-6.67-4.218-9.633-6.452c-2.964-2.233-3.704-.497-6.174 3.97-2.47 4.466-4.446-.743-6.422-1.487-1.976-.745-3.705-1.738-11.115-3.475-.695-.163-1.29-.229-1.805-.217zm302.385 122.764c.654 1.939 1.662 3.53 2.979 4.66 6.023 5.173 8.922 7.197 8.922 7.197s.257-.01.392-.021l-.033-.033a334.884 334.884 0 0 0-2.795-2.834c-.447-.448-.887-.881-1.328-1.317a237.486 237.486 0 0 0-2.924-2.843 184.79 184.79 0 0 0-2.748-2.578 159.61 159.61 0 0 0-2.465-2.23z" display="inline" transform="translate(99.401 379.666)"/>
		<path fill="#666" stroke="#4d4d4d" stroke-width="1.254" d="M358.737 482.89c-.191 4.655-17.265 9.07-36.108 11.294-34.107 4.028-46.434 31.516-45.988 31.66 10.957 9.44 31.122 43.103 38.37 42.73 7.586.225 30.34-3.373 36.14-.45 5.8 2.924 5.393 4.469 8.701 4.723 4.876-14.814 19.65-46.417 20.97-61.62-3.603-20.084-9.74-15.653-22.085-28.337z" display="inline"/>
		<path fill="#999" stroke="none" stroke-width="1" d="M358.928 485.59c-.19 4.656-17.265 9.07-36.108 11.295-34.107 4.027-46.434 31.516-45.987 31.66 10.956 9.44 31.121 43.103 38.37 42.73 7.585.225 30.34-3.373 36.14-.45 5.8 2.924 5.392 4.469 8.7 4.723 4.877-14.815 19.65-46.417 20.97-61.62-3.602-20.084-9.74-15.654-22.085-28.337z"/>
		<path fill="#999" fill-opacity="1" stroke="none" stroke-width="1" d="M56.088 29.082c-.631.025-1.103.21-1.354.604-2.007 3.148-2.9 6.748-2.9 6.748s-39.932-1.576-42.61 2.472c-2.676 4.048-2.007 7.422-2.007 7.422s3.793 11.02 5.8 16.643c2.008 5.622 4.238 10.12 9.592 12.144 5.354 2.024 10.71 5.846 10.71 5.846S21.493 93.78 22.386 94.904c.892 1.125 4.24 1.125 8.7 1.125 4.463 0 15.394-.898 15.17.9-.222 1.8-1.338 4.497 2.231 8.77 3.57 4.273 8.477 17.092 6.469 22.94-2.008 5.847.893-.45 6.023-.45 5.131 0 12.717 2.924 10.932 6.297-1.785 3.374-7.138 8.771-6.469 10.57.67 1.8 2.676 15.068 5.8 14.169 3.122-.9 22.977 1.574 24.316 2.923 1.338 1.35-2.007 12.37-4.461 14.844s-7.586 7.645-5.578 8.77c2.007 1.124 8.7-.45 9.816 2.474 1.115 2.924 5.353 16.643 5.353 16.643s7.14-4.048 9.147 0c2.008 4.048 9.146 19.564 9.146 19.564l18.74 33.96s3.792-22.04.446-27.887c-3.346-5.848-14.5-33.51-16.953-43.63-2.454-10.12-6.024-30.36-6.024-30.36s-5.13-27.663-6.023-33.735a36.883 36.883 0 0 1-.266-2.648c-8.752.641-18.028 1.004-28.289 1.074 10.609-.4 19.892-1.21 28.227-2.268-.42-7.568-.12-19.771-.12-19.771s-2.405-8.001-5.33-18.215c-15.357-.17-30.201 2.978-44.195 12.818 13.607-10.498 28.214-14.83 43.395-15.644-4.353-15.32-9.452-34.255-9.707-39.905-3.793-.45-14.947-8.996-14.947-8.996l-5.131 7.422s-12.298-7.748-16.717-7.576z" transform="translate(99.401 379.666)"/>
		<path fill="#ccc" stroke="none" stroke-width="1.105" d="M170.145 4.494c-2.735.169-1.363 3.69-1.075 8.143v.002l.024.043c.407.733.818 1.456 1.234 2.168l.06.101a89.629 89.629 0 0 0 4.016 6.272l.008.011c-.172-2.557.585-3.642 5.697-1.668 10.485 4.049 13.832 5.621 14.278 7.42.446 1.8-7.586 10.572-.67 9.223 6.915-1.35 12.715-11.697 12.715-11.697s5.132 2.024 7.586 6.297c2.454 4.273-.447 3.6 6.246 4.275 6.692.675 8.03-2.7 14.722-2.25 6.693.45 8.702-1.124 10.487 2.475 1.784 3.598-1.785 3.596 4.238 4.271 6.023.675 9.593-7.194 11.154-.223 1.562 6.972-.668 8.996 1.563 12.819 2.23 3.823 6.022 6.072 8.922 4.498 2.9-1.574 3.57-4.273 6.693-6.072 3.123-1.8 2.007-4.948 6.469-1.35 4.461 3.598 2.009 4.724 6.47 5.398 4.462.675 5.577-4.273 10.485-1.125 4.908 3.149-5.132 5.173 7.361 4.948 12.493-.225 10.04 3.372 13.61-.9 3.569-4.274 18.068-13.72 19.853-13.27 1.785.45-19.854 19.342-15.615 23.615 4.238 4.273-16.064 16.643-7.14 12.82 8.923-3.823 8.255 2.474 12.27-4.722 4.016-7.197 4.908-4.724 8.477-2.475 3.57 2.249 4.464 3.372 10.041 1.123 5.577-2.249 10.708-1.574 12.492-6.072 1.785-4.498 1.473-2.172 8.39-2.172 6.915 0 13.247-20.766 13.247-20.766s6.47.45 5.578 3.823c-.892 3.373-11.822 11.02-10.93 14.619.893 3.598 6.024 6.97 3.124 10.793-2.9 3.823-7.139 6.297-2.23 9.22 4.907 2.924 7.36 9.67 5.353 11.245-2.008 1.574-5.578 6.3-6.916 8.548-1.339 2.25-3.57.898-3.793 6.07-.095 2.184-.015 3.925.31 5.633 2.601.918 4.928 1.835 6.973 2.717l.045.02.11.049a92.397 92.397 0 0 1 2.958 1.343c.78.372 1.508.729 2.168 1.069l.05.025c-.267-1.1-.608-2.117-1.044-2.97-3.101-6.076-3.817-8.99-3.578-14.579.238-5.589 6.88-2.54 8.312-4.97 1.432-2.43.992-9.126 3.139-10.827 2.147-1.7-.478-8.989-5.727-12.148-5.248-3.16-.714-5.834 2.387-9.965 3.102-4.13 3.45-7.3 2.496-11.187-.954-3.888 4.9-12.627 5.854-16.272.954-3.645-5.963-4.133-5.963-4.133s-2.206 7.705-9.602 7.705c-7.395 0-11.632 12.224-13.54 17.084-1.91 4.86-7.398 4.129-13.362 6.559-5.964 2.43-6.917 1.215-10.734-1.215-3.818-2.43-1.616-5.579-5.91 2.197-4.295 7.777 3.523-4.199-7.579-1.537-10.692 2.564 15.05-14.727 13.45-15.797-5.37-3.59 18.607-25.031 16.699-25.517-1.909-.486-31.93 18.785-35.746 23.402-3.817 4.617-1.193.728-14.553.97-13.36.244-2.625-1.943-7.873-5.345-5.249-3.402-6.442 1.946-11.213 1.217-4.771-.729-2.148-1.944-6.92-5.832-4.771-3.888-3.576-.487-6.916 1.457-3.34 1.944-4.057 4.86-7.158 6.56-3.102 1.702.257-3.75-2.129-7.88-2.386-4.131-7.414-3.297-9.084-10.83-1.67-7.534-5.488.973-11.93.244-6.441-.73-2.622-.73-4.53-4.617-1.91-3.889-4.059-2.188-11.216-2.674-7.157-.486-8.587 3.158-15.744 2.43-7.157-.73-4.057 0-6.682-4.618-2.624-4.617-8.109-6.802-8.109-6.802s2.943 8.702-4.453 10.16c-7.396 1.458-7.953-5.543-8.43-7.487-.477-1.944-4.056-3.647-15.27-8.021-2.102-.82-3.516-1.154-4.45-1.096zm-1.13 11.406c-.125 1.171-.376 2.363-.859 3.543-3.578 8.749-12.85 2.008-26.926 2.737l13.477 11.367c13.162-.675 16.033 6.932 19.379-1.164.95-2.3.99-4.645.816-6.744-.023-.032-.043-.066-.066-.098a68.401 68.401 0 0 1-1.436-2.082c-.07-.107-.142-.213-.213-.32-1.532-2.333-2.9-4.745-4.15-7.196l-.021-.043zM54.872 27.543c-5.71-.424-2.64 7.63-5.65 7.396-3.211-.248-33.344-1.984-38.283-.496-4.94 1.49-10.374 5.459-10.868 6.7-.494 1.24 1.727 1.241 3.95 3.226 2.222 1.985 1.482 1.242 3.21 7.694 1.73 6.451-.244 3.226.497 8.685.74 5.46-.743 4.96 9.136 12.652 9.88 7.693 1.73.993 9.387 4.715s4.693 2.484 3.705 4.717c-.988 2.233-6.67 4.96-9.88 10.916-3.212 5.955.246 1.738 16.794 2.979 16.548 1.24 1.483 1.24 7.164 7.443 5.68 6.203 9.632 4.466 8.397 22.58-1.235 18.114.289 6.876 3.006 8.117 2.716 1.24 3.91-5.388 11.072-2.162 7.162 3.226-2.591 7.17-2.838 11.389-.247 4.218 4.878 5.9.926 10.863-3.952 4.963 1.172 1.074 4.877 7.03 3.704 5.955-4.1-4.674 13.93-.704 18.03 3.97 5.186 5.955 5.433 13.15.247 7.197-2.716 3.227-7.902 10.174-5.187 6.948 7.278 3.119 10.736 4.608 3.458 1.489 6.455 7.014 8.184 20.166 1.728 13.151 2.986-1.985 2.986-1.985s5.425-1.984 10.365 8.686 3.936 10.175 5.418 12.904c1.482 2.73-5.17 3.199 2.24 10.147s4.18 4.99 6.157 12.185c.585 2.131 1.785 3.079 3.27 3.743-2.113 3.04-4.331 7.772-4.6 11.515-.432 6.007 17.848-1.795 33.087 13.108 15.614 15.268 14.627 7.55 13.434 14.597-1.193 7.047-1.67 7.775 1.908 6.317 3.579-1.458 4.295 2.674 4.295 7.29 0 2.167 3.267 3.368 6.145 4.796-7.325-14.097-4.855-31.158-13.819-34.04-19.408-6.072-36.81-11.92-36.363-17.542.169-2.125.454-3.356.842-4.059 2.44 1.315 4.848 3.728 6.375 9.658l-4.766-17.744c-3.346-13.044-9.034-7.87-10.818-14.393-1.785-6.521 5.911-6.745-.781-13.043-6.693-6.297-7.806-4.274-9.145-6.748-1.339-2.473 1.561-2.022-2.9-11.693-4.462-9.67-12.272-7.871-12.272-7.871s-.222 13.716-1.783 1.797c-1.562-11.92-1.562-11.018-4.686-12.367-3.123-1.35-8.255 2.699-3.57-3.598 4.685-6.297 7.364-2.7 7.14-9.223-.222-6.522 11.376-8.321-4.91-11.92-16.285-3.598-18.07-.45-21.415-5.847-3.347-5.398-6.693-5.621-3.124-10.12 3.57-4.497 5.355-4.721 5.579-8.544.223-3.823 1.338-4.948-5.131-7.871-6.47-2.924-6.69-2.25-9.145-3.375-2.454-1.125-4.686 14.391-3.57-2.026 1.115-16.417-2.455-14.842-7.586-20.465-5.131-5.622 8.478-5.62-6.469-6.744-14.947-1.124-18.07 2.697-15.17-2.7 2.9-5.398 8.032-7.87 8.924-9.894.892-2.024 3.568-.901-3.348-4.275-6.915-3.373.447 2.698-8.476-4.273-8.924-6.972-7.585-6.521-8.254-11.47-.67-4.947 1.114-2.023-.447-7.87-1.562-5.847-.891-5.172-2.899-6.97-2.008-1.8-4.016-1.8-3.57-2.925.446-1.124 5.355-4.723 9.816-6.072 4.462-1.35 31.678.224 34.578.45 2.9.224-.446-8.098 6.247-6.524 6.692 1.574 8.252 2.474 10.037 3.148 1.784.675 3.572 5.4 5.802 1.352 2.231-4.048 2.9-5.624 5.577-3.6 2.677 2.024 9.504 5.938 9.504 5.938l-.37-3.944s-7.383-4.307-10.347-6.54c-2.964-2.234-3.704-.498-6.174 3.968-2.47 4.467-4.446-.744-6.422-1.488-1.976-.745-3.704-1.736-11.113-3.473a8.233 8.233 0 0 0-1.266-.201zm320.451 89.625c.524 1.837 1.36 3.77 2.664 6.299 2.9 5.622.444 9.894-4.017 10.119-4.462.225 2.453-25.638-8.701-12.145-4.061 4.913-6.687 10-8.114 14.739.004 0 .008.003.012.004.757.197 1.515.382 2.273.554a66.9 66.9 0 0 0 2.268.475c.04.008.08.014.121.021.728.138 1.455.263 2.184.373.029.005.058.008.088.012.722.109 1.447.205 2.171.285.186.02.373.033.56.051.578.058 1.157.112 1.737.15.246.016.491.021.737.034.538.027 1.076.057 1.615.066h.02c.291.005.584-.005.876-.006.467 0 .933.004 1.4-.012a43.83 43.83 0 0 0 2.37-.138 65.567 65.567 0 0 1-3.018.605c-.665.119-1.322.224-1.968.317-.147.02-.296.045-.442.064a53.9 53.9 0 0 1-2.258.258c-.138.013-.274.022-.412.033-.631.053-1.254.093-1.869.121-.134.006-.27.015-.404.02a45.728 45.728 0 0 1-4.582-.053 43.658 43.658 0 0 1-4.195-.463 28.237 28.237 0 0 0-.495 3.54c.02.016.038.033.057.05.479.42.952.852 1.426 1.285a97.33 97.33 0 0 1 2.377 2.246l.004.004c.373.366.742.75 1.113 1.125.456.463.912.93 1.365 1.406.43.452.862.903 1.29 1.368.07.015.123.019.222.052 1.31-.06 4.97-1.198 11.021-8.593 11.929-14.58 3.745-3.175 8.516-3.418 4.09-.209 5.55-10.4 3.932-17.135a85.558 85.558 0 0 0-2.504-.89c-.585-.199-1.233-.404-1.87-.608-.424-.136-.846-.272-1.292-.41-.774-.24-1.579-.481-2.416-.725-.302-.088-.616-.175-.926-.264-.95-.27-1.916-.543-2.936-.816zm-11.525 32.86c-.082.003-.12-.007-.184-.01l.04.044c.968 1.056 1.93 2.14 2.888 3.264l.004.004.025.031a137.26 137.26 0 0 1 2.88 3.494 157.67 157.67 0 0 1 2.892 3.747 185.074 185.074 0 0 1 2.892 3.976c.606-.484 1.128-.905 1.91-1.521 5.25-4.131-.955-3.403-.955-3.403s-3.101-2.186-9.543-7.775c-1.374-1.193-2.307-1.669-2.85-1.852zm-7.807-3.198c.398 3.52 1.673 6.378 3.703 8.121 6.024 5.173 8.922 7.197 8.922 7.197s5.799-.674.89 3.149c-6.46 6.145-12.873 6.964-3.417 12.594-.214-.172-.414-.305-.635-.496-4.771-4.132-1.43-3.16 2.149-6.319 2.882-2.545 4.019-3.595 7.052-6.035l-.006-.008a441.015 441.015 0 0 0-4.578-4.78c-.19-.195-.385-.4-.574-.593a296.11 296.11 0 0 0-4.117-4.135c-.202-.199-.41-.408-.611-.605a211.841 211.841 0 0 0-3.59-3.422c-.388-.362-.785-.743-1.17-1.096a147.614 147.614 0 0 0-4.018-3.572z" display="inline" transform="translate(99.401 379.666)"/>
		<path fill="#666" stroke="none" stroke-width="1" d="M238.016 623.45c-2.008-15.967-16.062-32.61-18.74-54.874-2.676-22.264-5.13-33.284-5.13-33.284s6.246 32.835 12.492 47.678c6.247 14.843 12.716 14.618 11.378 40.48z"/>
		<path fill="#f2f2f2" fill-opacity="1" stroke="none" stroke-width="1.254" d="M358.783 563.413c1.885-5.734 4.899-10.237 4.473-18.495-2.266 1.124-4.412 4.179-6.57 7.04 0 0-7.496-21.042-13.073-23.29-5.577-2.25-20.077 1.798-26.212.224-6.135-1.574-11.154 7.197-11.154 7.197s-3.347-3.598-7.362-5.96c-4.016-2.361-18.74-3.148-18.74-3.148 6.488-11.903 13.33-21.055 27.663-25.976.64 3.13 1.51 6.307 3.194 9.648 1.807-3.214 2.801-7.083 3.393-9.888 3.863.49 6.58.98 11.937 1.47.42 2.683.683 5.398 2.112 7.879 1.64-2.532 2.36-5.003 2.932-7.463 10.032 2.062 20.544 2.184 30.976 2.627 1.756 5.799 1.453 12.19 1.87 18.375 1.842-4.989 3.14-10.527 3.93-16.575l1.005 6.297c2.699-2.13 2.696-6.302 3.904-9.558 15.613 6.12-10.26 53.057-14.278 59.596z"/>
		<path fill="#f2f2f2" stroke="none" stroke-width="1" d="M314.646 565.09c-2.69-1.051-2.88-15.182-1.674-15.292 3.364 5.05 6.49 8.177 9.258 8.433 0 0-2.788 6.635-7.584 6.86z"/>
		<path fill="#f2f2f2" stroke="none" stroke-width="1" d="M327.138 561.042c-1.553-6.372-.96-12.744.447-19.116 3.367 5.125 3.742 10.04 6.469 14.056 0 0 .67 5.06-6.916 5.06z"/>
		<path fill="#777" fill-opacity="1" stroke="#666" stroke-width="1.254" d="M338.628 455.218c2.997-2.703 8.833-4.93 15.774-4.452 6.941.477 18.772 4.293 19.718 5.883.947 1.59.474 10.178-.946 8.906-1.42-1.272-4.89-3.18-4.89-1.75 0 1.432.315 12.404-3.155 12.881-3.47.477-14.828-3.021-14.197-5.565.63-2.545 4.102-4.324 4.574-7.634.217-1.521-.558-5.123-6.467-3.34-5.113 1.545-7.256 4.93-10.411-4.929z"/>
		<path fill="#666" stroke="none" stroke-width="1" d="M294.105 91.982c5.157 5.101 8.522 10.926 10.461 17.2 1.56-.204 3.1-.383 4.625-.541-2.889-6.849-7.847-12.554-15.086-16.659zm15.325 17.233c-1.6.073-3.192.165-4.768.293a46.396 46.396 0 0 1 1.57 7.406 90.127 90.127 0 0 1 5.62 1.621c-.448-3.286-1.252-6.403-2.422-9.32zm-3.112 8.467c.142 1.245.243 2.5.297 3.767 1.917.301 3.776.63 5.594.98a47.36 47.36 0 0 0-.205-2.599 136.749 136.749 0 0 0-5.686-2.148zm.325 4.601c.064 2.284 0 4.596-.194 6.93a69.62 69.62 0 0 1 5.383 2.885c.342-2.81.492-5.549.434-8.198a264.53 264.53 0 0 0-5.623-1.617zm-.405 9.069c-3.393 29.878-25.893 62.45-38.68 75.775 24.496-23.28 40.198-49.859 43.885-72.277a105.208 105.208 0 0 0-5.205-3.498z" transform="translate(99.401 379.666)"/>
		<path fill="#666" stroke="none" stroke-width="1" d="M101.666.336C86.899-.197 87.702 19.16 91.979 53.81c1.671 13.542 4.72 15.318 6.058 24.687 1.354-.14 2.714-.25 4.078-.33-.636-1.409-1.146-2.805-1.426-4.178-1.784-8.77-11.684-59.91 4.016-62.07 22.149-3.049 57.11 28.336 57.11 28.336-.88-1.298-35.635-37.149-58.67-39.807a18.831 18.831 0 0 0-1.479-.113zm.17 80.6a97.588 97.588 0 0 0-3.504.082c.042.438.088.858.123 1.328.27 3.595 6.92 13.234 8.035 19.756.56 3.272-.997 8.955-1.205 17.28 2.435-.277 4.772-.58 7.053-.9.703-8.55 2.38-12.579 1.736-17.505-.826-6.329-6.784-13.272-10.549-20.012-.562-.007-1.128-.032-1.69-.03zm10.4 38.959c-2.278.19-4.599.355-6.955.503-.092 8.142 1.153 18.673 6.785 31.856 5.526 12.932 15.84 33.959 15.84 33.959s-13.29-32.66-14.222-39.375c-1.72-12.395-1.849-20.776-1.448-26.943z" transform="translate(99.401 379.666)"/>
		<path fill="#b3b3b3" fill-opacity="1" stroke="#b3b3b3" stroke-width="1.254" d="M280.164 440.937c-.946 1.908-11.043 2.863-11.043 2.863 18.456 11.35 50.886 15.757 68.305 2.863 0 0-5.837 1.113-10.885 1.272-5.564-.917-16.593-32.433-46.377-6.998zm40.977 8.432s-21.081 5.51-36.697-2.585c14.619-15.737 27.22-11.256 36.697 2.585z" display="inline"/>
		<path fill="#b3b3b3" fill-opacity="1" stroke="#b3b3b3" stroke-width="1.254" d="M341.33 457.004c2.998-2.704 8.834-4.93 15.775-4.453 6.94.477 18.772 4.294 19.718 5.884.947 1.59.473 10.178-.946 8.905-1.42-1.272-4.89-3.18-4.89-1.749s.315 12.404-3.155 12.881c-3.47.477-14.828-3.021-14.197-5.566.63-2.544 4.102-4.324 4.574-7.633.217-1.521-.558-5.123-6.467-3.34-5.114 1.544-7.256 4.93-10.411-4.93z" display="inline"/>
		<path fill="#777" fill-opacity="1" stroke="none" stroke-width="1" d="M359.26 566.233c1.885-5.735 4.898-10.237 4.472-18.496-2.265 1.124-4.411 4.179-6.57 7.041 0 0-7.495-21.043-13.072-23.291-5.577-2.25-20.078 1.799-26.213.224-6.135-1.574-11.154 7.197-11.154 7.197s-3.346-3.598-7.362-5.96c-4.015-2.361-18.739-3.148-18.739-3.148 6.487-11.903 13.329-21.054 27.663-25.975.64 3.13 1.51 6.307 3.194 9.647 1.807-3.214 2.8-7.082 3.392-9.888 3.864.49 6.581.98 11.938 1.47.419 2.683.683 5.398 2.111 7.879 1.64-2.532 2.36-5.002 2.933-7.463 10.031 2.062 20.543 2.184 30.976 2.628 1.755 5.798 1.452 12.19 1.87 18.374 1.842-4.988 3.14-10.527 3.93-16.575l1.004 6.297c2.7-2.13 2.696-6.301 3.904-9.558 15.614 6.12-10.26 53.058-14.277 59.597z" display="inline"/>
		<path fill="#999" fill-opacity="1" stroke="none" stroke-width="1" d="M314.567 568.429c-2.69-1.052-2.88-15.183-1.673-15.293 3.363 5.05 6.488 8.177 9.258 8.433 0 0-2.789 6.635-7.585 6.86z" display="inline"/>
		<path fill="#999" fill-opacity="1" stroke="none" stroke-width="1" d="M327.06 564.38c-1.554-6.371-.962-12.743.446-19.115 3.367 5.124 3.742 10.039 6.47 14.055 0 0 .668 5.06-6.917 5.06z" display="inline"/>
		<path fill="gray" stroke="none" stroke-width="1" d="M267.496 577.852c1.562 0 53.54 29.91 70.718 29.236 17.177-.675 28.555-22.714 28.555-22.714s-11.6 14.843-25.209 15.967c-13.608 1.125-44.394-10.345-74.064-22.49z" display="inline"/>
		<path fill="gray" stroke="none" stroke-width="1" d="M237.703 627.784c-2.008-15.968-16.062-32.61-18.74-54.874-2.676-22.265-5.13-33.285-5.13-33.285s6.246 32.835 12.493 47.678c6.246 14.843 12.716 14.618 11.377 40.48z" display="inline"/>
	</g>
	<g id="layer4" fill-rule="evenodd" stroke="none" stroke-linecap="butt" stroke-linejoin="miter" stroke-opacity="1" stroke-width="1" display="inline" opacity=".05" transform="translate(-99.401 -379.666)">
		<path fill="gray" d="M262.445 380.632c5.53 18.503 17.01 38.983 40.156 46.328-23.614-14.44-30.56-25.962-40.156-46.328zm-56.584 78.004c-16.45.308-32.269 4.466-46.928 15.777 43.269-30.426 94.642 2.923 144.338 1.575-32.307-4.494-66.007-17.94-97.41-17.352zm89.154 24.547c-37.348 1.875-55.91 16.447-114.664 18.666 45.31-.308 71.997-6.018 114.664-18.666zm-1.56 3.824c-32.74 8.224-30.179 8.532-31.678 44.754 4.52-30.566 2.444-30.663 31.678-44.754zm134.109 1.348c-9.93-.074-20.838.756-32.605 2.926 33.4-5.525 77.094 4.537 92.357 10.343-8.978-4.693-29.963-13.047-59.752-13.27zm-27.922 7.873c9.634 2.862 17.361 6.305 24.145 9.68-.497-.147-.984-.3-1.489-.44 1.373.57 2.741 1.164 4.11 1.754 16.87 8.62 28.053 16.192 48.916 11.459-25.613 2.201-49.726-18.38-75.682-22.453zm.225 4.947c10.357 2.652 18.816 5.242 26.218 8.211-3.975-2.032-8.268-4.12-13.078-6.123-4.12-.824-8.483-1.515-13.14-2.088zm-5.356 4.498c37.65 17.82 49.8 49.397 50.64 53.074-1.126-21.123-25.686-47.244-50.64-53.074zm47.842 11.873c11.462 7.14 21.564 16.796 35.46 31.77-7.987-11.848-15.683-20.983-24.286-28.022-3.863-.825-7.51-2.135-11.174-3.748z" display="inline" opacity="1"/>
		<path fill="#fff" d="M262.465 379.31c5.53 18.502 17.01 38.982 40.156 46.327-23.614-14.44-30.56-25.962-40.156-46.328zm-56.584 78.003c-16.45.308-32.269 4.466-46.928 15.777 43.269-30.426 94.642 2.923 144.338 1.575-32.307-4.494-66.007-17.94-97.41-17.352zm89.154 24.547c-37.348 1.875-55.91 16.447-114.664 18.666 45.31-.308 71.997-6.018 114.664-18.666zm-1.56 3.824c-32.74 8.224-30.179 8.532-31.678 44.754 4.52-30.566 2.444-30.663 31.678-44.754zm134.109 1.348c-9.93-.074-20.838.756-32.605 2.926 33.4-5.525 77.094 4.537 92.357 10.343-8.978-4.693-29.963-13.047-59.752-13.27zm-27.922 7.873c9.634 2.862 17.361 6.305 24.145 9.68-.497-.147-.984-.3-1.489-.44 1.373.57 2.741 1.164 4.11 1.754 16.87 8.62 28.053 16.192 48.916 11.459-25.613 2.201-49.726-18.38-75.682-22.453zm.225 4.947c10.357 2.652 18.816 5.242 26.219 8.211-3.976-2.032-8.269-4.12-13.079-6.123-4.12-.824-8.483-1.515-13.14-2.088zm-5.356 4.498c37.65 17.82 49.8 49.397 50.64 53.074-1.126-21.123-25.686-47.244-50.64-53.074zm47.842 11.873c11.462 7.14 21.564 16.796 35.46 31.77-7.987-11.848-15.683-20.983-24.286-28.022-3.863-.825-7.51-2.135-11.174-3.748z" display="inline" opacity="1"/>
	</g>
</svg>
