<?xml version="1.0" encoding="UTF-8"?>
<svg xmlns="http://www.w3.org/2000/svg" width="500" height="435" viewBox="0 0 500 435">
	<defs>
		<linearGradient id="linearGradient975" x1="273.8" x2="254.1" y1="465.1" y2="610.8" gradientTransform="matrix(1.249 0 0 1.259 -124.2 -438.1)" gradientUnits="userSpaceOnUse">
			<stop offset="0" stop-opacity=".078"/>
			<stop offset="1" stop-opacity="0"/>
		</linearGradient>
	</defs>
	<g opacity=".2">
		<path fill="url(#linearGradient975)" d="m89.61 35.72-1.023.06c.429.672.835 1.49 1.26 2.526l.623 5.17c-1.194.22-2.519.59-3.775.466-12.92 6.713-19.07 8.063-35.88 2.248-5.766-5.149-8.021 4.08-14.28 2.426-6.552-2.626-16.46-1.399-23.05-1.197-4.937 12.88 6.71 25.84 20.81 31.2l-8.986 12.06c17.12 2.858 29.98 14.08 30.54 35.03l14.82 4.955c.383 10.14-5.824 14.14-1.307 24.93 9.867 1.02 19.74 1.547 29.6 6.213l-13.3 20.88c13.63 1.928 24.79 26.24 31.5 39.41l1.059.786c.468-6.146 3.961-11.45 6.1-17.03-3.72-10.72-6.797-24.16-7.768-43.21-6.191-13.61-10.23-25.62-10.84-41.28-7.717.487-15.87.765-24.76.826 9.139-.345 17.3-.99 24.72-1.838-.016-.548-.01-1.121-.018-1.678-7.965.522-16.38.82-25.6.883 9.502-.36 17.94-1.044 25.59-1.943-.022-4.772.238-9.872.858-15.48-2.392-4.846-5.02-11.94-7.496-20.15-13.68.495-26.92 3.948-39.47 12.78 9.652-8.122 19.74-12.62 30.17-14.7-10.7 1.445-21.1 5.064-31.06 12.07 12.27-10.33 25.24-14.81 38.73-15.9-3.524-12.79-6.533-27.45-7.75-40.5zm249.2 15.24c-4.978 2.251-11.45 7.707-15.31 11.29-7.133 2.813-20.33 2.844-22.65-4.875-7.924 4.783-13.01-1.176-19.02-4.797-4.239 8.855-12.28 8.014-12.28 8.014 1.938 17.42 11.65 21.65 24.65 31.5 6.308 4.306 10.69 9.4 13.51 15.03 26.85-2.815 52.7.691 73.16 9.385l-.69-12.51c2.673-3.931 5.419-7.422 8.28-10.22-2.245-11.77-5.191-23.38-3.445-36.06a17.291 17.291 0 0 0 5.029-4.902c-2.958-3.397-4.811-1.332-6.49 2.35-1.98 4.797-3.287 10.04-7.51 14.01-11.7.296-19.05 13.31-32.42 10.48-8.656-11.33-9.462 7.387-17.92 4.418-7.22 2.803-7.52 1.941-5.148-.494-3.598-.846 4.513-6.656 7.484-10.37-.085.038-.175.068-.258.107-1.542-8.668 5.517-15.07 11.01-22.36zm-44.59 41.13c-.042-.029-.08-.06-.123-.088v.002c.042.028.081.058.123.086zm23.41 15.29a157.26 157.26 0 0 0-9.678.201c.34.705.66 1.416.953 2.137 26.41-2.727 51.84.657 72.11 9.082l-.084-1.529c-14.13-4.365-39.1-9.659-63.3-9.89zm.898 2.633a157.79 157.79 0 0 0-9.432.19 38.428 38.428 0 0 1 1.934 6.788c19.59 7.07 35.09 21.5 63.76 19.4 2.035-1.593 4.32-3.34 6.9-5.348l-.627-11.38c-14.26-4.315-38.79-9.42-62.53-9.648zm-7.406 7.537c.11.63.219 1.259.301 1.896 18.8 6.636 33.73 20.17 59.85 19.76a137.424 137.424 0 0 1 3.373-2.711c-21.64 7.91-39.53-9.681-63.53-18.95zm.372 2.426c.03.255.049.513.074.77.371.071.751.139 1.119.212 4.81 2.003 9.103 4.091 13.08 6.123-4.28-1.717-8.93-3.305-14.08-4.854.021.339.047.676.062 1.016.614.115 1.233.228 1.836.348 4.81 2.003 9.103 4.091 13.08 6.123-4.5-1.805-9.399-3.47-14.87-5.094a53.926 53.926 0 0 1-.246 5.98c14.95 8.932 27.53 23.66 31.78 37.66 1.374 3.667 2.213 7.311 2.4 10.82-.105-.46-.414-1.399-.9-2.65l.002.018-.016-.055c-2.814-7.216-12.35-26.04-33.89-41.18-4.615 26.96-26.61 56.48-43.38 71.94a231.043 231.043 0 0 0 3.34-3.871c.243-.425-4.118 4.158-6.779 6.484l-.002.002c0 .002-.003.003-.004.004-8.378 12.15-16.32 17.11-25.11 17.55-.964 2.392-1.99 5.233-4.748 6.822 23.35 3.117 21.16 41.03 7.545 47.82 58.78-3.64 2.851 19.51 4.922 33.93 14.69 4.321 55.98 15.68 64.38 9.143 10.24-7.963 14.89-24.49 19.34-31.85 4.445-7.365 23.89-29.57 19.34-38.67-4.55-9.1 8.822-13.59 8.822-13.59-1.66-10.85-11.4-31.93-7.662-33.86 8.067-4.167 34.22-15.17 11.07-34.03 6.19-2.073 9.533-5.737 10.71-9.414-11.09-11.6-19.94-19.61-29.77-25.73a66.213 66.213 0 0 0 6.525 2.486 100.983 100.983 0 0 0-7.422-5.119 66.092 66.092 0 0 0 6.537 2.488c-11.57-4.511-23.32-12.53-37.08-17.75zm42.35 19.54c3.872 3.232 7.565 6.904 11.19 11.06-1.217-3.38.446-6.193 4.52-9.873-5.365.873-10.55.29-15.71-1.184zm12.75 12.89c2.204 2.625 4.39 5.44 6.58 8.449.146-4.155-2.39-7.787-6.58-8.449z" transform="translate(-15.336 3) scale(1.321)"/>
		<path fill="#fff" fill-opacity=".098" fill-rule="evenodd" d="M125.684 18.661c-.904-.012-1.79.014-2.656.08-18.777 1.441-14.398 47.114-2.109 84.589 41.425-.53 86.319 20.317 131.883 23.427-15.258.413-30.626-1.659-45.954-4.562 15.558 3.723 31.306 6.957 47.143 8.04-43.744 1.187-88.478-17.957-130.382-18.977 3.534 9.536 7.541 18.247 11.759 25.126-1.043 6.642-1.86 13.369-2.082 20.798 46.224-6.587 69.71-18.958 108.585-20.908a1303.547 1303.547 0 0 1-19.247 5.56 200.459 200.459 0 0 1 20.427-2.083c-42.024 12.458-72.32 19.817-109.785 22.927.222 19.797 4.901 45.104 20.387 86.308-5.242-10.858-9.999-20.297-14.108-29.186 10.079 74.67 33.685 63.022 30.316 106.586-4.679-17.528-13.728-30.626-20.957-51.473-5.63 14.688-18.398 27.956 7.618 51.423 4.16 35.475 36.245 37.175 60.002 53.773 1.151 8.82 7.688 30.355 13.478 30.255 9.807-5.83 61.841 8.93 80.599 10.09-3.179-19.028 71.35-49.794-6.517-44.975 17.987-8.975 20.877-59.052-9.966-63.171 3.645-2.1 4.998-5.855 6.272-9.015-22.737 1.156-49.733-20.547-93.667-38.455 94.927 34.945 98.527 41.295 131.082 8.614a133.863 133.863 0 0 1-4.3 6.655l.008-.008c3.591-3.14 9.546-9.41 8.942-8.536 21.467-25.386 43.334-59.862 45.313-94.887a144.025 144.025 0 0 0-13.318-7.183c4.513 1.054 9.013 2.626 13.428 4.6v-.077a142.658 142.658 0 0 0-14.618-8c4.922 1.15 9.832 2.908 14.628 5.142-.007-1.987-.053-3.974-.2-5.96-2.03-.55-4.014-1.097-6.164-1.646 2.079.255 4.097.535 6.09.828a83.05 83.05 0 0 0-.249-2.428c-2.296-.626-4.577-1.25-7.028-1.879 2.369.292 4.662.616 6.92.955a80.811 80.811 0 0 0-.356-2.557 98.418 98.418 0 0 0-5.677-1.454c1.916.3 3.785.68 5.622 1.11-.161-.991-.368-1.981-.566-2.972a98.99 98.99 0 0 0-6.24-1.617c2.105.33 4.155.748 6.164 1.234-.382-1.855-.806-3.71-1.328-5.556a146.85 146.85 0 0 0-9.835 1.266 236.153 236.153 0 0 1 9.753-1.543 79.535 79.535 0 0 0-.996-3.209c-3.373.325-6.698.737-9.944 1.273a236.027 236.027 0 0 1 9.843-1.557c-2.386-7.075-5.843-14.068-10.579-20.897.056.038.107.077.162.115-17.177-13.018-30.006-18.597-32.565-41.614-6.28-.416-11.289-5.534-9.294-16.018 2.797-19.307-15.718 1.289-20.357-8.407-7.256-17.957-34.726 7.787-42.295-8.704-9.187-18.007-15.078 3.9-25.466 6.58a204.932 204.932 0 0 0 8.563 5.542 69.943 69.943 0 0 1-10.629-4.352 188.927 188.927 0 0 0 11.819 7.827c-14.798-4.695-25.977-13.458-34.416-24.027-2.176 11.949-5.186 17.168-24.147 10.929a395.207 395.207 0 0 1 3.898 3.798s-6.402-5.293-15.828-11.888c-5.521-2.52-9.36-3.55-4.59-3.136-15.427-10.35-36.544-22.267-52.362-22.487zM220 33.79c-.117.693-.216 1.31-.32 1.949 5.327 6.287 11.758 12.198 20.207 18.277 7.703-12.528-8.78-17.037-19.887-20.227zm-28.216 15.928c.774.732 1.519 1.443 2.246 2.14-.656-.756-1.425-1.462-2.246-2.14zm57.302 18.448c20.427-.177 30.476 21.717 35.595 22.567 4.289.406 8.586.79 12.869 1.192-23.007 17.028-65.841 11.209-90.228-3.782-.97-.698-1.726-1.542-2.25-3.156 14.118 1.178 19.977-16.607 44.004-16.817zm70.94 28.196c10.35.221 21.498 3.782 28.057 7.327.253.425.407 1.284.511 2.28.606.29 1.194.581 1.738.875 1.251 2.101.625 13.449-1.25 11.759-13.218-10.109-.79 11.198-10.628 14.708-3.965 1.412-16.938-3.052-18.608-6.395-1.503-1.13-2.458-2.502-2.4-4.113.106-2.908 6.75-6.854 6.11-11.488-6.498-2.496-12.687 6.02-17.067 1.25-.11-.12-.223-.236-.332-.373-1.502-1.707-3.132-4.819-4.99-10.119 4.192-3.951 10.26-5.563 16.809-5.716.717-.018 1.445-.007 2.058-.002zm7.26 42.984c16.307 16.758 28.796 15.788 29.426 40.994-1.744 20.078-21.258 61.822-27.707 81.4-4.37-.336-3.83-2.377-11.488-6.24-7.661-3.861-37.715.891-47.734.594-9.575.493-36.215-43.974-50.683-56.442-.018-.006-.02-.048-.006-.123.373-2.356 16.748-40.095 60.492-45.264 24.887-2.938 47.444-8.77 47.704-14.918zm-87.419 1.96c-6.606 3.185-11.928 5.808-16.367 8.205 4.797-1.466 10.498-2.955 17.547-4.727-38.615 18.618-35.875 18.738-41.844 59.112.247-5.978.412-11.218.594-15.828-.534 3.679-1.092 7.687-1.781 12.349 1.98-47.844-1.403-48.254 41.844-59.112zm-76.89 14.119a402.97 402.97 0 0 1-29.685 3.64c-.01.583-.024 1.156-.026 1.748 11.039-1.535 20.748-3.404 29.706-5.388z"/>
		<path fill-opacity=".118" fill-rule="evenodd" d="M218.481 27.61c-.349 2.072-.634 3.96-.924 5.782.686.779 1.393 1.58 2.033 2.342.106-.639.206-1.254.323-1.948 7.187 2.066 16.618 4.684 20.304 9.664 1.792-9.264-12.023-13.051-21.73-15.838zm41.559 9.05c-5.763.04-10.97 12.154-18.6 13.711-.312 1.133-.838 2.34-1.635 3.638 1.122.807 2.292 1.621 3.488 2.436 10.39-2.679 16.288-24.584 25.47-6.579 7.57 16.487 35.045-9.257 42.298 8.706 3.516 7.347 14.993-2.688 19.14.415 1.351-16.13-16.089 2.774-20.567-6.594-7.256-17.966-34.73 7.787-42.298-8.706-2.641-5.174-5.008-7.048-7.29-7.033zm-82.893.066c6.086 5.112 11.862 10.303 17.2 15.601 19.088 6.317 22.1 1.098 24.28-10.888a85.528 85.528 0 0 1-2.047-2.685c-2.39 11.07-7.084 14.36-32.193 4.187-2.04-1.667-4.054-3.754-7.195-6.212l-.036-.005zM103.369 54.15c-1.746.247-3.757.903-5.663.715-17.067 8.868-25.192 10.651-47.398 2.97-7.616-6.802-10.595 5.388-18.863 3.204C22.789 57.57 9.7 59.191.995 59.458a9.365 9.365 0 0 1-1.044.877c.661 1.577 1.803 3.366 2.967 5.276 8.697-.305 21.453-1.806 29.96 1.605 8.272 2.185 11.25-10.006 18.864-3.204 22.206 7.681 30.343 5.898 47.397-2.97 1.66.164 3.41-.325 4.987-.617zm328.797 16.156c-.579-3.209-15.35 2.873-21.651 8.738-9.423 3.716-26.856 3.755-29.92-6.442-10.468 6.318-17.187-1.551-25.126-6.334-5.506 11.594-19.908 14.068-24.518 5.4.24 15.469 19.392 14.57 25.944.777 7.936 4.783 14.65 12.655 25.126 6.336 3.06 10.197 20.489 10.156 29.92 6.44 4.308-3.864 12.27-11.154 20.225-14.914zm62.668-6.015c-1.981-.047-3.523 2.226-4.97 5.398-2.615 6.337-4.342 13.263-9.92 18.507-15.456.391-25.165 17.583-42.827 13.844-11.435-14.967-12.502 9.759-23.672 5.837-2.209.857-3.88 1.428-5.179 1.8-1.508 1.857-2.026 3.29-.188 3.723-3.132 3.216-2.737 4.355 6.8.652 11.174 3.922 12.238-20.792 23.673-5.836 17.662 3.739 27.371-13.448 42.827-13.844 3.04-2.861 4.923-6.224 6.442-9.715.557-2.08 1.398-4.162 2.477-6.207.33-.866.65-1.741 1.001-2.59 1.33-2.913 2.741-5.059 4.497-5.354a50.138 50.138 0 0 1 3.156-3.327c-1.579-2.002-2.926-2.866-4.115-2.894z"/>
		<path fill-opacity=".059" fill-rule="evenodd" d="M327.463 145.42c-2.41 5.4-22.8 9.504-47.692 12.447-45.054 5.319-61.34 41.636-60.745 41.822 14.477 12.47 41.116 56.943 50.69 56.448 10.02.297 40.075-4.456 47.74-.595 7.663 3.862 7.123 5.904 11.492 6.24 6.443-19.567 25.958-61.315 27.704-81.402-4.758-26.528-12.867-18.205-29.177-34.962zm-58.825 17.574c5.103.647 8.694 1.295 15.765 1.942.194 1.242.384 2.485.602 3.722l.027.003c.042.268.083.537.123.805.399 2.015.955 4 2.037 5.878 2.167-3.345 3.118-6.61 3.873-9.86 13.251 2.724 27.134 2.886 40.918 3.472.652 2.151 1.075 4.37 1.378 6.62 1.152 5.317 1.276 10.93 1.493 16.522 2.218-6.294 3.807-13.227 4.791-20.757l.612 3.84c.005-.039.013-.076.017-.114l.728 4.567c3.535-2.821 3.537-8.311 5.129-12.595 4.33 1.698 6.295 5.852 6.678 11.405 3.535 19.134-20.459 63.804-24.904 71.05.403-1.228.85-2.406 1.306-3.576 1.684-5.687 2.11-11.583 1.947-18.886-2.04 1.934-4.029 4.687-6.025 7.334 0 0-9.901-27.803-17.264-30.763-7.367-2.972-26.527 2.375-34.627.295-8.104-2.08-14.737 9.506-14.737 9.506s-4.421-4.753-9.727-7.873c-5.304-3.118-25.388-7.88-25.388-7.88 8.572-15.728 17.61-27.815 36.547-34.317.845 4.135 1.993 8.331 4.218 12.744 2.386-4.246 3.7-9.357 4.482-13.066zm17.425 54.38c4.447 6.77 4.943 13.263 8.545 18.564 0 0 .217 1.652-.794 3.314-2.997-5.091-3.71-11.161-7.856-17.475-.846 3.83-1.45 7.659-1.683 11.487-.122-5.3.617-10.597 1.787-15.902zm-19.308 10.397c4.444 6.672 8.573 10.8 12.23 11.139 0 0-.795 1.822-2.218 3.824-3.109-1.398-6.507-5.138-10.113-10.552-.378.034-.65 1.128-.8 2.766-.076-3.861.243-7.116.901-7.177zM207.252 88.152c24.386 14.993 67.226 20.819 90.225 3.782 0 0-7.71 1.47-14.373 1.68-5.124-.844-13.738-21.664-31.836-22.285-24.663-.848-25.337 19.101-44.015 16.816zm68.719 7.356s-27.847 7.279-48.48-3.414c19.312-20.793 35.957-14.875 48.48 3.414zm74.346 11.349c1.25 2.1.625 13.448-1.25 11.764-13.223-10.105-.792 11.202-10.627 14.702-4.36 1.552-19.617-3.997-18.759-7.352.855-3.344 9.487-8.353 4.94-14.135-8.669-5.038-16.936 11.77-21.308-6.59 10.543-9.958 35.72-4.487 47.001 1.611z"/>
		<g fill-opacity=".098">
			<path fill-opacity=".118" fill-rule="evenodd" d="M327.216 139.352c-.252 6.149-22.812 11.982-47.705 14.923-45.054 5.322-61.08 45.203-60.497 45.389-.591-.19 15.69-36.51 60.745-41.822 24.892-2.939 45.475-6.949 47.692-12.446 16.31 16.756 24.422 8.426 29.178 34.96-.628-25.214-13.115-24.248-29.426-41.004zm-57.947 27.332c-.782 3.707-2.093 8.817-4.48 13.066-2.223-4.413-3.373-8.61-4.217-12.744-18.936 6.5-28.608 14.862-37.178 30.59 0 0 20.087 4.761 25.388 7.88 5.305 3.12 9.727 7.873 9.727 7.873s1.657-2.896 4.327-5.532a20.185 20.185 0 0 1 2.182-1.88c2.352-1.732 5.185-2.875 8.224-2.095 8.105 2.08 27.258-3.267 34.627-.295 7.367 2.97 17.264 30.763 17.264 30.763a300.013 300.013 0 0 1 2.631-3.454c.318-.406.635-.8.953-1.188.808-.986 1.62-1.914 2.441-2.692.874-.829 1.756-1.523 2.654-1.97.472 9.142-2.24 14.8-4.598 20.856l-.002.005c-.16.41-.316.826-.472 1.241a60.33 60.33 0 0 0-.835 2.334c2.552-4.257 5.187-9.187 7.398-13.474.312-.609.617-1.2.938-1.835 7.193-15.035 18.936-39.952 16.57-55.73-.826-3.66-2.72-6.375-6.05-7.68-1.596 4.303-1.59 9.813-5.156 12.633l-.6-3.751-.728-4.568-.017.114c-1.045 7.944-2.752 15.22-5.174 21.784-.247-4.126-.335-8.405-.569-12.222-.002-.036-.002-.071-.005-.107 0-.015-.004-.03-.005-.045a73.28 73.28 0 0 0-.57-5.746 53.825 53.825 0 0 0-.078-.512 45.622 45.622 0 0 0-.491-2.726l-.002-.008-.003-.012a37.16 37.16 0 0 0-.747-2.896c-13.784-.586-27.667-.747-40.918-3.47-.757 3.25-1.71 6.513-3.875 9.858-1.744-3.029-2.174-6.322-2.666-9.603-.04-.268-.081-.537-.123-.805l-.026-.002c-7.057-.647-10.647-1.293-15.741-1.94zm77.13.421a31.601 31.601 0 0 1 3.667 2.784c-.946-1.206-2.162-2.145-3.667-2.784z"/>
			<path fill-opacity=".118" d="M373.17 124.502c4.732 6.835 8.19 13.831 10.576 20.898 2.489-.341 4.974-.645 7.452-.905-3.744-7.496-9.59-14.28-18.032-20zm18.322 20.621c-2.576.134-5.125.33-7.65.573.356 1.067.69 2.136.996 3.207a234.9 234.9 0 0 1 7.91-.954 48.377 48.377 0 0 0-1.256-2.826zm1.51 3.462c-2.721.137-5.416.338-8.08.596.522 1.847.947 3.7 1.329 5.555a88.944 88.944 0 0 1 9.3 2.82 50.81 50.81 0 0 0-2.549-8.97zm-6.677 6.535c.198.99.406 1.98.567 2.973a87.826 87.826 0 0 1 9.175 2.701 55.656 55.656 0 0 0-.393-2.5 115.888 115.888 0 0 0-9.35-3.174zm.621 3.316c.135.852.25 1.704.356 2.558 3.081.462 6.065.966 8.955 1.521-.032-.34-.058-.683-.098-1.021a113.96 113.96 0 0 0-9.214-3.057zm.465 3.481c.092.809.18 1.618.248 2.428 3.04.446 5.981.936 8.836 1.47-.02-.449-.052-.894-.08-1.342a365.81 365.81 0 0 0-9.004-2.557zm.322 3.246c.148 1.986.195 3.973.202 5.96a91.664 91.664 0 0 1 8.289 4.407 71.35 71.35 0 0 0 .328-7.898c-2.79-.829-5.786-1.65-8.82-2.47zm.189 8.819v.077c.17.076.338.165.508.243l-.508-.32zm-.109 2.66c-2.118 37.424-26.935 74.227-49.722 99.973 22.153-20.409 51.202-59.405 57.305-95.006a139.288 139.288 0 0 0-7.59-4.967z"/>
			<g fill-rule="evenodd">
				<path fill-opacity=".137" d="M204.982 84.997c.327.887.707 2.057 2.249 3.154 18.676 2.278 19.344-17.672 44.014-16.818 18.106.622 26.713 21.438 31.84 22.28 6.67-.21 14.379-1.68 14.379-1.68s-8.397-.772-12.868-1.193c-5.123-.845-15.17-22.738-35.592-22.565-24.039.209-29.896 17.995-44.015 16.818zm23.914 5.626c-.471.48-.942.96-1.418 1.471 20.633 10.694 48.473 3.416 48.473 3.416a65.013 65.013 0 0 0-2.294-3.144c-.216.056-24.744 6.404-44.77-1.742zm89.032 5.755c-6.543.153-12.62 1.764-16.806 5.716 1.994 5.685 3.731 8.875 5.324 10.488-1.195-1.3-2.259-3.568-3.157-7.334 10.039-9.483 33.327-4.972 45.265.745-.104-1.001-.261-1.863-.515-2.289-6.995-3.78-19.208-7.581-30.107-7.326zm5.59 14.948c.638 4.633-6.005 8.581-6.11 11.49-.059 1.61.896 2.981 2.4 4.11-.166-.332-.226-.654-.148-.957.855-3.344 9.486-8.352 4.939-14.13a7.517 7.517 0 0 0-1.081-.509z"/>
				<path d="M206.724 264.822c69.234 28.217 96.42 65.905 131.136 8.616-32.603 32.681-36.209 26.327-131.136-8.617z"/>
				<path fill-opacity=".078" d="M169.868 326.38c-8.183-30.673-29.749-47.727-31.532-116.459 9.234 85.733 35.033 71.083 31.532 116.46z"/>
			</g>
			<path fill-opacity=".118" d="M118.746 2.987c-2.713.043-5.15.64-7.238 1.894-15.773 9.479-8.772 60.595 1.762 98.811a112.28 112.28 0 0 1 7.593-.356c-12.29-37.477-16.671-83.144 2.108-84.597 27.728-2.128 75.443 37.437 75.443 37.437-17.319-17.146-57.583-53.54-79.67-53.183zm.88 108.203c-1.402.006-2.799.04-4.194.09 3.27 10.842 6.74 20.199 9.897 26.592-.82 7.424-1.166 14.175-1.137 20.489 3.124-.367 6.142-.762 9.074-1.18.222-7.423 1.04-14.147 2.081-20.792-4.214-6.882-8.22-15.588-11.754-25.125-1.323-.033-2.65-.072-3.968-.067zm13.606 47.886a453.9 453.9 0 0 1-9.025.679c.01.735.002 1.493.023 2.217a371.08 371.08 0 0 0 8.976-1.146c.001-.592.017-1.167.026-1.749zm-.003 3.59c-2.933.243-5.92.453-8.95.645 1.235 31.558 13.001 51.836 29.34 85.666-15.496-41.202-20.172-66.512-20.397-86.314z"/>
			<path fill-opacity=".078" fill-rule="evenodd" d="M201.044 7.493c7.654 23.566 22.774 48.718 52.02 58.005a193.192 193.192 0 0 1-11.888-7.864c-21.097-10.766-33.237-30.7-40.132-50.132zM118.428 107.73c-5.215.02-10.383.354-15.495 1.055-13.699 2.773-26.961 8.714-39.643 19.393 57.16-40.198 125.02 3.862 190.62 2.082-15.852-1.084-31.625-4.319-47.2-8.048-30.012-5.688-59.867-14.584-88.334-14.478zm124.624 32.034a200.065 200.065 0 0 0-20.476 2.096c-21.44 6.004-40.25 10.474-59.577 13.58-18.798 4.169-41.004 7.829-71.426 8.978 59.854-.407 95.112-7.95 151.518-24.663zm-2.06 5.052c-7.047 1.77-12.751 3.259-17.543 4.724-18.507 10-20.41 15.839-23.712 38.6-.18 4.604-.344 9.832-.59 15.799 5.97-40.383 3.228-40.502 41.849-59.115zm175.957 1.92c-13.646-.038-27.701 1.175-41.822 3.725 44.12-7.299 101.835 5.992 122.007 13.659-22.18-11.185-50.172-17.305-80.185-17.385zm-35.64 10.26c24.887 5.521 44.53 20.397 63.79 27.94 2.038.654 4.096 1.239 6.208 1.69.285.232.564.476.846.712 9.467 2.704 18.983 3.149 29.129-.687-45.258 3.44-65.694-24.28-99.974-29.656zm.3 6.536c13.685 3.503 24.847 6.925 34.636 10.847-5.251-2.685-10.922-5.443-17.279-8.089-5.442-1.088-11.205-2.001-17.358-2.758zm-7.077 5.942c43.315 20.502 61.07 54.768 65.666 66.486-1.167-4.75-14.121-37.953-51.81-61.691-4.553-2.066-9.2-3.705-13.856-4.794zm63.196 15.68c15.139 9.432 28.48 22.193 46.843 41.968a269.039 269.039 0 0 0-6.27-8.89c-11.957-12.65-21.902-22.22-31.955-29.802a87.678 87.678 0 0 1-8.614-3.279zm.565 40.25c1.085 3.605 1.75 7.17 1.94 10.636.663 1.695 1.052 2.916 1.193 3.533-.245-4.594-1.345-9.365-3.132-14.162z"/>
		</g>
		<path fill="#fff" fill-opacity=".118" fill-rule="evenodd" d="M198.798.8c7.305 24.438 22.47 51.492 53.051 61.201C220.661 42.926 211.48 27.708 198.8.8zM62.075 124.682c57.16-40.198 125.019 3.86 190.62 2.08-68.217-4.663-134.874-49.022-190.62-2.08zm179.788 11.585c-49.34 2.477-73.857 21.73-151.519 24.663 59.855-.407 95.112-7.95 151.519-24.663zm-2.061 5.051c-43.25 10.864-39.868 11.271-41.85 59.115 5.972-40.383 3.23-40.502 41.85-59.115zm134.081 5.646c44.122-7.298 101.836 5.994 122.008 13.66-32.259-16.275-76.816-21.824-122.008-13.66zm6.187 6.535c40.171 8.912 66.684 42.246 99.973 29.657-45.257 3.438-65.693-24.28-99.973-29.657zm.297 6.535c13.685 3.503 24.861 6.925 34.637 10.847-5.251-2.684-10.923-5.443-17.28-8.089-5.442-1.088-11.205-2-17.357-2.758zm-7.075 5.942c49.735 23.54 65.785 65.257 66.895 70.106-1.487-27.9-33.936-62.405-66.895-70.106zm63.196 15.68c15.139 9.432 28.481 22.193 46.843 41.968-10.55-15.653-20.713-27.714-32.087-37.014-5.103-1.09-9.92-2.82-14.756-4.951z"/>
		<path fill="#fff" fill-opacity=".078" d="M268.679 162.957c-.782 3.705-2.098 8.817-4.485 13.063-2.224-4.414-3.372-8.61-4.218-12.745-18.916 6.493-27.952 18.56-36.512 34.267 8.561-15.68 18.23-24.043 37.146-30.542.846 4.135 1.994 8.333 4.218 12.745 2.387-4.246 3.698-9.356 4.48-13.063 5.098.646 8.687 1.294 15.746 1.94-.218-1.237-.407-2.48-.601-3.722-7.075-.647-10.668-1.296-15.773-1.943zm22.43 2.492c-.755 3.25-1.706 6.514-3.873 9.859-1.082-1.879-1.636-3.863-2.035-5.877-.04-.269-.082-.537-.124-.805h-.003c.042.268.084.536.124.805.492 3.28.922 6.573 2.666 9.603 2.166-3.344 3.119-6.607 3.876-9.858 13.25 2.724 27.133 2.884 40.924 3.47.289.954.534 1.92.746 2.894.001.003.001.01.003.014l.002.008c-.001-.007 0-.014-.002-.021-.304-2.251-.727-4.469-1.378-6.62-13.778-.586-27.662-.747-40.925-3.471zm55.073 1.54c-1.59 4.289-1.592 9.78-5.127 12.602l-.73-4.567.728 4.567.6 3.751c3.568-2.813 3.562-8.325 5.158-12.627 3.328 1.304 5.222 4.02 6.048 7.68-.24-3.47-1.095-6.395-2.761-8.514l-.003-.005a31.655 31.655 0 0 0-3.659-2.774c-.086-.037-.167-.08-.256-.114zm6.678 11.407c.416 2.785.374 5.863.015 9.11.423-3.403.467-6.498-.015-9.11zm-13.161-7.097c-.984 7.532-2.575 14.451-4.792 20.753.066 1.624.13 3.256.227 4.871 2.422-6.557 4.131-13.83 5.176-21.783zm-76.817 36.512a25.16 25.16 0 0 0 .003 0zm23.237 9.52c-1.17 5.3-1.909 10.6-1.789 15.905.235-3.828.839-7.66 1.684-11.488 4.147 6.31 4.86 12.38 7.856 17.477 1.01-1.662.793-3.314.793-3.314-3.603-5.305-4.098-11.799-8.546-18.573zm47.754 7.677c-.897.445-1.778 1.14-2.653 1.968.163 7.304-.262 13.198-1.945 18.877 2.358-6.05 5.068-11.712 4.597-20.858zm-67.054 2.724c-.658.06-.978 3.314-.903 7.175.151-1.638.425-2.731.802-2.766 3.607 5.415 7.003 9.155 10.111 10.552a23.875 23.875 0 0 0 2.22-3.824c-3.657-.338-7.786-4.467-12.23-11.138z"/>
	</g>
</svg>
