<?xml version="1.0" encoding="UTF-8"?>
<svg xmlns="http://www.w3.org/2000/svg" width="26.667" height="26.667" viewBox="0 0 25.02 25.02">
	<path fill="#aaa" stroke="none" d="M12.099 1a1.64 1.64 0 0 0-1.644 1.645v1.07A9.043 9.043 0 0 0 7.732 4.84l-.744-.744a1.639 1.639 0 0 0-2.325 0l-.581.582a1.64 1.64 0 0 0 0 2.325l.75.75a9.043 9.043 0 0 0-1.12 2.702H2.646A1.64 1.64 0 0 0 1 12.099v.822c0 .91.733 1.644 1.644 1.644h1.07a9.043 9.043 0 0 0 1.125 2.723l-.758.758a1.642 1.642 0 0 0 0 2.327l.581.58a1.64 1.64 0 0 0 2.325 0l.766-.765a9.043 9.043 0 0 0 2.7 1.119v1.068c0 .91.734 1.644 1.645 1.644h.822a1.64 1.64 0 0 0 1.644-1.644v-1.07a9.043 9.043 0 0 0 2.704-1.114l.763.763a1.642 1.642 0 0 0 2.326 0l.581-.581a1.642 1.642 0 0 0 0-2.327l-.762-.763a9.043 9.043 0 0 0 1.13-2.718h1.068a1.64 1.64 0 0 0 1.644-1.644v-.822a1.64 1.64 0 0 0-1.644-1.644h-1.07a9.043 9.043 0 0 0-1.114-2.704l.748-.748a1.64 1.64 0 0 0 0-2.325l-.58-.582a1.642 1.642 0 0 0-2.327 0l-.747.747a9.043 9.043 0 0 0-2.72-1.13V2.645A1.64 1.64 0 0 0 12.921 1h-.822zm.53 6.577a4.814 4.932 0 0 1 4.813 4.933 4.814 4.932 0 0 1-4.813 4.932 4.814 4.932 0 0 1-4.814-4.932 4.814 4.932 0 0 1 4.814-4.933z"/>
</svg>
