<?xml version="1.0" encoding="UTF-8"?>
<svg xmlns="http://www.w3.org/2000/svg" width="20" height="20" viewBox="0 0 20 20">
	<g fill="#aaa" stroke="#aaa" stroke-width=".2">
		<path d="M5.35 1.96c-1.44 3.33-2.908 6.525-4.423 9.84.18-.045.675-.045.84-.045.165 0 .494 0 .674.045.225-.885.675-2.07 1.185-3.33.57-.015 1.454-.031 1.994-.031.48 0 .992.016 1.487.03.705 1.89 1.035 3.016 1.125 3.33.255-.044.96-.044 1.214-.044.255 0 1.11 0 1.366.045-.75-1.515-2.822-6.555-4.112-9.84H5.35zm.03 2.385h.092a88.42 88.42 0 0 1 1.318 3.285c-.42.015-.899.014-1.244.014-.435 0-1.094 0-1.574-.014l1.408-3.285z"/>
		<path d="M11.929 4.988a.152.152 0 0 0-.127.109c-.085.085-.085.276 0 .572.127.254.127.951 0 2.094a27.53 27.53 0 0 1-1.461.191H9.263c-.381-.042-.55 0-.508.127.085.127.316.232.697.316.381.085.72.127 1.016.127.338 0 .762-.02 1.27-.062-.043.889-.085 1.713-.128 2.475-1.65 1.185-2.666 2.223-3.046 3.111-.339.889-.381 1.586-.127 2.094.254.466.53.72.826.762.338.042.655.022.951-.062.296-.127.592-.296.889-.508.338-.254.677-.55 1.015-.889.339.804.635 1.205.889 1.205.254-.042.423-.127.508-.254.084-.169.022-.358-.19-.57-.169-.212-.36-.55-.572-1.016.508-.719.931-1.396 1.27-2.03.338-.636.634-1.397.888-2.286 1.058-.042 1.842.147 2.35.57.55.424.866.996.951 1.715.085.677-.042 1.354-.38 2.031-.34.635-.847 1.206-1.524 1.713a8.289 8.289 0 0 1-2.158 1.016c-.678.254-.994.423-.952.508 0 .042.36-.02 1.079-.19.761-.127 1.523-.403 2.285-.826.761-.465 1.334-.993 1.715-1.586.423-.635.677-1.25.761-1.842.085-.634.043-1.184-.127-1.65a2.327 2.327 0 0 0-.888-1.205 2.997 2.997 0 0 0-1.397-.635c-.465-.127-1.016-.191-1.65-.191.084-.381-.043-.635-.381-.762-.339-.127-.508-.085-.508.127.042.17.063.403.063.7a8.645 8.645 0 0 0-1.84.634c.042-.72.105-1.481.19-2.285 2.327-.635 3.576-1.038 3.745-1.207.17-.17.105-.316-.191-.443s-.697-.065-1.205.189c-.508.212-1.27.445-2.285.7.084-.805.211-1.313.38-1.524.212-.254.212-.466 0-.635-.253-.212-.507-.339-.761-.38a.509.509 0 0 0-.254-.048zm2.158 5.632c-.38 1.27-.93 2.39-1.65 3.363a22.704 22.704 0 0 1-.127-2.601c.592-.381 1.185-.635 1.777-.762zm-2.412 1.143c0 1.396.062 2.37.19 2.92-.678.761-1.185 1.227-1.524 1.396-.38.127-.72.127-1.016 0-.254-.127-.338-.465-.254-1.016.043-.55.319-1.122.827-1.714a9.155 9.155 0 0 1 1.777-1.586z"/>
	</g>
</svg>
