<?xml version="1.0" encoding="UTF-8"?>
<svg xmlns="http://www.w3.org/2000/svg" width="20" height="20" viewBox="0 0 20 20">
	<path fill="#aaa" d="M3.64 9.453c-1.756 2.388-1.955 4.995-1.226 6.723.489 1.179 1.179 1.87 1.988 2.289.792.428 1.749.517 2.598.52h6.324c.92 0 1.85-.208 2.649-.674.799-.467 1.459-1.198 1.798-2.288.49-1.548.266-4.027-1.478-6.455-.008.012-.021.019-.03.03A7.5 7.5 0 0 1 10 12.984a7.5 7.5 0 0 1-6.36-3.53z" transform="scale(1.00079)"/>
	<path fill="#aaa" d="M10.008.992a4.5 4.5 0 1 0 0 9 4.5 4.5 0 0 0 0-9z"/>
</svg>
