<?xml version="1.0" encoding="UTF-8"?>
<svg xmlns="http://www.w3.org/2000/svg" width="26.667" height="26.667" viewBox="0 0 25.02 25.02">
	<path fill="#aaa" d="M4.24 10.96c-2.422 3.271-2.695 6.843-1.69 9.21.673 1.616 1.624 2.562 2.739 3.137 1.09.586 2.408.71 3.578.712h8.713c1.268 0 2.548-.284 3.649-.923 1.101-.64 2.01-1.642 2.478-3.134.675-2.122.366-5.517-2.037-8.844-.01.016-.029.025-.04.04a10.333 10.276 0 0 1-8.63 4.64 10.333 10.276 0 0 1-8.76-4.838z"/>
	<path fill="#aaa" d="M13.01 1C9.97 1 7.506 3.394 7.506 6.345c0 2.951 2.464 5.344 5.504 5.344 3.04 0 5.505-2.393 5.505-5.344 0-2.95-2.465-5.343-5.505-5.343z"/>
</svg>
