<svg width="332" height="221" viewBox="0 0 332 221" fill="none" xmlns="http://www.w3.org/2000/svg">
<path opacity=".2" d="M293.371 94.074c4.394 7.612 12.16 12.035 24.712 10.844l-2.809-4.956c7.664-4.425 10.285-14.236 5.853-21.913-4.433-7.676-14.239-10.312-21.903-5.887-7.665 4.425-10.285 14.236-5.853 21.912z" fill="#00AF89"/><path stroke="#fff" stroke-width="2" stroke-linecap="round" d="M299.732 81.501h4.224M307.655 81.501h7.619M299.732 86.412h8.751M312.181 86.412h3.093M299.732 91.323h1.961M305.391 91.323h9.882"/><path opacity=".2" d="M58.112 201.334c-4.395 7.611-12.16 12.034-24.712 10.843l2.809-4.956c-7.665-4.425-10.285-14.235-5.853-21.912 4.432-7.676 14.238-10.312 21.903-5.887 7.664 4.425 10.285 14.236 5.853 21.912z" fill="#00AF89"/><path stroke="#fff" stroke-width="2" stroke-linecap="round" d="M36.732 188.5h4.224M44.655 188.5h7.619M36.732 193.412h8.751M49.181 193.412h3.093M36.732 198.323h1.961M42.391 198.323h9.882"/><path stroke="#C8CCD1" stroke-width="3" stroke-linecap="round" d="M268.916 13.862v10.784M263.614 19.081h10.784M304.967 151.703v10.784M299.665 156.923h10.784M6.802 120.954v10.784M1.5 126.173h10.784"/><circle cx="160" cy="110" r="110" fill="#F8F9FA"/><mask id="a" mask-type="alpha" maskUnits="userSpaceOnUse" x="50" y="0" width="220" height="220"><circle cx="160" cy="110" r="110" fill="#F8F9FA"/></mask><g mask="url(#a)"><path opacity=".4" fill-rule="evenodd" clip-rule="evenodd" d="M200.166 124.51a2.5 2.5 0 1 0-2.544 4.304c9.513 5.624 13.606 12.753 14.497 20.482.912 7.901-1.488 16.748-5.674 25.668-6.954 14.821-18.383 28.973-25.747 38.09v.001a365.742 365.742 0 0 0-3.959 4.955 2.501 2.501 0 0 0 3.541 3.483l39.507-31.736c8.84.283 22.458-3.821 23.122-22.677-6.833-1.103-20.596 1.192-25.062 17.823l-23.515 18.888c5.874-7.847 12.156-17.146 16.64-26.703 4.356-9.285 7.18-19.13 6.114-28.365-1.085-9.406-6.17-17.858-16.92-24.213z" fill="#00AF89"/><path d="M200.519 81.656c-6.198 8.286-12.727 29.094 10.748 46.033 6.925-9.364 14.472-31.68-10.748-46.033z" fill="#7EA2EC"/><path d="M165.542 122.076c6.064 8.386 23.981 20.817 47.144 3.455-6.875-9.4-25.929-23.253-47.144-3.455z" fill="#7EA2EC"/><path d="M192.803 164.721c10.052-2.457 28.319-14.37 20.965-42.367-11.299 2.826-31.31 15.256-20.965 42.367z" fill="#7EA2EC"/><path d="M243.294 153.216c.051-10.349-7.084-30.956-36.029-30.602.006 11.647 7.22 34.073 36.029 30.602z" fill="#7EA2EC"/><path d="M249.617 102.173c-9.809-3.298-31.615-2.997-40.369 24.595 11.06 3.653 34.616 3.847 40.369-24.595z" fill="#7EA2EC"/><g filter="url(#b)"><path d="M223.937 132.013c-3.993 6.915-11.049 10.934-22.453 9.852l2.552-4.503c-6.964-4.021-9.345-12.935-5.318-19.91 4.027-6.974 12.937-9.369 19.901-5.349 6.964 4.021 9.345 12.935 5.318 19.91z" fill="#fff"/></g><path stroke="#2A4B8D" stroke-width="2" stroke-linecap="round" d="M203.732 120.5h4.224M211.655 120.5h7.619M203.732 125.412h8.751M216.181 125.412h3.093M203.732 130.323h1.961M209.391 130.323h9.882"/><path opacity=".4" fill-rule="evenodd" clip-rule="evenodd" d="M143.687 231.614a2.5 2.5 0 0 1-3.516.371c-19.861-16.064-29.864-34.167-34.582-54.014C97.602 178.38 84 174.617 84 156.13c5.062-.648 14.174.913 19.361 9.761-1.132-8.319-1.545-16.914-1.545-25.766a2.5 2.5 0 1 1 5 0c0 11.318.685 22.082 2.686 32.302 3.604-9.299 12.049-10.889 16.498-10.327 0 12.931-8.721 16.54-15.011 16.874 4.721 18.138 14.234 34.49 32.327 49.124a2.5 2.5 0 0 1 .371 3.516z" fill="#00AF89"/><circle cx="102.773" cy="99.519" r="27.403" fill="#FC3"/><circle cx="113.883" cy="118.776" r="27.403" fill="#FC3"/><circle cx="90.183" cy="118.776" r="27.403" fill="#FC3"/><path d="M86.85 121.738c4.074 3.333 10.467 5.184 15.924 5.184 15.134 0 27.403-12.268 27.403-27.403 0-15.134-12.269-27.403-27.403-27.403-13.622 0-24.922 9.939-27.045 22.96" stroke="#F8F9FA" stroke-width="2" stroke-linecap="round"/><path d="M130.547 97.02c6.529 5.008 10.739 12.89 10.739 21.756 0 15.134-12.269 27.403-27.403 27.403-15.135 0-27.403-12.269-27.403-27.403 0-10.89 6.352-20.296 15.553-24.716" stroke="#F8F9FA" stroke-width="2" stroke-linecap="round"/><path d="M101.663 143.666a27.307 27.307 0 0 1-11.48 2.513c-15.134 0-27.403-12.269-27.403-27.403 0-15.135 12.269-27.403 27.403-27.403 15.134 0 27.403 12.268 27.403 27.403 0 1.128-.068 2.24-.201 3.332" stroke="#F8F9FA" stroke-width="2" stroke-linecap="round"/><path d="M86.48 122.108c0-18.663 10.368-26.292 15.553-27.773 13.923 6.517 16.17 21.725 15.553 28.514-2.963 1.852-9.999 4.073-16.294 4.073-5.036 0-11.973-3.209-14.813-4.814z" fill="#fff"/><g filter="url(#c)"><path d="M84.947 114.878c1.792 9.48 8.401 16.848 22.265 20.087l-1.111-6.154c9.876-1.866 16.417-11.131 14.61-20.692-1.808-9.562-11.278-15.8-21.154-13.934-9.876 1.867-16.417 11.131-14.61 20.693z" fill="#fff"/></g><path stroke="#2A4B8D" stroke-width="2" stroke-linecap="round" d="M93.904 105.805h5.121M102.968 105.805h9.005M93.904 111.424h10.3M108.146 111.424h3.827M93.904 117.043h2.532M100.377 117.043h11.595"/><path opacity=".4" fill-rule="evenodd" clip-rule="evenodd" d="M159.305 107.717a2.5 2.5 0 0 1 2.5 2.5v54.924c4.884-8.899 13.816-10.462 18.734-9.831 0 16.295-11.051 20.604-18.734 20.86v51.371a2.5 2.5 0 0 1-5 0v-65.973c-7.661.215-20.083-3.588-20.083-20.864 5.415-.695 15.696 1.27 20.083 12.76v-43.247a2.5 2.5 0 0 1 2.5-2.5z" fill="#00AF89"/><circle cx="159.544" cy="47.513" r="20.244" fill="#36C"/><circle cx="132.319" cy="68.455" r="20.244" fill="#36C"/><circle cx="186.768" cy="68.455" r="20.244" fill="#36C"/><circle cx="142.091" cy="99.869" r="20.244" fill="#36C"/><circle cx="176.298" cy="99.869" r="20.244" fill="#36C"/><g filter="url(#d)"><path d="M182.354 86.979c-7.053 12.216-19.517 19.315-39.664 17.404l4.509-7.955c-12.302-7.102-16.508-22.848-9.394-35.17 7.114-12.32 22.853-16.552 35.155-9.449s16.508 22.849 9.394 35.17z" fill="#fff"/></g><path stroke="#2A4B8D" stroke-width="2" stroke-linecap="round" d="M146.85 64.726h8.042M159.63 64.726h13.519M146.85 71.116h15.344M166.933 71.116h6.216M146.85 77.506h4.39M155.979 77.506h17.17M146.85 82.983h10.33M161.456 82.983h3.477M168.759 82.983h4.39"/></g><g opacity=".6"><path d="M51.613 24.208C46.963 27.796 38 37.435 45.956 39.765c7.956 2.33 10.253-8.84 5.657-15.557zM49.754 22.349c-3.588 4.65-13.227 13.613-15.557 5.657-2.33-7.956 8.839-10.253 15.557-5.657z" fill="#C8CCD1"/><ellipse cx="44.542" cy="29.159" rx="10" ry="6.5" transform="rotate(135 44.542 29.159)" fill="#FC3"/><path fill-rule="evenodd" clip-rule="evenodd" d="M47.632 35.077a15.323 15.323 0 0 0 2.828-2.828l-9.008-9.009a15.3 15.3 0 0 0-2.829 2.828l9.009 9.009zm-11.01-5.353c-.88 2.556-.655 5.002.849 6.506 1.503 1.503 3.95 1.727 6.505.848l-7.354-7.354zm14.99-7.637c1.505 1.504 1.729 3.95.85 6.506l-7.355-7.355c2.556-.878 5.002-.654 6.506.85z" fill="#000"/></g><g opacity=".6"><path d="M273.209 192.349c3.587 4.65 13.227 13.613 15.557 5.657 2.33-7.956-8.84-10.253-15.557-5.657zM271.349 194.208c4.65 3.587 13.614 13.227 5.658 15.557-7.957 2.33-10.254-8.839-5.658-15.557z" fill="#C8CCD1"/><ellipse cx="278.159" cy="199.42" rx="10" ry="6.5" transform="rotate(45 278.159 199.42)" fill="#FC3"/><path fill-rule="evenodd" clip-rule="evenodd" d="M284.077 196.33a15.242 15.242 0 0 0-1.322-1.506 15.242 15.242 0 0 0-1.506-1.322l-9.009 9.008c.397.517.838 1.022 1.323 1.506.484.485.989.926 1.506 1.323l9.008-9.009zm-5.353 11.01c2.556.879 5.002.655 6.506-.849 1.504-1.503 1.728-3.949.849-6.505l-7.355 7.354zm-7.636-14.991c1.504-1.504 3.95-1.728 6.506-.849l-7.355 7.355c-.879-2.556-.655-5.002.849-6.506z" fill="#000"/></g><defs><filter id="b" x="185.839" y="102.823" width="48.39" height="50.301" filterUnits="userSpaceOnUse" color-interpolation-filters="sRGB"><feFlood flood-opacity="0" result="BackgroundImageFix"/><feColorMatrix in="SourceAlpha" values="0 0 0 0 0 0 0 0 0 0 0 0 0 0 0 0 0 0 127 0"/><feOffset dy="1"/><feGaussianBlur stdDeviation="1.5"/><feColorMatrix values="0 0 0 0 0 0 0 0 0 0 0 0 0 0 0 0 0 0 0.4 0"/><feBlend in2="BackgroundImageFix" result="effect1_dropShadow"/><feBlend in="SourceGraphic" in2="effect1_dropShadow" result="shape"/></filter><filter id="c" x="79.675" y="90.806" width="47.469" height="51.53" filterUnits="userSpaceOnUse" color-interpolation-filters="sRGB"><feFlood flood-opacity="0" result="BackgroundImageFix"/><feColorMatrix in="SourceAlpha" values="0 0 0 0 0 0 0 0 0 0 0 0 0 0 0 0 0 0 127 0"/><feOffset dy="2"/><feGaussianBlur stdDeviation="1"/><feColorMatrix values="0 0 0 0 0 0 0 0 0 0 0 0 0 0 0 0 0 0 0.4 0"/><feBlend in2="BackgroundImageFix" result="effect1_dropShadow"/><feBlend in="SourceGraphic" in2="effect1_dropShadow" result="shape"/></filter><filter id="d" x="118.353" y="38.949" width="78.882" height="82.258" filterUnits="userSpaceOnUse" color-interpolation-filters="sRGB"><feFlood flood-opacity="0" result="BackgroundImageFix"/><feColorMatrix in="SourceAlpha" values="0 0 0 0 0 0 0 0 0 0 0 0 0 0 0 0 0 0 127 0"/><feOffset dy="2"/><feGaussianBlur stdDeviation="1"/><feColorMatrix values="0 0 0 0 0 0 0 0 0 0 0 0 0 0 0 0 0 0 0.4 0"/><feBlend in2="BackgroundImageFix" result="effect1_dropShadow"/><feBlend in="SourceGraphic" in2="effect1_dropShadow" result="shape"/></filter></defs></svg>