<?xml version="1.0" encoding="UTF-8"?>
<svg xmlns="http://www.w3.org/2000/svg" width="24" height="24" viewBox="0 0 24 24">
	<path fill="#d33" fill-rule="evenodd" d="M11.643 22.364c1.234 0 2.235-.956 2.235-2.136h-4.47c0 1.18 1 2.136 2.234 2.136zm7.25-12.284v3.998l1.77 3.603v1.1H2.623v-1.1l1.77-3.602V10.08c0-2.894 1.822-5.41 4.475-6.47.26-1.283 1.415-2.227 2.773-2.227s2.51.944 2.776 2.227c2.653 1.06 4.477 3.576 4.477 6.47zM12.92 4.974h-2.554c-2.438.553-4.255 2.64-4.255 5.14v4.474l-1.7 2.44h14.47l-1.702-2.44v-4.474c.024-4.076-3.616-5.09-4.255-5.14z"/>
</svg>
