<svg xmlns="http://www.w3.org/2000/svg" width="200" height="200" fill="none" viewBox="0 0 200 200">
	<path fill="#fff" d="M0 0h200v200H0z"/>
	<g filter="url(#filter0_d)">
		<mask id="mask0" width="150" height="150" x="25" y="25" maskUnits="userSpaceOnUse" style="mask-type:alpha">
			<circle cx="100" cy="100" r="75" fill="#EAF3FF"/>
		</mask>
		<g mask="url(#mask0)">
			<g filter="url(#filter1_d)">
				<circle cx="100" cy="100" r="75" fill="#EAF3FF"/>
			</g>
			<g filter="url(#filter2_d)">
				<rect width="114" height="126" x="23" y="65" fill="#fff" rx="2"/>
			</g>
			<path fill="#36C" fill-rule="evenodd" d="M110.35 86.1h-49.7c-3.92 0-7.1 2.78-7.1 6.2v43.4c0 3.42 3.18 6.2 7.1 6.2h49.7c3.92 0 7.1-2.78 7.1-6.2V92.3c0-3.42-3.18-6.2-7.1-6.2m0 37.2h-14.2l-3.55 6.2H78.4l-3.55-6.2h-14.2v-31h49.7z" clip-rule="evenodd"/>
			<path fill="#FC3" d="M113.78 46c1.72 0 3.12 1.4 3.12 3.13v18.76a3.13 3.13 0 0 1-6.25 0V49.13c0-1.73 1.4-3.13 3.13-3.13m27.66 11.44a3.16 3.16 0 0 1 2.2 5.38l-11.05 11.04a3.16 3.16 0 0 1-4.45 0 3.16 3.16 0 0 1 0-4.45l11.05-11.05a3.2 3.2 0 0 1 2.25-.92m-55.32 0c.8 0 1.63.31 2.24.92l11.05 11.05a3.16 3.16 0 0 1 0 4.45 3.16 3.16 0 0 1-4.45 0L83.92 62.8a3.16 3.16 0 0 1 2.2-5.37m66.75 27.66a3.13 3.13 0 1 1 0 6.25h-18.76a3.13 3.13 0 0 1 0-6.25zm-22.53 16.56c.8 0 1.64.32 2.25.93l11.05 11.05a3.16 3.16 0 0 1 0 4.44 3.16 3.16 0 0 1-4.45 0l-11.05-11.04a3.16 3.16 0 0 1 2.2-5.38"/>
		</g>
	</g>
	<defs>
		<filter id="filter0_d" width="158" height="158" x="21" y="21" color-interpolation-filters="sRGB" filterUnits="userSpaceOnUse">
			<feFlood flood-opacity="0" result="BackgroundImageFix"/>
			<feColorMatrix in="SourceAlpha" result="hardAlpha" values="0 0 0 0 0 0 0 0 0 0 0 0 0 0 0 0 0 0 127 0"/>
			<feOffset/>
			<feGaussianBlur stdDeviation="2"/>
			<feComposite in2="hardAlpha" operator="out"/>
			<feColorMatrix values="0 0 0 0 0 0 0 0 0 0 0 0 0 0 0 0 0 0 0.1 0"/>
			<feBlend in2="BackgroundImageFix" result="effect1_dropShadow"/>
			<feBlend in="SourceGraphic" in2="effect1_dropShadow" result="shape"/>
		</filter>
		<filter id="filter1_d" width="158" height="158" x="21" y="25" color-interpolation-filters="sRGB" filterUnits="userSpaceOnUse">
			<feFlood flood-opacity="0" result="BackgroundImageFix"/>
			<feColorMatrix in="SourceAlpha" result="hardAlpha" values="0 0 0 0 0 0 0 0 0 0 0 0 0 0 0 0 0 0 127 0"/>
			<feOffset dy="4"/>
			<feGaussianBlur stdDeviation="2"/>
			<feComposite in2="hardAlpha" operator="out"/>
			<feColorMatrix values="0 0 0 0 0 0 0 0 0 0 0 0 0 0 0 0 0 0 0.25 0"/>
			<feBlend in2="BackgroundImageFix" result="effect1_dropShadow"/>
			<feBlend in="SourceGraphic" in2="effect1_dropShadow" result="shape"/>
		</filter>
		<filter id="filter2_d" width="124" height="136" x="18" y="60" color-interpolation-filters="sRGB" filterUnits="userSpaceOnUse">
			<feFlood flood-opacity="0" result="BackgroundImageFix"/>
			<feColorMatrix in="SourceAlpha" result="hardAlpha" values="0 0 0 0 0 0 0 0 0 0 0 0 0 0 0 0 0 0 127 0"/>
			<feOffset/>
			<feGaussianBlur stdDeviation="2.5"/>
			<feComposite in2="hardAlpha" operator="out"/>
			<feColorMatrix values="0 0 0 0 0 0 0 0 0 0 0 0 0 0 0 0 0 0 0.25 0"/>
			<feBlend in2="BackgroundImageFix" result="effect1_dropShadow"/>
			<feBlend in="SourceGraphic" in2="effect1_dropShadow" result="shape"/>
		</filter>
	</defs>
</svg>
