<svg xmlns="http://www.w3.org/2000/svg" xmlns:xlink="http://www.w3.org/1999/xlink" width="332" height="221" fill="none"><path stroke="#fff" stroke-linecap="round" stroke-width="2" d="M299.73 81.501h4.224m3.699 0h7.619m-15.542 4.911h8.751m3.698 0h3.093m-15.542 4.911h1.961m3.698 0h9.882"/><g id="g"><path fill="#00AF89" d="M58.112 201.33c-4.395 7.611-12.16 12.034-24.712 10.843l2.809-4.956c-7.665-4.425-10.285-14.235-5.853-21.912s14.238-10.312 21.903-5.887 10.285 14.236 5.853 21.912" opacity=".2"/><path stroke="#fff" stroke-linecap="round" stroke-width="2" d="M36.732 188.5h4.224m3.699 0h7.619m-15.542 4.912h8.751m3.698 0h3.093m-15.542 4.911h1.961m3.698 0h9.882"/></g><path id="e" stroke="#c8ccd1" stroke-linecap="round" stroke-width="3" d="M6.78 121v10.784m-5.301-5.565h10.784"/><circle cx="162.15" cy="108.63" r="110" fill="#f8f9fa"/><mask id="a" width="220" height="220" x="50" y="0" mask-type="alpha" maskUnits="userSpaceOnUse"><circle cx="160" cy="110" r="110" fill="#F8F9FA"/></mask><g mask="url(#a)"><path fill="#00AF89" fill-rule="evenodd" d="M200.166 124.51a2.5 2.5 0 1 0-2.544 4.304c9.513 5.624 13.606 12.753 14.497 20.482.912 7.901-1.488 16.748-5.674 25.668-6.954 14.821-18.383 28.973-25.747 38.09v.001a366 366 0 0 0-3.959 4.955 2.501 2.501 0 0 0 3.541 3.483l39.507-31.736c8.84.283 22.458-3.821 23.122-22.677-6.833-1.103-20.596 1.192-25.062 17.823l-23.515 18.888c5.874-7.847 12.156-17.146 16.64-26.703 4.356-9.285 7.18-19.13 6.114-28.365-1.085-9.406-6.17-17.858-16.92-24.213" clip-rule="evenodd" opacity=".4"/><g fill="#7EA2EC"><path d="M200.52 81.656c-6.198 8.286-12.727 29.094 10.748 46.033 6.925-9.364 14.472-31.68-10.748-46.033"/><path d="M165.54 122.08c6.064 8.386 23.981 20.817 47.144 3.455-6.875-9.4-25.929-23.253-47.144-3.455"/><path d="M192.8 164.72c10.052-2.457 28.319-14.37 20.965-42.367-11.299 2.826-31.31 15.256-20.965 42.367"/><path d="M243.29 153.22c.051-10.349-7.084-30.956-36.029-30.602.006 11.647 7.22 34.073 36.029 30.602"/><path d="M249.62 102.17c-9.809-3.298-31.615-2.997-40.369 24.595 11.06 3.653 34.616 3.847 40.369-24.595"/></g><g filter="url(#b)"><path fill="#fff" d="M223.94 132.01c-3.993 6.915-11.049 10.934-22.453 9.852l2.552-4.503c-6.964-4.021-9.345-12.935-5.318-19.91s12.937-9.369 19.901-5.349c6.964 4.021 9.345 12.935 5.318 19.91"/></g><path stroke="#2A4B8D" stroke-linecap="round" stroke-width="2" d="M203.73 120.5h4.224m3.699 0h7.619m-15.542 4.912h8.751m3.698 0h3.093m-15.542 4.911h1.961m3.698 0h9.882"/><path fill="#00AF89" fill-rule="evenodd" d="M143.687 231.614a2.5 2.5 0 0 1-3.516.371c-19.861-16.064-29.864-34.167-34.582-54.014C97.602 178.38 84 174.617 84 156.13c5.062-.648 14.174.913 19.361 9.761-1.132-8.319-1.545-16.914-1.545-25.766a2.5 2.5 0 1 1 5 0c0 11.318.685 22.082 2.686 32.302 3.604-9.299 12.049-10.889 16.498-10.327 0 12.931-8.721 16.54-15.011 16.874 4.721 18.138 14.234 34.49 32.327 49.124a2.5 2.5 0 0 1 .371 3.516" clip-rule="evenodd" opacity=".4"/><g fill="#FC3"><circle cx="102.77" cy="99.519" r="27.403"/><circle cx="113.88" cy="118.78" r="27.403"/><circle cx="90.183" cy="118.78" r="27.403"/></g><g stroke="#F8F9FA" stroke-linecap="round" stroke-width="2"><path d="M86.85 121.74c4.074 3.333 10.467 5.184 15.924 5.184 15.134 0 27.403-12.268 27.403-27.403s-12.269-27.403-27.403-27.403c-13.622 0-24.922 9.939-27.045 22.96"/><path d="M130.55 97.02c6.529 5.008 10.739 12.89 10.739 21.756 0 15.134-12.269 27.403-27.403 27.403-15.135 0-27.403-12.269-27.403-27.403 0-10.89 6.352-20.296 15.553-24.716"/><path d="M101.66 143.67a27.3 27.3 0 0 1-11.48 2.513c-15.134 0-27.403-12.269-27.403-27.403 0-15.135 12.269-27.403 27.403-27.403s27.403 12.268 27.403 27.403q0 1.693-.201 3.332"/></g><path fill="#fff" d="M86.48 122.11c0-18.663 10.368-26.292 15.553-27.773 13.923 6.517 16.17 21.725 15.553 28.514-2.963 1.852-9.999 4.073-16.294 4.073-5.036 0-11.973-3.209-14.813-4.814z"/><g filter="url(#c)"><path fill="#fff" d="M84.947 114.88c1.792 9.48 8.401 16.848 22.265 20.087l-1.111-6.154c9.876-1.866 16.417-11.131 14.61-20.692s-11.278-15.8-21.154-13.934-16.417 11.131-14.61 20.693"/></g><path stroke="#2a4b8d" stroke-linecap="round" stroke-width="2" d="M93.904 105.8h5.121m3.943 0h9.005m-18.069 5.619h10.3m3.942 0h3.827m-18.069 5.619h2.532m3.941 0h11.595"/><path fill="#00AF89" fill-rule="evenodd" d="M159.3 107.72a2.5 2.5 0 0 1 2.5 2.5v54.924c4.884-8.899 13.816-10.462 18.734-9.831 0 16.295-11.051 20.604-18.734 20.86v51.371a2.5 2.5 0 0 1-5 0v-65.973c-7.661.215-20.083-3.588-20.083-20.864 5.415-.695 15.696 1.27 20.083 12.76V110.22a2.5 2.5 0 0 1 2.5-2.5" clip-rule="evenodd" opacity=".4"/><g fill="#36C"><circle cx="159.54" cy="47.513" r="20.244"/><circle cx="132.32" cy="68.455" r="20.244"/><circle cx="186.77" cy="68.455" r="20.244"/><circle cx="142.09" cy="99.869" r="20.244"/><circle cx="176.3" cy="99.869" r="20.244"/></g><g filter="url(#d)"><path fill="#fff" d="M182.35 86.979c-7.053 12.216-19.517 19.315-39.664 17.404l4.509-7.955c-12.302-7.102-16.508-22.848-9.394-35.17 7.114-12.32 22.853-16.552 35.155-9.449s16.508 22.849 9.394 35.17"/></g><path stroke="#2A4B8D" stroke-linecap="round" stroke-width="2" d="M146.85 64.726h8.042m4.738 0h13.519m-26.299 6.39h15.344m4.739 0h6.216m-26.299 6.39h4.39m4.739 0h17.17m-26.299 5.477h10.33m4.276 0h3.477m3.826 0h4.39"/></g><g id="f" opacity=".6"><path fill="#C8CCD1" d="M51.613 24.208C46.963 27.796 38 37.435 45.956 39.765s10.253-8.84 5.657-15.557m-1.859-1.859c-3.588 4.65-13.227 13.613-15.557 5.657s8.839-10.253 15.557-5.657"/><ellipse cx="44.542" cy="29.159" fill="#FC3" rx="10" ry="6.5" transform="rotate(135 44.542 29.159)"/><path fill="#000" fill-rule="evenodd" d="M47.632 35.077a15.3 15.3 0 0 0 2.828-2.828l-9.008-9.009a15.3 15.3 0 0 0-2.829 2.828zm-11.01-5.353c-.88 2.556-.655 5.002.849 6.506 1.503 1.503 3.95 1.727 6.505.848zm14.99-7.637c1.505 1.504 1.729 3.95.85 6.506l-7.355-7.355c2.556-.878 5.002-.654 6.506.85z" clip-rule="evenodd"/></g><defs><filter id="b" width="48.39" height="50.301" x="185.84" y="102.82" color-interpolation-filters="sRGB" filterUnits="userSpaceOnUse"><feFlood flood-opacity="0" result="BackgroundImageFix"/><feColorMatrix in="SourceAlpha" values="0 0 0 0 0 0 0 0 0 0 0 0 0 0 0 0 0 0 127 0"/><feOffset dy="1"/><feGaussianBlur stdDeviation="1.5"/><feColorMatrix values="0 0 0 0 0 0 0 0 0 0 0 0 0 0 0 0 0 0 0.4 0"/><feBlend in2="BackgroundImageFix" result="effect1_dropShadow"/><feBlend in="SourceGraphic" in2="effect1_dropShadow" result="shape"/></filter><filter id="c" width="47.469" height="51.53" x="79.675" y="90.806" color-interpolation-filters="sRGB" filterUnits="userSpaceOnUse"><feFlood flood-opacity="0" result="BackgroundImageFix"/><feColorMatrix in="SourceAlpha" values="0 0 0 0 0 0 0 0 0 0 0 0 0 0 0 0 0 0 127 0"/><feOffset dy="2"/><feGaussianBlur stdDeviation="1"/><feColorMatrix values="0 0 0 0 0 0 0 0 0 0 0 0 0 0 0 0 0 0 0.4 0"/><feBlend in2="BackgroundImageFix" result="effect1_dropShadow"/><feBlend in="SourceGraphic" in2="effect1_dropShadow" result="shape"/></filter><filter id="d" width="78.882" height="82.258" x="118.35" y="38.949" color-interpolation-filters="sRGB" filterUnits="userSpaceOnUse"><feFlood flood-opacity="0" result="BackgroundImageFix"/><feColorMatrix in="SourceAlpha" values="0 0 0 0 0 0 0 0 0 0 0 0 0 0 0 0 0 0 127 0"/><feOffset dy="2"/><feGaussianBlur stdDeviation="1"/><feColorMatrix values="0 0 0 0 0 0 0 0 0 0 0 0 0 0 0 0 0 0 0.4 0"/><feBlend in2="BackgroundImageFix" result="effect1_dropShadow"/><feBlend in="SourceGraphic" in2="effect1_dropShadow" result="shape"/></filter></defs><use xlink:href="#e" transform="translate(261.91 -106.68)"/><use xlink:href="#e" transform="translate(298.32 30.733)"/><use xlink:href="#f" transform="matrix(-1 0 0 1 322.74 170.3)"/><use xlink:href="#g" transform="matrix(-1 0 0 1 351.55 -107.07)"/></svg>