<svg xmlns="http://www.w3.org/2000/svg" width="794" height="488" fill="none" viewBox="0 0 794 488">
	<g clip-path="url(#clip0_4_65)">
		<mask id="mask0_4_65" width="794" height="488" x="0" y="0" maskUnits="userSpaceOnUse" style="mask-type:luminance">
			<path fill="#fff" d="M794 0v457.877L757.91 488l-36.092-30.123L685.728 488l-36.092-30.123L613.546 488l-36.091-30.123L541.364 488l-36.091-30.123L469.182 488l-36.091-30.123L397 488l-36.09-30.123L324.817 488l-36.09-30.123L252.635 488l-36.09-30.123L180.454 488l-36.091-30.123L108.273 488l-36.091-30.123L36.09 488 0 457.877V0z"/>
		</mask>
		<g mask="url(#mask0_4_65)">
			<path fill="#fff" d="M794 0H0v488h794"/>
			<path fill="#EAECF0" d="M760.917 66.272c0-24.1-18.046-42.173-42.106-42.173s-42.106 18.074-42.106 42.173c0 24.098 18.045 42.172 42.106 42.172 24.06 0 42.106-18.074 42.106-42.172m-81.205 69.284v-15.062h75.19v15.062zm0 355.456V174.716h75.19v319.309h-75.19M93.235 15.062H15.038v18.074h78.197zm72.182 0H99.25v18.074h66.167zm72.181 0h-66.166v18.074h66.166zm69.175 0h-39.099v18.074h39.099zm-45.114 0h-18.045v18.074h18.045zm69.174 0h-18.045v18.074h18.045zM18.045 48.197v12.05h276.697v-12.05zm-3.007-3.012H297.75V63.26H15.038z"/>
			<path fill="#EAECF0" d="M288.727 51.21h-6.015v6.025h6.015z"/>
			<path fill="#EAECF0" d="M794 0v488H0V0zm-3.008 3.012H3.008V456.47l33.083 27.611 36.091-30.123 36.091 30.123 36.091-30.123 36.091 30.123 36.09-30.123 36.091 30.123 36.091-30.123 36.091 30.123 36.091-30.123L397 484.081l36.091-30.123 36.091 30.123 36.091-30.123 36.091 30.123 36.091-30.123 36.09 30.123 36.091-30.123 36.091 30.123 36.091-30.123 36.091 30.123 33.083-27.614z"/>
			<path fill="#EAECF0" stroke="#EAECF0" stroke-linecap="round" stroke-width="1.214" d="M586.851 145.31h-65.455V157h65.455zM295.207 145h-65.452v11.69h65.452z"/>
			<path fill="#C8CCD1" stroke="#C8CCD1" stroke-linecap="round" stroke-width="2.158" d="M645.561 87.358h-126.52v20.785h126.52z"/>
			<path fill="#F9F9F9" stroke="#E6E6E6" stroke-width="3" d="M176.911 176.5h462.783c3.759 0 6.806 3.806 6.806 8.5v14.582c0 4.694-3.047 8.5-6.806 8.5H176.911c-3.759 0-6.806-3.806-6.806-8.5V185c0-4.694 3.047-8.5 6.806-8.5Zm0 219h462.783c3.759 0 6.806 3.806 6.806 8.5v14.582c0 4.694-3.047 8.5-6.806 8.5H176.911c-3.759 0-6.806-3.806-6.806-8.5V404c0-4.694 3.047-8.5 6.806-8.5Z"/>
			<path fill="#E6E6E6" d="M645 179h-3v27h3zm0 219h-3v27h3z"/>
			<path fill="#C4C4C4" d="M638.254 199.874h-15.602v-5.75h15.602zm-177.728-10.538h-15.602v-5.75h15.602zm-18.993 0h-24.42v-5.75h24.42zm-131.602 0h-70.412v-5.75h70.412zm103.79 0H313.325v-5.75h100.396zm-31.209 10.538h-16.959v-5.75h16.959zm-20.35 0h-16.959v-5.75h16.959zm-20.351 0H330.28v-5.75h11.531zm-14.925 0H305.18v-5.75h21.706zm-25.095 0h-18.993v-5.75h18.993zm153.982 0h-69.869v-5.75h69.869zm-219.548-10.538h-16.959v-5.75h16.959zm-20.35 0h-16.959v-5.75h16.959zm-20.35 0h-11.532v-5.75h11.532zm369.468 0h-16.959v-5.75h16.959zm-20.35 0h-16.959v-5.75h16.959zm-20.351 0H512.76v-5.75h11.532zm-14.925 0H487.66v-5.75h21.707zm-25.095 0h-18.993v-5.75h18.993zm134.989 10.538h-24.42v-5.75h24.42zm-131.602 0h-27.134v-5.75h27.134zm103.789 0H491.053v-5.75h100.395zm46.806-10.538h-69.869v-5.75h69.869zm0 229.538h-15.602v-5.75h15.602zm-177.728-10.538h-15.602v-5.75h15.602zm-18.993 0h-24.42v-5.75h24.42zm-131.602 0h-70.412v-5.75h70.412zm103.79 0H313.325v-5.75h100.396zm-31.209 10.538h-16.959v-5.75h16.959zm-20.35 0h-16.959v-5.75h16.959zm-20.351 0H330.28v-5.75h11.531zm-14.925 0H305.18v-5.75h21.706zm-25.095 0h-18.993v-5.75h18.993zm153.982 0h-69.869v-5.75h69.869zm-219.548-10.538h-16.959v-5.75h16.959zm-20.35 0h-16.959v-5.75h16.959zm-20.35 0h-11.532v-5.75h11.532zm369.468 0h-16.959v-5.75h16.959zm-20.35 0h-16.959v-5.75h16.959zm-20.351 0H512.76v-5.75h11.532zm-14.925 0H487.66v-5.75h21.707zm-25.095 0h-18.993v-5.75h18.993zm134.989 10.538h-24.42v-5.75h24.42zm-131.602 0h-27.134v-5.75h27.134zm103.789 0H491.053v-5.75h100.395zm46.806-10.538h-69.869v-5.75h69.869zm-78.178-71.846h-12.432v-6h12.432zm-43.512 0H340.982v-6h175.582zm0-26h-173.51v-6h173.51zm-11.741 13h-173.51v-6h173.51zm133.295 13h-43.511v-6h43.511zm0-26h-43.511v-6h43.511zm-105.669 13h-24.172v-6h24.172zm58.705 13h-27.626v-6h27.626zm-46.964 0h-24.172v-6h24.172zm93.928-13H535.902v-6h102.216zm-46.964-13h-71.136v-6h71.136zm46.965-13h-15.886v-6h15.886zm-78.044-39h-12.432v-6h12.432zm78.044-26h-15.886v-6h15.886zm-74.591 52h-17.266v-6h17.266zm-20.72 0h-17.267v-6h17.267zm-20.718 0h-11.741v-6h11.741zm-15.195 0H354.794v-6h152.101zm56.633-13H447.945v-6h115.583zm-46.965-13H340.981v-6h175.582zm93.929 13h-43.511v-6h43.511zm-93.929-39h-173.51v-6h173.51zm-11.74 13H331.312v-6h173.511zm133.296 13h-43.511v-6h43.511zm0 13h-24.173v-6h24.173zm-19.34-39h-24.172v-6h24.172zm-86.33 13h-24.172v-6h24.172zm58.705 13h-27.626v-6h27.626zm-46.964 0h-24.172v-6h24.172zm-192.849 26h-19.339v-6h19.339zm267.438 13h-24.863v-6h24.863zm-263.985 0h-27.626v-6h27.626zm235.67 0H358.248v-6h232.216zm47.655-52H535.903v-6h102.216zm0 39h-71.137v-6h71.137zm-46.965-52h-71.136v-6h71.136zm46.964 143h-15.885v-6h15.885zm-74.591-13h-17.266v-6h17.266zm-20.719 0h-17.267v-6h17.267zm-20.718 0h-11.741v-6h11.741zm-15.196 0H354.793v-6h152.101zm-155.553 0h-19.339v-6h19.339zm267.438 13h-24.863v-6h24.863zm-263.986 0h-27.626v-6h27.626zm235.671 0H358.248v-6h232.216zm47.654-13h-71.137v-6h71.137z"/>
		</g>
		<rect width="127.794" height="164.662" x="-1.5" y="1.5" fill="#F9F9F9" stroke="#E6E6E6" stroke-width="3" rx="10.5" transform="matrix(-1 0 0 1 297.899 218.153)"/>
		<rect width="127.794" height="177.836" x="-1.5" y="1.5" fill="#F9F9F9" stroke="#36C" stroke-width="3" rx="10.5" transform="matrix(-1 0 0 1 148.741 174.777)"/>
		<path fill="#EAECF0" d="M284.065 231.024h-95.293v53.142h95.293z"/>
		<path fill="#C4C4C4" d="M284.065 303.217h-95.293v6h95.293zm0 12.074h-48.669v6h48.669zm0 12.074h-90.034v6h90.034zM141.827 185.127H51.793v6h90.034zm-13.981 18.377H88.078v6h39.768zm0 15.058H88.078v6h39.768zm0 51.728H88.078v6h39.768zm0 52.515H88.078v6h39.768zm0-88.866H88.078v6h39.768zm0 51.728H88.078v6h39.768zm0 52.514H88.078v6h39.768zm13.981-81.366H64.094v6h77.733zm0 52.328H36.268v6h105.559zm142.238 30.296h-33.732v6h33.732zm0 12.074h-48.669v6h48.669zm0 12.074h-33.732v6h33.732zm-39.809 0h-33.732v6h33.732z"/>
		<circle cx="4.5" cy="4.5" r="4.5" fill="#D9D9D9" transform="matrix(-1 0 0 1 140.681 202.004)"/>
		<circle cx="4.5" cy="4.5" r="4.5" fill="#D9D9D9" transform="matrix(-1 0 0 1 140.681 217.062)"/>
		<circle cx="4.5" cy="4.5" r="4.5" fill="#D9D9D9" transform="matrix(-1 0 0 1 140.681 268.79)"/>
		<circle cx="4.5" cy="4.5" r="4.5" fill="#D9D9D9" transform="matrix(-1 0 0 1 140.681 321.305)"/>
		<circle cx="4.5" cy="4.5" r="4.5" fill="#D9D9D9" transform="matrix(-1 0 0 1 140.681 232.439)"/>
		<circle cx="4.5" cy="4.5" r="4.5" fill="#D9D9D9" transform="matrix(-1 0 0 1 140.681 284.167)"/>
		<circle cx="4.5" cy="4.5" r="4.5" fill="#D9D9D9" transform="matrix(-1 0 0 1 140.681 336.681)"/>
		<circle cx="3" cy="3" r="3" fill="#C4C4C4" transform="matrix(-1 0 0 1 139.181 203.504)"/>
		<circle cx="3" cy="3" r="3" fill="#C4C4C4" transform="matrix(-1 0 0 1 139.181 270.29)"/>
		<circle cx="3" cy="3" r="3" fill="#C4C4C4" transform="matrix(-1 0 0 1 139.181 322.805)"/>
	</g>
	<defs>
		<clipPath id="clip0_4_65">
			<path fill="#fff" d="M794 0H0v488h794z"/>
		</clipPath>
	</defs>
</svg>
