<svg xmlns="http://www.w3.org/2000/svg" width="794" height="488" fill="none" viewBox="0 0 794 488">
	<g clip-path="url(#clip0_1_2)">
		<mask id="mask0_1_2" width="794" height="488" x="0" y="0" maskUnits="userSpaceOnUse" style="mask-type:luminance">
			<path fill="#fff" d="M0 0v457.877L36.09 488l36.092-30.123L108.272 488l36.092-30.123L180.454 488l36.091-30.123L252.636 488l36.091-30.123L324.818 488l36.091-30.123L397 488l36.09-30.123L469.183 488l36.09-30.123L541.365 488l36.09-30.123L613.546 488l36.091-30.123L685.727 488l36.091-30.123L757.91 488 794 457.877V0z"/>
		</mask>
		<g mask="url(#mask0_1_2)">
			<path fill="#fff" d="M0 0h794v488H0"/>
			<path fill="#EAECF0" d="M33.083 66.272c0-24.1 18.046-42.173 42.106-42.173s42.106 18.074 42.106 42.173c0 24.098-18.045 42.172-42.106 42.172-24.06 0-42.106-18.074-42.106-42.172m81.205 69.284v-15.062h-75.19v15.062zm0 355.456V174.716h-75.19v319.309h75.19M700.765 15.062h78.197v18.074h-78.197zm-72.182 0h66.167v18.074h-66.167zm-72.181 0h66.166v18.074h-66.166zm-69.175 0h39.099v18.074h-39.099zm45.114 0h18.045v18.074h-18.045zm-69.174 0h18.045v18.074h-18.045zm312.788 33.135v12.05H499.258v-12.05zm3.007-3.012H496.25V63.26h282.712z"/>
			<path fill="#EAECF0" d="M505.273 51.21h6.015v6.025h-6.015z"/>
			<path fill="#EAECF0" d="M0 0v488h794V0zm3.008 3.012h787.984V456.47l-33.083 27.611-36.091-30.123-36.091 30.123-36.091-30.123-36.091 30.123-36.09-30.123-36.091 30.123-36.091-30.123-36.091 30.123-36.091-30.123L397 484.081l-36.091-30.123-36.091 30.123-36.091-30.123-36.091 30.123-36.091-30.123-36.09 30.123-36.091-30.123-36.091 30.123-36.091-30.123-36.091 30.123-33.083-27.614z"/>
			<path fill="#EAECF0" stroke="#EAECF0" stroke-linecap="round" stroke-width="1.214" d="M207.149 145.31h65.455V157h-65.455zm291.644-.31h65.452v11.69h-65.452z"/>
			<path fill="#C8CCD1" stroke="#C8CCD1" stroke-linecap="round" stroke-width="2.158" d="M148.439 87.358h126.52v20.785h-126.52z"/>
			<path fill="#F9F9F9" stroke="#E6E6E6" stroke-width="3" d="M617.089 176.5H154.306c-3.759 0-6.806 3.806-6.806 8.5v14.582c0 4.694 3.047 8.5 6.806 8.5h462.783c3.759 0 6.806-3.806 6.806-8.5V185c0-4.694-3.047-8.5-6.806-8.5Zm0 219H154.306c-3.759 0-6.806 3.806-6.806 8.5v14.582c0 4.694 3.047 8.5 6.806 8.5h462.783c3.759 0 6.806-3.806 6.806-8.5V404c0-4.694-3.047-8.5-6.806-8.5Z"/>
			<path fill="#E6E6E6" d="M149 179h3v27h-3zm0 219h3v27h-3z"/>
			<path fill="#C4C4C4" d="M155.746 199.874h15.602v-5.75h-15.602zm177.728-10.538h15.602v-5.75h-15.602zm18.993 0h24.42v-5.75h-24.42zm131.601 0h70.413v-5.75h-70.413zm-103.789 0h100.395v-5.75H380.279zm31.209 10.538h16.959v-5.75h-16.959zm20.35 0h16.959v-5.75h-16.959zm20.35 0h11.532v-5.75h-11.532zm14.926 0h21.706v-5.75h-21.706zm25.095 0h18.993v-5.75h-18.993zm-153.982 0h69.869v-5.75h-69.869zm219.548-10.538h16.959v-5.75h-16.959zm20.35 0h16.959v-5.75h-16.959zm20.35 0h11.532v-5.75h-11.532zm-369.468 0h16.959v-5.75h-16.959zm20.35 0h16.959v-5.75h-16.959zm20.351 0h11.532v-5.75h-11.532zm14.925 0h21.707v-5.75h-21.707zm25.095 0h18.993v-5.75h-18.993zm-134.989 10.538h24.42v-5.75h-24.42zm131.602 0h27.134v-5.75h-27.134zm-103.789 0h100.395v-5.75H202.552zm-46.806-10.538h69.869v-5.75h-69.869zm0 229.538h15.602v-5.75h-15.602zm177.728-10.538h15.602v-5.75h-15.602zm18.993 0h24.42v-5.75h-24.42zm131.601 0h70.413v-5.75h-70.413zm-103.789 0h100.395v-5.75H380.279zm31.209 10.538h16.959v-5.75h-16.959zm20.35 0h16.959v-5.75h-16.959zm20.35 0h11.532v-5.75h-11.532zm14.926 0h21.706v-5.75h-21.706zm25.095 0h18.993v-5.75h-18.993zm-153.982 0h69.869v-5.75h-69.869zm219.548-10.538h16.959v-5.75h-16.959zm20.35 0h16.959v-5.75h-16.959zm20.35 0h11.532v-5.75h-11.532zm-369.468 0h16.959v-5.75h-16.959zm20.35 0h16.959v-5.75h-16.959zm20.351 0h11.532v-5.75h-11.532zm14.925 0h21.707v-5.75h-21.707zm25.095 0h18.993v-5.75h-18.993zm-134.989 10.538h24.42v-5.75h-24.42zm131.602 0h27.134v-5.75h-27.134zm-103.789 0h100.395v-5.75H202.552zm-46.806-10.538h69.869v-5.75h-69.869zm78.178-71.846h12.432v-6h-12.432zm43.512 0h175.582v-6H277.436zm0-26h173.51v-6h-173.51zm11.741 13h173.51v-6h-173.51zm-133.295 13h43.511v-6h-43.511zm0-26h43.511v-6h-43.511zm105.669 13h24.172v-6h-24.172zm-58.705 13h27.626v-6h-27.626zm46.964 0h24.172v-6H249.81zm-93.928-13h102.216v-6H155.882zm46.964-13h71.136v-6h-71.136zm-46.965-13h15.886v-6h-15.886zm78.044-39h12.432v-6h-12.432zm-78.044-26h15.886v-6h-15.886zm74.591 52h17.266v-6h-17.266zm20.72 0h17.267v-6h-17.267zm20.718 0h11.741v-6H271.91zm15.195 0h152.101v-6H287.105zm-56.633-13h115.583v-6H230.472zm46.964-13h175.583v-6H277.436zm-93.928 13h43.511v-6h-43.511zm93.928-39h173.511v-6H277.436zm11.741 13h173.511v-6H289.177zm-133.296 13h43.511v-6h-43.511zm0 13h24.173v-6h-24.173zm19.34-39h24.172v-6h-24.172zm86.33 13h24.172v-6h-24.172zm-58.705 13h27.626v-6h-27.626zm46.964 0h24.172v-6H249.81zm192.849 26h19.339v-6h-19.339zm-267.438 13h24.863v-6h-24.863zm263.985 0h27.626v-6h-27.626zm-235.67 0h232.216v-6H203.536zm-47.655-52h102.216v-6H155.881zm0 39h71.137v-6h-71.137zm46.965-52h71.136v-6h-71.136zm-46.964 143h15.885v-6h-15.885zm74.591-13h17.266v-6h-17.266zm20.719 0h17.267v-6h-17.267zm20.718 0h11.741v-6H271.91zm15.196 0h152.101v-6H287.106zm155.553 0h19.339v-6h-19.339zm-267.438 13h24.863v-6h-24.863zm263.986 0h27.626v-6h-27.626zm-235.671 0h232.216v-6H203.536zm-47.654-13h71.137v-6h-71.137z"/>
		</g>
		<rect width="127.794" height="164.662" x="494.601" y="219.653" fill="#F9F9F9" stroke="#E6E6E6" stroke-width="3" rx="10.5"/>
		<rect width="127.794" height="177.836" x="643.759" y="176.277" fill="#F9F9F9" stroke="#36C" stroke-width="3" rx="10.5"/>
		<path fill="#EAECF0" d="M509.935 231.024h95.293v53.142h-95.293z"/>
		<path fill="#C4C4C4" d="M509.935 303.217h95.293v6h-95.293zm0 12.074h48.669v6h-48.669zm0 12.074h90.034v6h-90.034zm142.238-142.238h90.034v6h-90.034zm13.981 18.377h39.768v6h-39.768zm0 15.058h39.768v6h-39.768zm0 51.728h39.768v6h-39.768zm0 52.515h39.768v6h-39.768zm0-88.866h39.768v6h-39.768zm0 51.728h39.768v6h-39.768zm0 52.514h39.768v6h-39.768zm-13.981-81.366h77.733v6h-77.733zm0 52.328h105.559v6H652.173zm-142.238 30.296h33.732v6h-33.732zm0 12.074h48.669v6h-48.669zm0 12.074h33.732v6h-33.732zm39.809 0h33.732v6h-33.732z"/>
		<circle cx="657.819" cy="206.504" r="4.5" fill="#D9D9D9"/>
		<circle cx="657.819" cy="221.562" r="4.5" fill="#D9D9D9"/>
		<circle cx="657.819" cy="273.29" r="4.5" fill="#D9D9D9"/>
		<circle cx="657.819" cy="325.805" r="4.5" fill="#D9D9D9"/>
		<circle cx="657.819" cy="236.939" r="4.5" fill="#D9D9D9"/>
		<circle cx="657.819" cy="288.667" r="4.5" fill="#D9D9D9"/>
		<circle cx="657.819" cy="341.181" r="4.5" fill="#D9D9D9"/>
		<circle cx="657.819" cy="206.504" r="3" fill="#C4C4C4"/>
		<circle cx="657.819" cy="273.29" r="3" fill="#C4C4C4"/>
		<circle cx="657.819" cy="325.805" r="3" fill="#C4C4C4"/>
	</g>
	<defs>
		<clipPath id="clip0_1_2">
			<path fill="#fff" d="M0 0h794v488H0z"/>
		</clipPath>
	</defs>
</svg>
