<?xml version="1.0" encoding="UTF-8"?>
<svg xmlns="http://www.w3.org/2000/svg" width="16.83" height="22.46" viewBox="0 0 16.83 22.46">
	<path fill="#36c" d="M13.39.56a5.96 5.96 0 0 1 2.88 7.92l-1.52 3.26a6.02 6.02 0 0 1-.8 1.27l-.13.15-.05.06a5.98 5.98 0 0 1-3.7 1.91h-.06a6.2 6.2 0 0 1-.82.04 5.94 5.94 0 0 1-4.3-2l.51-1.08a2.35 2.35 0 0 1 1.16-1.15l.03.04a3.14 3.14 0 0 0 1.37 1.24 3.14 3.14 0 0 0 1.87.24s.15 0 .38-.08c.11-.04.23-.08.37-.15a3.14 3.14 0 0 0 1.56-1.54l.32-.68.2-.41.2-.43.95-2.05a3.15 3.15 0 0 0-5.72-2.66l-.84 1.8-.12.26a6.78 6.78 0 0 0-3.55 1.23l.05-.19a6 6 0 0 1 .32-.86l1.53-3.26A5.95 5.95 0 0 1 13.39.56zm-8.7 11.2-.32.69-.2.41-.2.42-.95 2.06A3.15 3.15 0 0 0 8.74 18l.84-1.8.12-.27a6.79 6.79 0 0 0 3.55-1.22l-.05.19a5.95 5.95 0 0 1-.32.85l-1.52 3.27a5.96 5.96 0 0 1-10.8-5.04l1.52-3.26c.22-.47.49-.89.8-1.27L3 9.3l.05-.06a5.98 5.98 0 0 1 3.7-1.92h.06a5.46 5.46 0 0 1 .39-.03 5.94 5.94 0 0 1 4.72 2l-.5 1.08a2.36 2.36 0 0 1-1.16 1.15 3.13 3.13 0 0 0-1.4-1.28A3.12 3.12 0 0 0 7 10s-.15.02-.38.1c-.11.03-.23.07-.37.14a3.14 3.14 0 0 0-1.56 1.54z"/>
</svg>
