<?xml version="1.0" encoding="UTF-8"?>
<svg xmlns="http://www.w3.org/2000/svg" width="264" height="162" viewBox="0 0 264 162">
	<defs>
		<clipPath id="jagged-edge">
			<path d="M0 0v152l12 10 12-10 12 10 12-10 12 10 12-10 12 10 12-10 12 10 12-10 12 10 12-10 12 10 12-10 12 10 12-10 12 10 12-10 12 10 12-10 12 10 12-10V0z"/>
		</clipPath>
	</defs>
	<g fill="#eaecf0" clip-path="url(#jagged-edge)" transform="matrix(-1 0 0 1 264 0)">
		<path id="background" fill="#fff" d="M0 0h264v162H0"/>
		<path id="logo" d="M11 22c0-8 6-14 14-14s14 6 14 14-6 14-14 14-14-6-14-14m27 23v-5H13v5z"/>
		<path id="sidebar" d="M38 163V58H13v106h25"/>
		<path id="personal-tools" d="M233 5h26v6h-26zm-24 0h22v6h-22zm-24 0h22v6h-22zm-23 0h13v6h-13zm15 0h6v6h-6zm-23 0h6v6h-6z"/>
		<path id="search-input" d="M258 16v4h-92v-4zm1-1h-94v6h94z"/>
		<path id="search-icon" d="M168 17h2v2h-2z"/>
		<path id="article" d="M252 162V29H48v133z"/>
		<path id="border" d="M0 0v162h264V0zm1 1h262v150.533l-11 9.166-12-10-12 10-12-10-12 10-12-10-12 10-12-10-12 10-12-10-12 10-12-10-12 10-12-10-12 10-12-10-12 10-12-10-12 10-12-10-12 10-11-9.167z"/>
		<path fill="#cdd1d6" d="M48.083 29h204.08v20.75H48.083z"/>
		<path fill="#a2a9b1" d="M240 70.334h-39v30h39zm-26.348 13.043h1.403l8.7 8.604 4.725-2.833 7.117 5.943v.025H204.45z" opacity=".412"/>
		<path fill="#fff" d="M59 34.333h25v10H59zm33.5 0h10v10h-10zm17 0h10v10h-10z"/>
		<g stroke-linecap="round" stroke-width="4.083">
			<path stroke="#ccc" d="M61.006 72.747h31.982m8.842 0h29.941m8.849 0h49.674"/>
			<path stroke="#ffcb33" d="M61.006 82.357h93.905"/>
			<path stroke="#ccc" d="M163.08 82.357h27.219"/>
			<path stroke="#e857c8" d="M61.006 91.966h57.84"/>
			<path stroke="#ccc" d="M127.69 91.966h62.603m-129.287 9.609h11.568m8.846 0h53.077"/>
			<path stroke="#00af89" d="M143.34 101.575h46.952"/>
			<path stroke="#ccc" d="M61.006 111.185h177.16m-177.16 9.61h46.272m8.842 0H237.6"/>
		</g>
	</g>
</svg>
