<svg width="510" height="256" viewBox="0 0 510 256" fill="none" xmlns="http://www.w3.org/2000/svg">
<rect width="510" height="256" fill="#DCE3F9"/>
<rect x="33" y="53" width="274" height="170" fill="white"/>
<rect x="44" y="149" width="188" height="8" fill="#C8CCD1"/>
<rect x="44" y="116" width="76" height="12" fill="#C8CCD1"/>
<rect x="44" y="165" width="97" height="8" fill="#C8CCD1"/>
<rect x="129" y="165" width="106.519" height="8" fill="#C8CCD1"/>
<rect x="166" y="181" width="89" height="8" fill="#C8CCD1"/>
<rect x="44" y="181" width="133" height="8" fill="#C8CCD1"/>
<rect x="44" y="197" width="198" height="8" fill="#C8CCD1"/>
<path d="M44 138H295" stroke="#A2A9B1"/>
<rect x="33" y="53" width="274" height="16" fill="#54595D"/>
<path d="M293 99C293 97 290.917 94 285 94C284.644 94 284.302 94.0108 283.974 94.0317L284.25 96.0179C284.489 96.0062 284.739 96 285 96V100L284 100L283 100L281 100V102H283V100L284 100L285 100V102H293V99Z" fill="#202122"/>
<path d="M285 93C287.485 93 289.5 90.985 289.5 88.5C289.5 86.015 287.485 84 285 84C284.699 84 284.406 84.0295 284.122 84.0857L284.51 86.0476C284.667 86.0166 284.831 86 285 86V91C284.831 91 284.667 90.9834 284.51 90.9524L284.122 92.9143C284.406 92.9705 284.699 93 285 93Z" fill="#202122"/>
<path d="M282.067 94.2894C281.377 94.4389 280.767 94.6404 280.233 94.8799L281.284 96.5932C281.635 96.4528 282.039 96.3296 282.502 96.2324L282.067 94.2894Z" fill="#202122"/>
<path d="M279 102V100H277V102H279Z" fill="#202122"/>
<path d="M277.161 98H279.388C279.512 97.8197 279.672 97.6302 279.878 97.4427L278.64 95.8659C277.86 96.5257 277.386 97.2824 277.161 98Z" fill="#202122"/>
<path d="M282.5 84.758L283.613 86.4199C283.339 86.6031 283.103 86.839 282.92 87.1125L281.258 85.9998C281.587 85.5091 282.009 85.0866 282.5 84.758Z" fill="#202122"/>
<path d="M280.586 87.6218L282.548 88.01C282.517 88.1669 282.5 88.3305 282.5 88.5C282.5 88.6695 282.517 88.8331 282.548 88.99L280.586 89.3782C280.529 89.0942 280.5 88.8005 280.5 88.5C280.5 88.1995 280.529 87.9058 280.586 87.6218Z" fill="#202122"/>
<path d="M281.258 91.0002L282.92 89.8875C283.103 90.161 283.339 90.3969 283.613 90.58L282.5 92.2419C282.009 91.9134 281.587 91.4909 281.258 91.0002Z" fill="#202122"/>
<path opacity="0.5" d="M385 44.5L295 93L385 121.5V44.5Z" fill="#C8CCD1"/>
<rect x="384" y="45" width="92" height="76" rx="1" fill="white" stroke="#C8CCD1" stroke-width="2"/>
<path d="M447.5 95.8C447.5 91.2 442.813 84.3 429.5 84.3C428.699 84.3 427.93 84.3249 427.191 84.3728L427.812 88.9413C428.35 88.9142 428.912 88.9 429.5 88.9V98.1L427.25 98.1L425 98.1001L420.5 98.1V102.7H425V98.1001L427.25 98.1L429.5 98.1V102.7H447.5V95.8Z" fill="#202122"/>
<path d="M429.5 82C435.091 82 439.625 77.3655 439.625 71.65C439.625 65.9345 435.091 61.3 429.5 61.3C428.824 61.3 428.163 61.3678 427.524 61.4971L428.398 66.0096C428.751 65.9382 429.119 65.9 429.5 65.9V77.4C429.119 77.4 428.751 77.3618 428.398 77.2904L427.524 81.8029C428.163 81.9322 428.824 82 429.5 82Z" fill="#202122"/>
<path d="M422.901 84.9657C421.348 85.3095 419.977 85.773 418.774 86.3238L421.139 90.2643C421.93 89.9415 422.837 89.6581 423.88 89.4345L422.901 84.9657Z" fill="#202122"/>
<path d="M416 102.7V98.1001H411.5V102.7H416Z" fill="#202122"/>
<path d="M411.861 93.5001H416.873C417.152 93.0854 417.512 92.6496 417.976 92.2182L415.189 88.5915C413.434 90.109 412.369 91.8495 411.861 93.5001Z" fill="#202122"/>
<path d="M423.875 63.0435L426.378 66.8659C425.763 67.2871 425.232 67.8297 424.82 68.4588L421.081 65.8996C421.82 64.7709 422.77 63.7992 423.875 63.0435Z" fill="#202122"/>
<path d="M419.568 69.6301L423.982 70.5231C423.912 70.8839 423.875 71.2602 423.875 71.65C423.875 72.0398 423.912 72.4161 423.982 72.7769L419.568 73.6699C419.441 73.0166 419.375 72.3412 419.375 71.65C419.375 70.9588 419.441 70.2834 419.568 69.6301Z" fill="#202122"/>
<path d="M421.081 77.4004L424.82 74.8412C425.232 75.4703 425.763 76.0129 426.378 76.4341L423.875 80.2565C422.77 79.5008 421.82 78.5291 421.081 77.4004Z" fill="#202122"/>
</svg>
