<svg width="510" height="256" viewBox="0 0 510 256" fill="none" xmlns="http://www.w3.org/2000/svg">
<rect width="510" height="256" fill="#DCE3F9"/>
<rect width="301" height="170" transform="matrix(-1 0 0 1 476 53)" fill="white"/>
<rect width="187" height="8" transform="matrix(-1 0 0 1 464 134)" fill="#C8CCD1"/>
<rect width="187" height="8" transform="matrix(-1 0 0 1 464 198)" fill="#C8CCD1"/>
<rect width="77" height="12" transform="matrix(-1 0 0 1 464 104)" fill="#C8CCD1"/>
<rect width="197" height="8" transform="matrix(-1 0 0 1 464 150)" fill="#C8CCD1"/>
<rect width="166" height="8" transform="matrix(-1 0 0 1 464 166)" fill="#C8CCD1"/>
<rect width="230" height="8" transform="matrix(-1 0 0 1 464 182)" fill="#C8CCD1"/>
<line y1="-0.5" x2="277" y2="-0.5" transform="matrix(-1 8.74228e-08 8.74228e-08 1 464 124)" stroke="#A2A9B1"/>
<rect x="1" y="-1" width="69" height="10" rx="3" transform="matrix(-1 0 0 1 292 166)" fill="#C8CCD1" stroke="#3366CC" stroke-width="2"/>
<path opacity="0.5" d="M184.5 73L221 165L36 133L184.5 73Z" fill="#C8CCD1"/>
<rect x="-1" y="1" width="149" height="59" rx="1" transform="matrix(-1 0 0 1 183 72)" fill="white" stroke="#C8CCD1" stroke-width="2"/>
<path d="M50.2544 103.727C50.2544 101.952 50.4888 100.321 50.9576 98.8338C51.4311 97.3423 52.1342 95.9645 53.0669 94.7003H55.4888C55.129 95.169 54.7928 95.7443 54.4803 96.4261C54.1678 97.1032 53.8955 97.8466 53.6635 98.6562C53.4363 99.4612 53.2563 100.297 53.1238 101.163C52.9959 102.03 52.932 102.884 52.932 103.727C52.932 104.849 53.0433 105.986 53.2658 107.136C53.4931 108.287 53.7985 109.355 54.182 110.339C54.5703 111.32 55.0059 112.122 55.4888 112.747H53.0669C52.1342 111.483 51.4311 110.107 50.9576 108.621C50.4888 107.129 50.2544 105.498 50.2544 103.727ZM167.038 103.727C167.038 105.498 166.801 107.129 166.328 108.621C165.859 110.107 165.158 111.483 164.225 112.747H161.804C162.168 112.278 162.504 111.705 162.812 111.028C163.125 110.351 163.395 109.608 163.622 108.798C163.854 107.989 164.034 107.151 164.162 106.284C164.294 105.418 164.36 104.565 164.36 103.727C164.36 102.605 164.247 101.469 164.02 100.318C163.797 99.1676 163.492 98.0999 163.103 97.1151C162.72 96.1302 162.287 95.3253 161.804 94.7003H164.225C165.158 95.9645 165.859 97.3423 166.328 98.8338C166.801 100.321 167.038 101.952 167.038 103.727Z" fill="#202122"/>
<path d="M63.3141 96.4545V111H60.6792V99.0185H60.594L57.192 101.192V98.777L60.807 96.4545H63.3141ZM71.997 96.2557C72.693 96.2604 73.3701 96.3835 74.0283 96.625C74.6911 96.8617 75.2877 97.25 75.818 97.7898C76.3483 98.3248 76.7697 99.0421 77.0822 99.9418C77.3947 100.841 77.551 101.954 77.551 103.28C77.5557 104.53 77.4232 105.647 77.1533 106.632C76.8881 107.612 76.507 108.441 76.0098 109.118C75.5126 109.795 74.9137 110.311 74.2129 110.666C73.5122 111.021 72.7238 111.199 71.8479 111.199C70.9293 111.199 70.1149 111.019 69.4047 110.659C68.6992 110.299 68.1286 109.807 67.693 109.182C67.2574 108.557 66.9899 107.842 66.8905 107.037H69.4828C69.6154 107.615 69.8853 108.074 70.2925 108.415C70.7044 108.751 71.2229 108.919 71.8479 108.919C72.8564 108.919 73.6329 108.481 74.1774 107.605C74.7219 106.729 74.9942 105.512 74.9942 103.955H74.8947C74.6627 104.371 74.3621 104.731 73.9928 105.034C73.6234 105.332 73.2044 105.562 72.7357 105.723C72.2716 105.884 71.7792 105.964 71.2584 105.964C70.4061 105.964 69.6391 105.761 68.9572 105.354C68.2802 104.946 67.7428 104.388 67.345 103.678C66.952 102.967 66.7532 102.155 66.7484 101.241C66.7484 100.295 66.9662 99.4446 67.4018 98.6918C67.8422 97.9342 68.4554 97.3376 69.2413 96.902C70.0273 96.4616 70.9459 96.2462 71.997 96.2557ZM72.0041 98.3864C71.4928 98.3864 71.0311 98.5118 70.6192 98.7628C70.212 99.009 69.89 99.3452 69.6533 99.7713C69.4213 100.193 69.3053 100.664 69.3053 101.185C69.31 101.701 69.426 102.17 69.6533 102.591C69.8853 103.012 70.2001 103.346 70.5979 103.592C71.0003 103.839 71.4596 103.962 71.9757 103.962C72.3592 103.962 72.7167 103.888 73.0482 103.741C73.3796 103.595 73.6684 103.391 73.9146 103.131C74.1656 102.866 74.3597 102.565 74.497 102.229C74.6391 101.893 74.7077 101.537 74.703 101.163C74.703 100.666 74.5846 100.207 74.3479 99.7855C74.1159 99.3641 73.7963 99.0256 73.3891 98.7699C72.9866 98.5142 72.525 98.3864 72.0041 98.3864ZM79.8561 111V109.097L84.9058 104.146C85.3887 103.659 85.7912 103.225 86.1132 102.847C86.4351 102.468 86.6766 102.101 86.8376 101.746C86.9986 101.391 87.0791 101.012 87.0791 100.609C87.0791 100.15 86.9749 99.7571 86.7666 99.4304C86.5582 99.099 86.2718 98.8433 85.9072 98.6634C85.5426 98.4834 85.1283 98.3935 84.6643 98.3935C84.1861 98.3935 83.767 98.4929 83.4072 98.6918C83.0473 98.8859 82.768 99.1629 82.5691 99.5227C82.375 99.8826 82.2779 100.311 82.2779 100.808H79.7708C79.7708 99.8849 79.9815 99.0824 80.4029 98.4006C80.8243 97.7187 81.4043 97.1908 82.143 96.8168C82.8864 96.4427 83.7386 96.2557 84.6998 96.2557C85.6752 96.2557 86.5322 96.438 87.2708 96.8026C88.0095 97.1671 88.5824 97.6667 88.9896 98.3011C89.4015 98.9356 89.6075 99.66 89.6075 100.474C89.6075 101.019 89.5033 101.554 89.295 102.08C89.0866 102.605 88.7197 103.187 88.1941 103.827C87.6733 104.466 86.9418 105.24 85.9995 106.149L83.4924 108.699V108.798H89.8276V111H79.8561ZM93.8301 111.156C93.3993 111.156 93.03 111.005 92.7222 110.702C92.4144 110.399 92.2629 110.029 92.2676 109.594C92.2629 109.168 92.4144 108.803 92.7222 108.5C93.03 108.197 93.3993 108.045 93.8301 108.045C94.2468 108.045 94.609 108.197 94.9168 108.5C95.2293 108.803 95.3879 109.168 95.3926 109.594C95.3879 109.883 95.3121 110.145 95.1654 110.382C95.0233 110.619 94.8339 110.808 94.5972 110.95C94.3652 111.088 94.1095 111.156 93.8301 111.156ZM102.078 96.4545V111H99.4431V99.0185H99.3579L95.9559 101.192V98.777L99.5709 96.4545H102.078ZM111.038 111.199C110.342 111.194 109.662 111.073 109 110.837C108.337 110.595 107.74 110.205 107.21 109.665C106.679 109.12 106.258 108.398 105.946 107.499C105.633 106.594 105.479 105.474 105.484 104.139C105.484 102.894 105.617 101.784 105.882 100.808C106.147 99.8329 106.528 99.009 107.025 98.3366C107.522 97.6596 108.121 97.1435 108.822 96.7884C109.527 96.4332 110.316 96.2557 111.187 96.2557C112.101 96.2557 112.911 96.4356 113.616 96.7955C114.326 97.1553 114.899 97.6477 115.335 98.2727C115.77 98.893 116.04 99.5938 116.144 100.375H113.552C113.42 99.8163 113.147 99.3712 112.735 99.0398C112.328 98.7036 111.812 98.5355 111.187 98.5355C110.179 98.5355 109.402 98.9735 108.858 99.8494C108.318 100.725 108.045 101.928 108.041 103.457H108.14C108.372 103.041 108.673 102.683 109.042 102.385C109.411 102.087 109.828 101.857 110.292 101.696C110.761 101.53 111.256 101.447 111.777 101.447C112.629 101.447 113.393 101.651 114.071 102.058C114.752 102.465 115.292 103.027 115.69 103.741C116.088 104.452 116.284 105.266 116.279 106.185C116.284 107.141 116.066 108 115.626 108.763C115.186 109.52 114.572 110.117 113.786 110.553C113.001 110.988 112.084 111.204 111.038 111.199ZM111.024 109.068C111.54 109.068 112.001 108.943 112.409 108.692C112.816 108.441 113.138 108.102 113.375 107.676C113.611 107.25 113.727 106.772 113.723 106.241C113.727 105.721 113.614 105.25 113.382 104.828C113.154 104.407 112.84 104.073 112.437 103.827C112.035 103.58 111.575 103.457 111.059 103.457C110.676 103.457 110.318 103.531 109.987 103.678C109.655 103.824 109.367 104.028 109.12 104.288C108.874 104.544 108.68 104.842 108.538 105.183C108.401 105.519 108.33 105.879 108.325 106.263C108.33 106.769 108.448 107.236 108.68 107.662C108.912 108.088 109.232 108.429 109.639 108.685C110.046 108.94 110.508 109.068 111.024 109.068ZM123.79 111.199C122.735 111.199 121.797 111.021 120.978 110.666C120.164 110.311 119.524 109.826 119.06 109.21C118.601 108.59 118.374 107.887 118.378 107.101C118.374 106.49 118.506 105.929 118.776 105.418C119.046 104.906 119.411 104.48 119.87 104.139C120.334 103.794 120.85 103.573 121.418 103.479V103.379C120.67 103.214 120.064 102.832 119.6 102.236C119.141 101.634 118.914 100.941 118.918 100.155C118.914 99.4067 119.122 98.7391 119.543 98.152C119.965 97.5649 120.542 97.1032 121.276 96.767C122.01 96.4261 122.848 96.2557 123.79 96.2557C124.723 96.2557 125.554 96.4261 126.283 96.767C127.017 97.1032 127.595 97.5649 128.016 98.152C128.442 98.7391 128.655 99.4067 128.655 100.155C128.655 100.941 128.421 101.634 127.952 102.236C127.488 102.832 126.889 103.214 126.155 103.379V103.479C126.724 103.573 127.235 103.794 127.69 104.139C128.149 104.48 128.513 104.906 128.783 105.418C129.058 105.929 129.195 106.49 129.195 107.101C129.195 107.887 128.963 108.59 128.499 109.21C128.035 109.826 127.396 110.311 126.582 110.666C125.772 111.021 124.842 111.199 123.79 111.199ZM123.79 109.168C124.335 109.168 124.808 109.075 125.211 108.891C125.613 108.701 125.926 108.436 126.148 108.095C126.371 107.754 126.485 107.361 126.489 106.916C126.485 106.452 126.364 106.043 126.127 105.688C125.895 105.328 125.575 105.046 125.168 104.842C124.766 104.639 124.307 104.537 123.79 104.537C123.27 104.537 122.806 104.639 122.398 104.842C121.991 105.046 121.669 105.328 121.432 105.688C121.2 106.043 121.087 106.452 121.092 106.916C121.087 107.361 121.196 107.754 121.418 108.095C121.641 108.431 121.953 108.694 122.356 108.884C122.763 109.073 123.241 109.168 123.79 109.168ZM123.79 102.541C124.235 102.541 124.628 102.451 124.969 102.271C125.315 102.091 125.587 101.84 125.786 101.518C125.985 101.196 126.087 100.825 126.092 100.403C126.087 99.9867 125.987 99.6222 125.793 99.3097C125.599 98.9924 125.329 98.7486 124.984 98.5781C124.638 98.4029 124.24 98.3153 123.79 98.3153C123.331 98.3153 122.926 98.4029 122.576 98.5781C122.23 98.7486 121.96 98.9924 121.766 99.3097C121.577 99.6222 121.485 99.9867 121.489 100.403C121.485 100.825 121.579 101.196 121.773 101.518C121.972 101.836 122.244 102.087 122.59 102.271C122.941 102.451 123.341 102.541 123.79 102.541ZM132.653 111.156C132.222 111.156 131.852 111.005 131.545 110.702C131.237 110.399 131.085 110.029 131.09 109.594C131.085 109.168 131.237 108.803 131.545 108.5C131.852 108.197 132.222 108.045 132.653 108.045C133.069 108.045 133.432 108.197 133.739 108.5C134.052 108.803 134.21 109.168 134.215 109.594C134.21 109.883 134.135 110.145 133.988 110.382C133.846 110.619 133.656 110.808 133.42 110.95C133.188 111.088 132.932 111.156 132.653 111.156ZM141.591 111.277C140.422 111.277 139.418 110.981 138.58 110.389C137.747 109.793 137.105 108.933 136.655 107.811C136.21 106.684 135.988 105.328 135.988 103.741C135.992 102.155 136.217 100.806 136.662 99.6932C137.112 98.5758 137.754 97.7235 138.587 97.1364C139.425 96.5492 140.426 96.2557 141.591 96.2557C142.756 96.2557 143.757 96.5492 144.595 97.1364C145.434 97.7235 146.075 98.5758 146.52 99.6932C146.97 100.811 147.195 102.16 147.195 103.741C147.195 105.332 146.97 106.691 146.52 107.818C146.075 108.94 145.434 109.797 144.595 110.389C143.762 110.981 142.761 111.277 141.591 111.277ZM141.591 109.054C142.5 109.054 143.218 108.607 143.743 107.712C144.274 106.812 144.539 105.489 144.539 103.741C144.539 102.586 144.418 101.616 144.176 100.83C143.935 100.044 143.594 99.4517 143.154 99.054C142.713 98.6515 142.193 98.4503 141.591 98.4503C140.687 98.4503 139.972 98.9001 139.446 99.7997C138.921 100.695 138.656 102.009 138.651 103.741C138.646 104.902 138.762 105.877 138.999 106.668C139.24 107.458 139.581 108.055 140.022 108.457C140.462 108.855 140.985 109.054 141.591 109.054ZM150.54 111.156C150.11 111.156 149.74 111.005 149.433 110.702C149.125 110.399 148.973 110.029 148.978 109.594C148.973 109.168 149.125 108.803 149.433 108.5C149.74 108.197 150.11 108.045 150.54 108.045C150.957 108.045 151.319 108.197 151.627 108.5C151.94 108.803 152.098 109.168 152.103 109.594C152.098 109.883 152.022 110.145 151.876 110.382C151.734 110.619 151.544 110.808 151.308 110.95C151.075 111.088 150.82 111.156 150.54 111.156ZM158.788 96.4545V111H156.153V99.0185H156.068L152.666 101.192V98.777L156.281 96.4545H158.788Z" fill="#3366CC"/>
<g filter="url(#filter0_dd_3483_13095)">
<path fill-rule="evenodd" clip-rule="evenodd" d="M122.99 143.147C122.99 142.031 122.106 141.127 121.017 141.127C119.93 141.127 119.049 142.027 119.046 143.14V141.729C119.046 140.266 117.862 139.079 116.401 139.079C114.94 139.079 113.777 140.266 113.777 141.729V139.682C113.777 138.218 112.578 137.032 111.123 137.032C109.669 137.032 108.51 138.219 108.51 139.682V124.435C108.51 123.09 107.458 122 106.186 122C104.915 122 103.883 123.091 103.883 124.435V150.124L97.9476 142.165C97.3775 141.164 96.0924 140.835 95.0769 141.429C94.0614 142.023 93.7002 143.317 94.2703 144.318C94.2703 144.318 98.9117 151.781 100.806 154.727C102.701 157.674 105.811 161.308 105.811 163C108.134 163 115.553 163 118.974 163C118.974 160.144 123 155.682 123 151.386C123 147.089 123 145.853 123 145.853L122.99 143.147Z" fill="white"/>
<path d="M119.495 141.161C119.228 139.693 117.945 138.579 116.401 138.579C115.571 138.579 114.823 138.901 114.267 139.425C114.135 137.804 112.766 136.532 111.123 136.532C110.302 136.532 109.562 136.849 109.01 137.365V124.435C109.01 122.834 107.754 121.5 106.186 121.5C104.613 121.5 103.383 122.841 103.383 124.435V148.618L98.3658 141.89C97.6451 140.66 96.062 140.273 94.8245 140.997L94.8243 140.997C93.581 141.725 93.1254 143.318 93.8358 144.565L93.8406 144.573L93.8457 144.582L94.2703 144.318C93.8457 144.582 93.8457 144.582 93.8457 144.582L93.8459 144.582L93.8465 144.583L93.8491 144.587L93.8591 144.603L93.8983 144.666L94.0489 144.908C94.1796 145.118 94.3683 145.421 94.6008 145.794C95.0656 146.54 95.7051 147.565 96.4039 148.683C97.8008 150.916 99.4365 153.521 100.386 154.998C100.949 155.874 101.634 156.831 102.304 157.768C102.759 158.404 103.207 159.031 103.606 159.616C104.11 160.355 104.544 161.04 104.851 161.637C105.166 162.25 105.311 162.704 105.311 163V163.5H105.811H105.825H105.838H105.852H105.866H105.88H105.895H105.909H105.924H105.938H105.953H105.968H105.983H105.998H106.013H106.028H106.043H106.059H106.074H106.09H106.106H106.122H106.138H106.154H106.17H106.187H106.203H106.22H106.236H106.253H106.27H106.287H106.304H106.321H106.338H106.356H106.373H106.391H106.409H106.426H106.444H106.462H106.48H106.499H106.517H106.535H106.554H106.572H106.591H106.61H106.629H106.648H106.667H106.686H106.705H106.725H106.744H106.764H106.783H106.803H106.823H106.843H106.863H106.883H106.903H106.923H106.944H106.964H106.985H107.006H107.026H107.047H107.068H107.089H107.11H107.131H107.153H107.174H107.195H107.217H107.238H107.26H107.282H107.304H107.326H107.348H107.37H107.392H107.414H107.437H107.459H107.481H107.504H107.527H107.549H107.572H107.595H107.618H107.641H107.664H107.688H107.711H107.734H107.758H107.781H107.805H107.828H107.852H107.876H107.9H107.924H107.948H107.972H107.996H108.02H108.044H108.069H108.093H108.118H108.142H108.167H108.192H108.217H108.241H108.266H108.291H108.316H108.341H108.367H108.392H108.417H108.443H108.468H108.493H108.519H108.545H108.57H108.596H108.622H108.648H108.674H108.7H108.726H108.752H108.778H108.804H108.83H108.857H108.883H108.91H108.936H108.963H108.989H109.016H109.043H109.07H109.096H109.123H109.15H109.177H109.204H109.231H109.258H109.286H109.313H109.34H109.368H109.395H109.422H109.45H109.477H109.505H109.533H109.56H109.588H109.616H109.644H109.672H109.699H109.727H109.755H109.783H109.812H109.84H109.868H109.896H109.924H109.953H109.981H110.009H110.038H110.066H110.095H110.123H110.152H110.18H110.209H110.238H110.266H110.295H110.324H110.353H110.382H110.411H110.44H110.468H110.497H110.526H110.556H110.585H110.614H110.643H110.672H110.701H110.731H110.76H110.789H110.819H110.848H110.877H110.907H110.936H110.966H110.995H111.025H111.054H111.084H111.113H111.143H111.173H111.202H111.232H111.262H111.291H111.321H111.351H111.381H111.411H111.441H111.47H111.5H111.53H111.56H111.59H111.62H111.65H111.68H111.71H111.74H111.77H111.8H111.83H111.86H111.89H111.921H111.951H111.981H112.011H112.041H112.071H112.101H112.132H112.162H112.192H112.222H112.253H112.283H112.313H112.343H112.374H112.404H112.434H112.465H112.495H112.525H112.555H112.586H112.616H112.646H112.677H112.707H112.737H112.768H112.798H112.828H112.859H112.889H112.919H112.95H112.98H113.01H113.041H113.071H113.101H113.132H113.162H113.192H113.223H113.253H113.283H113.314H113.344H113.374H113.405H113.435H113.465H113.496H113.526H113.556H113.586H113.617H113.647H113.677H113.707H113.737H113.768H113.798H113.828H113.858H113.888H113.918H113.948H113.979H114.009H114.039H114.069H114.099H114.129H114.159H114.189H114.219H114.249H114.279H114.309H114.339H114.368H114.398H114.428H114.458H114.488H114.518H114.547H114.577H114.607H114.636H114.666H114.696H114.725H114.755H114.785H114.814H114.844H114.873H114.903H114.932H114.961H114.991H115.02H115.05H115.079H115.108H115.137H115.167H115.196H115.225H115.254H115.283H115.312H115.341H115.37H115.399H115.428H115.457H115.486H115.515H115.543H115.572H115.601H115.63H115.658H115.687H115.715H115.744H115.772H115.801H115.829H115.858H115.886H115.914H115.942H115.971H115.999H116.027H116.055H116.083H116.111H116.139H116.167H116.195H116.223H116.25H116.278H116.306H116.333H116.361H116.388H116.416H116.443H116.471H116.498H116.525H116.553H116.58H116.607H116.634H116.661H116.688H116.715H116.742H116.769H116.795H116.822H116.849H116.875H116.902H116.928H116.955H116.981H117.008H117.034H117.06H117.086H117.112H117.138H117.164H117.19H117.216H117.242H117.268H117.293H117.319H117.345H117.37H117.395H117.421H117.446H117.471H117.496H117.522H117.547H117.572H117.596H117.621H117.646H117.671H117.695H117.72H117.744H117.769H117.793H117.818H117.842H117.866H117.89H117.914H117.938H117.962H117.986H118.009H118.033H118.057H118.08H118.103H118.127H118.15H118.173H118.196H118.219H118.242H118.265H118.288H118.311H118.333H118.356H118.378H118.401H118.423H118.445H118.468H118.49H118.512H118.534H118.555H118.577H118.599H118.62H118.642H118.663H118.685H118.706H118.727H118.748H118.769H118.79H118.811H118.832H118.852H118.873H118.893H118.914H118.934H118.954H118.974H119.474V163C119.474 162.39 119.692 161.653 120.063 160.78C120.357 160.09 120.728 159.357 121.123 158.574C121.226 158.372 121.329 158.166 121.434 157.957C122.435 155.959 123.5 153.669 123.5 151.386V151.361V151.336V151.311V151.286V151.261V151.237V151.212V151.187V151.163V151.138V151.114V151.089V151.065V151.041V151.017V150.992V150.968V150.944V150.921V150.897V150.873V150.849V150.826V150.802V150.779V150.755V150.732V150.709V150.685V150.662V150.639V150.616V150.593V150.57V150.547V150.525V150.502V150.479V150.457V150.434V150.412V150.39V150.367V150.345V150.323V150.301V150.279V150.257V150.235V150.213V150.192V150.17V150.148V150.127V150.105V150.084V150.063V150.041V150.02V149.999V149.978V149.957V149.936V149.915V149.894V149.873V149.853V149.832V149.811V149.791V149.77V149.75V149.73V149.709V149.689V149.669V149.649V149.629V149.609V149.589V149.57V149.55V149.53V149.51V149.491V149.471V149.452V149.433V149.413V149.394V149.375V149.356V149.337V149.318V149.299V149.28V149.261V149.242V149.224V149.205V149.187V149.168V149.15V149.131V149.113V149.095V149.077V149.059V149.04V149.022V149.005V148.987V148.969V148.951V148.933V148.916V148.898V148.881V148.863V148.846V148.829V148.811V148.794V148.777V148.76V148.743V148.726V148.709V148.692V148.675V148.659V148.642V148.625V148.609V148.592V148.576V148.559V148.543V148.527V148.511V148.494V148.478V148.462V148.446V148.431V148.415V148.399V148.383V148.367V148.352V148.336V148.321V148.305V148.29V148.275V148.259V148.244V148.229V148.214V148.199V148.184V148.169V148.154V148.139V148.124V148.11V148.095V148.081V148.066V148.052V148.037V148.023V148.008V147.994V147.98V147.966V147.952V147.938V147.924V147.91V147.896V147.882V147.868V147.855V147.841V147.828V147.814V147.801V147.787V147.774V147.76V147.747V147.734V147.721V147.708V147.695V147.682V147.669V147.656V147.643V147.63V147.618V147.605V147.592V147.58V147.567V147.555V147.542V147.53V147.518V147.505V147.493V147.481V147.469V147.457V147.445V147.433V147.421V147.409V147.398V147.386V147.374V147.363V147.351V147.34V147.328V147.317V147.305V147.294V147.283V147.272V147.261V147.249V147.238V147.227V147.216V147.206V147.195V147.184V147.173V147.163V147.152V147.141V147.131V147.12V147.11V147.099V147.089V147.079V147.069V147.058V147.048V147.038V147.028V147.018V147.008V146.998V146.988V146.979V146.969V146.959V146.95V146.94V146.93V146.921V146.912V146.902V146.893V146.883V146.874V146.865V146.856V146.847V146.838V146.829V146.82V146.811V146.802V146.793V146.784V146.775V146.767V146.758V146.75V146.741V146.733V146.724V146.716V146.707V146.699V146.691V146.682V146.674V146.666V146.658V146.65V146.642V146.634V146.626V146.618V146.611V146.603V146.595V146.587V146.58V146.572V146.565V146.557V146.55V146.542V146.535V146.528V146.52V146.513V146.506V146.499V146.492V146.485V146.478V146.471V146.464V146.457V146.45V146.443V146.437V146.43V146.423V146.417V146.41V146.404V146.397V146.391V146.384V146.378V146.372V146.365V146.359V146.353V146.347V146.341V146.335V146.329V146.323V146.317V146.311V146.305V146.299V146.293V146.288V146.282V146.276V146.271V146.265V146.26V146.254V146.249V146.244V146.238V146.233V146.228V146.222V146.217V146.212V146.207V146.202V146.197V146.192V146.187V146.182V146.177V146.172V146.168V146.163V146.158V146.153V146.149V146.144V146.14V146.135V146.131V146.126V146.122V146.118V146.113V146.109V146.105V146.101V146.096V146.092V146.088V146.084V146.08V146.076V146.072V146.068V146.065V146.061V146.057V146.053V146.05V146.046V146.042V146.039V146.035V146.032V146.028V146.025V146.021V146.018V146.015V146.011V146.008V146.005V146.002V145.999V145.995V145.992V145.989V145.986V145.983V145.98V145.978V145.975V145.972V145.969V145.966V145.964V145.961V145.958V145.956V145.953V145.951V145.948V145.946V145.943V145.941V145.938V145.936V145.934V145.931V145.929V145.927V145.925V145.923V145.921V145.919V145.917V145.915V145.913V145.911V145.909V145.907V145.905V145.903V145.901V145.9V145.898V145.896V145.895V145.893V145.892V145.89V145.889V145.887V145.886V145.884V145.883V145.882V145.88V145.879V145.878V145.877V145.875V145.874V145.873V145.872V145.871V145.87V145.869V145.868V145.867V145.866V145.865V145.864V145.864V145.863V145.862V145.861V145.861V145.86V145.859V145.859V145.858V145.858V145.857V145.857V145.856V145.856V145.855V145.855V145.855V145.854V145.854V145.854V145.854V145.854V145.853V145.853V145.853V145.853V145.853L123 145.853H123.5L123.5 145.851L123.49 143.147C123.49 143.147 123.49 143.147 123.49 143.146L123.49 143.145L122.99 143.147C122.99 142.031 122.106 141.127 121.017 141.127C120.432 141.127 119.907 141.387 119.546 141.802L119.495 141.161Z" stroke="#101418"/>
</g>
<defs>
<filter id="filter0_dd_3483_13095" x="89.9992" y="120" width="37.0008" height="49" filterUnits="userSpaceOnUse" color-interpolation-filters="sRGB">
<feFlood flood-opacity="0" result="BackgroundImageFix"/>
<feColorMatrix in="SourceAlpha" type="matrix" values="0 0 0 0 0 0 0 0 0 0 0 0 0 0 0 0 0 0 127 0" result="hardAlpha"/>
<feOffset dy="1"/>
<feGaussianBlur stdDeviation="0.5"/>
<feColorMatrix type="matrix" values="0 0 0 0 0 0 0 0 0 0 0 0 0 0 0 0 0 0 0.582909 0"/>
<feBlend mode="normal" in2="BackgroundImageFix" result="effect1_dropShadow_3483_13095"/>
<feColorMatrix in="SourceAlpha" type="matrix" values="0 0 0 0 0 0 0 0 0 0 0 0 0 0 0 0 0 0 127 0" result="hardAlpha"/>
<feOffset dy="2"/>
<feGaussianBlur stdDeviation="1.5"/>
<feColorMatrix type="matrix" values="0 0 0 0 0 0 0 0 0 0 0 0 0 0 0 0 0 0 0.179348 0"/>
<feBlend mode="normal" in2="effect1_dropShadow_3483_13095" result="effect2_dropShadow_3483_13095"/>
<feBlend mode="normal" in="SourceGraphic" in2="effect2_dropShadow_3483_13095" result="shape"/>
</filter>
</defs>
</svg>
