<svg width="510" height="256" viewBox="0 0 510 256" fill="none" xmlns="http://www.w3.org/2000/svg">
<rect width="510" height="256" fill="#DCE3F9"/>
<rect x="51" y="53" width="301" height="170" fill="white"/>
<rect x="63" y="134" width="67" height="8" fill="#C8CCD1"/>
<rect x="63" y="198" width="86" height="8" fill="#C8CCD1"/>
<rect x="123" y="134" width="127" height="8" fill="#C8CCD1"/>
<rect x="134" y="198" width="116" height="8" fill="#C8CCD1"/>
<rect x="63" y="104" width="77" height="12" fill="#C8CCD1"/>
<rect x="63" y="150" width="132" height="8" fill="#C8CCD1"/>
<rect x="190" y="150" width="51" height="8" fill="#C8CCD1"/>
<rect x="140" y="166" width="110" height="8" fill="#C8CCD1"/>
<rect x="256" y="165" width="40" height="10" rx="3" fill="#C8CCD1" stroke="#3366CC" stroke-width="2"/>
<rect x="63" y="166" width="86" height="8" fill="#C8CCD1"/>
<rect x="63" y="182" width="127" height="8" fill="#C8CCD1"/>
<rect x="183" y="182" width="110" height="8" fill="#C8CCD1"/>
<line x1="63" y1="123.5" x2="319" y2="123.5" stroke="#A2A9B1"/>
<path fill-rule="evenodd" clip-rule="evenodd" d="M303 169C303 172.314 305.686 175 309 175C312.314 175 315 172.314 315 169C315 165.686 312.314 163 309 163C305.686 163 303 165.686 303 169ZM309 161C304.582 161 301 164.582 301 169C301 173.418 304.582 177 309 177C313.418 177 317 173.418 317 169C317 164.582 313.418 161 309 161ZM310 168V173H308V168H310ZM310 167V165H308V167H310Z" fill="#202122"/>
<path fill-rule="evenodd" clip-rule="evenodd" d="M309.655 156L322.392 147.748L335.128 139.496H335.685H456.173C457.181 139.496 458 138.709 458 137.739V31.7575C458 30.7776 457.188 30 456.173 30H280.827C279.819 30 279 30.787 279 31.7575V137.739C279 138.719 279.812 139.496 280.827 139.496H309.655V156Z" fill="white" stroke="#72777D" stroke-width="2"/>
<rect x="343" y="63" width="67" height="10" fill="#C8CCD1"/>
<path fill-rule="evenodd" clip-rule="evenodd" d="M320 61.0126C316.777 60.8613 313.639 62.0764 311.357 64.3595C309.076 66.6427 307.861 69.7823 308.013 73.0076C308.013 76.786 311.009 80.5044 312.508 82.0038C314.006 83.5032 320 91 320 91C320 91 325.994 83.5032 327.492 82.0038C328.991 80.5044 331.987 76.786 331.987 73.0076C332.139 69.7823 330.924 66.6427 328.643 64.3595C326.361 62.0764 323.223 60.8613 320 61.0126ZM320 77.8805C317.31 77.8805 315.13 75.6988 315.13 73.0076C315.13 70.3163 317.31 68.1346 320 68.1346C322.69 68.1346 324.87 70.3163 324.87 73.0076C324.87 75.6988 322.69 77.8805 320 77.8805Z" fill="#3366CC"/>
<rect x="343" y="79" width="83" height="10" fill="#C8CCD1"/>
<rect x="343" y="95" width="61" height="10" fill="#C8CCD1"/>
</svg>
