<svg width="510" height="256" viewBox="0 0 510 256" fill="none" xmlns="http://www.w3.org/2000/svg">
<rect width="510" height="256" fill="#DCE3F9"/>
<rect x="203" y="53" width="274" height="170" fill="white"/>
<rect width="188" height="8" transform="matrix(-1 0 0 1 465 149)" fill="#C8CCD1"/>
<rect width="76" height="12" transform="matrix(-1 0 0 1 465 116)" fill="#C8CCD1"/>
<rect width="97" height="8" transform="matrix(-1 0 0 1 465 165)" fill="#C8CCD1"/>
<rect width="106.519" height="8" transform="matrix(-1 0 0 1 380 165)" fill="#C8CCD1"/>
<rect width="89" height="8" transform="matrix(-1 0 0 1 343 181)" fill="#C8CCD1"/>
<rect width="133" height="8" transform="matrix(-1 0 0 1 465 181)" fill="#C8CCD1"/>
<rect width="198" height="8" transform="matrix(-1 0 0 1 465 197)" fill="#C8CCD1"/>
<path d="M465 138H214" stroke="#A2A9B1"/>
<rect x="203" y="53" width="274" height="16" fill="#54595D"/>
<path d="M216 99C216 97 218.083 94 224 94C224.356 94 224.698 94.0108 225.026 94.0317L224.75 96.018C224.511 96.0062 224.261 96 224 96V100L225 100L226 100L228 100V102H226V100L225 100L224 100V102H216V99Z" fill="#202122"/>
<path d="M224 93C221.515 93 219.5 90.985 219.5 88.5C219.5 86.015 221.515 84 224 84C224.301 84 224.594 84.0295 224.878 84.0857L224.49 86.0476C224.333 86.0166 224.169 86 224 86V91C224.169 91 224.333 90.9834 224.49 90.9524L224.878 92.9143C224.594 92.9705 224.301 93 224 93Z" fill="#202122"/>
<path d="M226.933 94.2894C227.623 94.4389 228.233 94.6404 228.767 94.8799L227.716 96.5932C227.365 96.4528 226.961 96.3296 226.498 96.2324L226.933 94.2894Z" fill="#202122"/>
<path d="M230 102V100H232V102H230Z" fill="#202122"/>
<path d="M231.839 98H229.612C229.488 97.8197 229.328 97.6302 229.122 97.4427L230.36 95.8659C231.14 96.5257 231.614 97.2824 231.839 98Z" fill="#202122"/>
<path d="M226.5 84.7581L225.387 86.4199C225.661 86.6031 225.897 86.839 226.08 87.1125L227.742 85.9998C227.413 85.5091 226.991 85.0866 226.5 84.7581Z" fill="#202122"/>
<path d="M228.414 87.6218L226.452 88.01C226.483 88.1669 226.5 88.3305 226.5 88.5C226.5 88.6695 226.483 88.8331 226.452 88.99L228.414 89.3782C228.471 89.0942 228.5 88.8005 228.5 88.5C228.5 88.1995 228.471 87.9058 228.414 87.6218Z" fill="#202122"/>
<path d="M227.742 91.0002L226.08 89.8875C225.897 90.161 225.661 90.3969 225.387 90.58L226.5 92.2419C226.991 91.9134 227.413 91.4909 227.742 91.0002Z" fill="#202122"/>
<path opacity="0.5" d="M125 44.5L215 93L125 121.5V44.5Z" fill="#C8CCD1"/>
<rect x="-1" y="1" width="92" height="76" rx="1" transform="matrix(-1 0 0 1 125 44)" fill="white" stroke="#C8CCD1" stroke-width="2"/>
<path d="M62.5 95.8C62.5 91.2 67.1868 84.3 80.5 84.3C81.3005 84.3 82.0699 84.3249 82.8089 84.3728L82.1884 88.9413C81.65 88.9142 81.0875 88.9 80.5 88.9V98.1L82.75 98.1L85 98.1001L89.5 98.1V102.7H85V98.1001L82.75 98.1L80.5 98.1V102.7H62.5V95.8Z" fill="#202122"/>
<path d="M80.5 82C74.9088 82 70.375 77.3655 70.375 71.65C70.375 65.9345 74.9088 61.3 80.5 61.3C81.1762 61.3 81.8369 61.3678 82.476 61.4971L81.6024 66.0096C81.2495 65.9382 80.8813 65.9 80.5 65.9V77.4C80.8813 77.4 81.2495 77.3618 81.6024 77.2904L82.476 81.8029C81.8369 81.9322 81.1762 82 80.5 82Z" fill="#202122"/>
<path d="M87.0986 84.9657C88.6521 85.3095 90.0234 85.773 91.2263 86.3238L88.8605 90.2643C88.0703 89.9415 87.1625 89.6581 86.1204 89.4345L87.0986 84.9657Z" fill="#202122"/>
<path d="M94 102.7V98.1001H98.5V102.7H94Z" fill="#202122"/>
<path d="M98.1385 93.5001H93.1267C92.8484 93.0854 92.4879 92.6496 92.0239 92.2182L94.8107 88.5915C96.566 90.109 97.6306 91.8495 98.1385 93.5001Z" fill="#202122"/>
<path d="M86.1254 63.0435L83.6218 66.8659C84.2372 67.2871 84.7681 67.8297 85.1801 68.4588L88.9194 65.8996C88.1801 64.7709 87.2295 63.7992 86.1254 63.0435Z" fill="#202122"/>
<path d="M90.4322 69.6301L86.0178 70.5231C86.0877 70.8839 86.125 71.2602 86.125 71.65C86.125 72.0398 86.0877 72.4161 86.0178 72.7769L90.4322 73.6699C90.5587 73.0166 90.625 72.3412 90.625 71.65C90.625 70.9588 90.5587 70.2834 90.4322 69.6301Z" fill="#202122"/>
<path d="M88.9194 77.4004L85.1801 74.8412C84.7681 75.4703 84.2372 76.0129 83.6218 76.4341L86.1254 80.2565C87.2295 79.5008 88.1801 78.5291 88.9194 77.4004Z" fill="#202122"/>
</svg>
