<svg width="510" height="256" viewBox="0 0 510 256" fill="none" xmlns="http://www.w3.org/2000/svg">
<rect width="510" height="256" fill="#DCE3F9"/>
<rect x="36" y="53" width="301" height="170" fill="white"/>
<rect x="48" y="134" width="187" height="8" fill="#C8CCD1"/>
<rect x="48" y="198" width="187" height="8" fill="#C8CCD1"/>
<rect x="48" y="104" width="77" height="12" fill="#C8CCD1"/>
<rect x="48" y="150" width="197" height="8" fill="#C8CCD1"/>
<rect x="48" y="166" width="166" height="8" fill="#C8CCD1"/>
<rect x="48" y="182" width="230" height="8" fill="#C8CCD1"/>
<line x1="48" y1="123.5" x2="325" y2="123.5" stroke="#A2A9B1"/>
<rect x="221" y="165" width="69" height="10" rx="3" fill="#C8CCD1" stroke="#3366CC" stroke-width="2"/>
<path opacity="0.5" d="M327.5 73L291 165L476 133L327.5 73Z" fill="#C8CCD1"/>
<rect x="328" y="73" width="149" height="59" rx="1" fill="white" stroke="#C8CCD1" stroke-width="2"/>
<path d="M345.254 103.727C345.254 101.952 345.489 100.321 345.958 98.8338C346.431 97.3423 347.134 95.9645 348.067 94.7003H350.489C350.129 95.169 349.793 95.7443 349.48 96.4261C349.168 97.1032 348.896 97.8466 348.664 98.6562C348.436 99.4612 348.256 100.297 348.124 101.163C347.996 102.03 347.932 102.884 347.932 103.727C347.932 104.849 348.043 105.986 348.266 107.136C348.493 108.287 348.798 109.355 349.182 110.339C349.57 111.32 350.006 112.122 350.489 112.747H348.067C347.134 111.483 346.431 110.107 345.958 108.621C345.489 107.129 345.254 105.498 345.254 103.727ZM462.038 103.727C462.038 105.498 461.801 107.129 461.328 108.621C460.859 110.107 460.158 111.483 459.225 112.747H456.804C457.168 112.278 457.504 111.705 457.812 111.028C458.125 110.351 458.395 109.608 458.622 108.798C458.854 107.989 459.034 107.151 459.162 106.284C459.294 105.418 459.36 104.565 459.36 103.727C459.36 102.605 459.247 101.469 459.02 100.318C458.797 99.1676 458.492 98.0999 458.103 97.1151C457.72 96.1302 457.287 95.3253 456.804 94.7003H459.225C460.158 95.9645 460.859 97.3423 461.328 98.8338C461.801 100.321 462.038 101.952 462.038 103.727Z" fill="#202122"/>
<path d="M358.314 96.4545V111H355.679V99.0185H355.594L352.192 101.192V98.777L355.807 96.4545H358.314ZM366.997 96.2557C367.693 96.2604 368.37 96.3835 369.028 96.625C369.691 96.8617 370.288 97.25 370.818 97.7898C371.348 98.3248 371.77 99.0421 372.082 99.9418C372.395 100.841 372.551 101.954 372.551 103.28C372.556 104.53 372.423 105.647 372.153 106.632C371.888 107.612 371.507 108.441 371.01 109.118C370.513 109.795 369.914 110.311 369.213 110.666C368.512 111.021 367.724 111.199 366.848 111.199C365.929 111.199 365.115 111.019 364.405 110.659C363.699 110.299 363.129 109.807 362.693 109.182C362.257 108.557 361.99 107.842 361.89 107.037H364.483C364.615 107.615 364.885 108.074 365.292 108.415C365.704 108.751 366.223 108.919 366.848 108.919C367.856 108.919 368.633 108.481 369.177 107.605C369.722 106.729 369.994 105.512 369.994 103.955H369.895C369.663 104.371 369.362 104.731 368.993 105.034C368.623 105.332 368.204 105.562 367.736 105.723C367.272 105.884 366.779 105.964 366.258 105.964C365.406 105.964 364.639 105.761 363.957 105.354C363.28 104.946 362.743 104.388 362.345 103.678C361.952 102.967 361.753 102.155 361.748 101.241C361.748 100.295 361.966 99.4446 362.402 98.6918C362.842 97.9342 363.455 97.3376 364.241 96.902C365.027 96.4616 365.946 96.2462 366.997 96.2557ZM367.004 98.3864C366.493 98.3864 366.031 98.5118 365.619 98.7628C365.212 99.009 364.89 99.3452 364.653 99.7713C364.421 100.193 364.305 100.664 364.305 101.185C364.31 101.701 364.426 102.17 364.653 102.591C364.885 103.012 365.2 103.346 365.598 103.592C366 103.839 366.46 103.962 366.976 103.962C367.359 103.962 367.717 103.888 368.048 103.741C368.38 103.595 368.668 103.391 368.915 103.131C369.166 102.866 369.36 102.565 369.497 102.229C369.639 101.893 369.708 101.537 369.703 101.163C369.703 100.666 369.585 100.207 369.348 99.7855C369.116 99.3641 368.796 99.0256 368.389 98.7699C367.987 98.5142 367.525 98.3864 367.004 98.3864ZM374.856 111V109.097L379.906 104.146C380.389 103.659 380.791 103.225 381.113 102.847C381.435 102.468 381.677 102.101 381.838 101.746C381.999 101.391 382.079 101.012 382.079 100.609C382.079 100.15 381.975 99.7571 381.767 99.4304C381.558 99.099 381.272 98.8433 380.907 98.6634C380.543 98.4834 380.128 98.3935 379.664 98.3935C379.186 98.3935 378.767 98.4929 378.407 98.6918C378.047 98.8859 377.768 99.1629 377.569 99.5227C377.375 99.8826 377.278 100.311 377.278 100.808H374.771C374.771 99.8849 374.982 99.0824 375.403 98.4006C375.824 97.7187 376.404 97.1908 377.143 96.8168C377.886 96.4427 378.739 96.2557 379.7 96.2557C380.675 96.2557 381.532 96.438 382.271 96.8026C383.009 97.1671 383.582 97.6667 383.99 98.3011C384.402 98.9356 384.607 99.66 384.607 100.474C384.607 101.019 384.503 101.554 384.295 102.08C384.087 102.605 383.72 103.187 383.194 103.827C382.673 104.466 381.942 105.24 381 106.149L378.492 108.699V108.798H384.828V111H374.856ZM388.83 111.156C388.399 111.156 388.03 111.005 387.722 110.702C387.414 110.399 387.263 110.029 387.268 109.594C387.263 109.168 387.414 108.803 387.722 108.5C388.03 108.197 388.399 108.045 388.83 108.045C389.247 108.045 389.609 108.197 389.917 108.5C390.229 108.803 390.388 109.168 390.393 109.594C390.388 109.883 390.312 110.145 390.165 110.382C390.023 110.619 389.834 110.808 389.597 110.95C389.365 111.088 389.109 111.156 388.83 111.156ZM397.078 96.4545V111H394.443V99.0185H394.358L390.956 101.192V98.777L394.571 96.4545H397.078ZM406.038 111.199C405.342 111.194 404.662 111.073 404 110.837C403.337 110.595 402.74 110.205 402.21 109.665C401.679 109.12 401.258 108.398 400.946 107.499C400.633 106.594 400.479 105.474 400.484 104.139C400.484 102.894 400.617 101.784 400.882 100.808C401.147 99.8329 401.528 99.009 402.025 98.3366C402.522 97.6596 403.121 97.1435 403.822 96.7884C404.527 96.4332 405.316 96.2557 406.187 96.2557C407.101 96.2557 407.911 96.4356 408.616 96.7955C409.326 97.1553 409.899 97.6477 410.335 98.2727C410.77 98.893 411.04 99.5938 411.144 100.375H408.552C408.42 99.8163 408.147 99.3712 407.735 99.0398C407.328 98.7036 406.812 98.5355 406.187 98.5355C405.179 98.5355 404.402 98.9735 403.858 99.8494C403.318 100.725 403.045 101.928 403.041 103.457H403.14C403.372 103.041 403.673 102.683 404.042 102.385C404.411 102.087 404.828 101.857 405.292 101.696C405.761 101.53 406.256 101.447 406.777 101.447C407.629 101.447 408.393 101.651 409.071 102.058C409.752 102.465 410.292 103.027 410.69 103.741C411.088 104.452 411.284 105.266 411.279 106.185C411.284 107.141 411.066 108 410.626 108.763C410.186 109.52 409.572 110.117 408.786 110.553C408.001 110.988 407.084 111.204 406.038 111.199ZM406.024 109.068C406.54 109.068 407.001 108.943 407.409 108.692C407.816 108.441 408.138 108.102 408.375 107.676C408.611 107.25 408.727 106.772 408.723 106.241C408.727 105.721 408.614 105.25 408.382 104.828C408.154 104.407 407.84 104.073 407.437 103.827C407.035 103.58 406.575 103.457 406.059 103.457C405.676 103.457 405.318 103.531 404.987 103.678C404.655 103.824 404.367 104.028 404.12 104.288C403.874 104.544 403.68 104.842 403.538 105.183C403.401 105.519 403.33 105.879 403.325 106.263C403.33 106.769 403.448 107.236 403.68 107.662C403.912 108.088 404.232 108.429 404.639 108.685C405.046 108.94 405.508 109.068 406.024 109.068ZM418.79 111.199C417.735 111.199 416.797 111.021 415.978 110.666C415.164 110.311 414.524 109.826 414.06 109.21C413.601 108.59 413.374 107.887 413.378 107.101C413.374 106.49 413.506 105.929 413.776 105.418C414.046 104.906 414.411 104.48 414.87 104.139C415.334 103.794 415.85 103.573 416.418 103.479V103.379C415.67 103.214 415.064 102.832 414.6 102.236C414.141 101.634 413.914 100.941 413.918 100.155C413.914 99.4067 414.122 98.7391 414.543 98.152C414.965 97.5649 415.542 97.1032 416.276 96.767C417.01 96.4261 417.848 96.2557 418.79 96.2557C419.723 96.2557 420.554 96.4261 421.283 96.767C422.017 97.1032 422.595 97.5649 423.016 98.152C423.442 98.7391 423.655 99.4067 423.655 100.155C423.655 100.941 423.421 101.634 422.952 102.236C422.488 102.832 421.889 103.214 421.155 103.379V103.479C421.724 103.573 422.235 103.794 422.69 104.139C423.149 104.48 423.513 104.906 423.783 105.418C424.058 105.929 424.195 106.49 424.195 107.101C424.195 107.887 423.963 108.59 423.499 109.21C423.035 109.826 422.396 110.311 421.582 110.666C420.772 111.021 419.842 111.199 418.79 111.199ZM418.79 109.168C419.335 109.168 419.808 109.075 420.211 108.891C420.613 108.701 420.926 108.436 421.148 108.095C421.371 107.754 421.485 107.361 421.489 106.916C421.485 106.452 421.364 106.043 421.127 105.688C420.895 105.328 420.575 105.046 420.168 104.842C419.766 104.639 419.307 104.537 418.79 104.537C418.27 104.537 417.806 104.639 417.398 104.842C416.991 105.046 416.669 105.328 416.432 105.688C416.2 106.043 416.087 106.452 416.092 106.916C416.087 107.361 416.196 107.754 416.418 108.095C416.641 108.431 416.953 108.694 417.356 108.884C417.763 109.073 418.241 109.168 418.79 109.168ZM418.79 102.541C419.235 102.541 419.628 102.451 419.969 102.271C420.315 102.091 420.587 101.84 420.786 101.518C420.985 101.196 421.087 100.825 421.092 100.403C421.087 99.9867 420.987 99.6222 420.793 99.3097C420.599 98.9924 420.329 98.7486 419.984 98.5781C419.638 98.4029 419.24 98.3153 418.79 98.3153C418.331 98.3153 417.926 98.4029 417.576 98.5781C417.23 98.7486 416.96 98.9924 416.766 99.3097C416.577 99.6222 416.485 99.9867 416.489 100.403C416.485 100.825 416.579 101.196 416.773 101.518C416.972 101.836 417.244 102.087 417.59 102.271C417.941 102.451 418.341 102.541 418.79 102.541ZM427.653 111.156C427.222 111.156 426.852 111.005 426.545 110.702C426.237 110.399 426.085 110.029 426.09 109.594C426.085 109.168 426.237 108.803 426.545 108.5C426.852 108.197 427.222 108.045 427.653 108.045C428.069 108.045 428.432 108.197 428.739 108.5C429.052 108.803 429.21 109.168 429.215 109.594C429.21 109.883 429.135 110.145 428.988 110.382C428.846 110.619 428.656 110.808 428.42 110.95C428.188 111.088 427.932 111.156 427.653 111.156ZM436.591 111.277C435.422 111.277 434.418 110.981 433.58 110.389C432.747 109.793 432.105 108.933 431.655 107.811C431.21 106.684 430.988 105.328 430.988 103.741C430.992 102.155 431.217 100.806 431.662 99.6932C432.112 98.5758 432.754 97.7235 433.587 97.1364C434.425 96.5492 435.426 96.2557 436.591 96.2557C437.756 96.2557 438.757 96.5492 439.595 97.1364C440.434 97.7235 441.075 98.5758 441.52 99.6932C441.97 100.811 442.195 102.16 442.195 103.741C442.195 105.332 441.97 106.691 441.52 107.818C441.075 108.94 440.434 109.797 439.595 110.389C438.762 110.981 437.761 111.277 436.591 111.277ZM436.591 109.054C437.5 109.054 438.218 108.607 438.743 107.712C439.274 106.812 439.539 105.489 439.539 103.741C439.539 102.586 439.418 101.616 439.176 100.83C438.935 100.044 438.594 99.4517 438.154 99.054C437.713 98.6515 437.193 98.4503 436.591 98.4503C435.687 98.4503 434.972 98.9001 434.446 99.7997C433.921 100.695 433.656 102.009 433.651 103.741C433.646 104.902 433.762 105.877 433.999 106.668C434.24 107.458 434.581 108.055 435.022 108.457C435.462 108.855 435.985 109.054 436.591 109.054ZM445.54 111.156C445.11 111.156 444.74 111.005 444.433 110.702C444.125 110.399 443.973 110.029 443.978 109.594C443.973 109.168 444.125 108.803 444.433 108.5C444.74 108.197 445.11 108.045 445.54 108.045C445.957 108.045 446.319 108.197 446.627 108.5C446.94 108.803 447.098 109.168 447.103 109.594C447.098 109.883 447.022 110.145 446.876 110.382C446.734 110.619 446.544 110.808 446.308 110.95C446.075 111.088 445.82 111.156 445.54 111.156ZM453.788 96.4545V111H451.153V99.0185H451.068L447.666 101.192V98.777L451.281 96.4545H453.788Z" fill="#3366CC"/>
<g filter="url(#filter0_dd_3484_9471)">
<path fill-rule="evenodd" clip-rule="evenodd" d="M417.99 143.147C417.99 142.031 417.106 141.127 416.017 141.127C414.93 141.127 414.049 142.027 414.046 143.14V141.729C414.046 140.266 412.862 139.079 411.401 139.079C409.94 139.079 408.777 140.266 408.777 141.729V139.682C408.777 138.218 407.578 137.032 406.123 137.032C404.669 137.032 403.51 138.219 403.51 139.682V124.435C403.51 123.09 402.458 122 401.186 122C399.915 122 398.883 123.091 398.883 124.435V150.124L392.948 142.165C392.378 141.164 391.092 140.835 390.077 141.429C389.061 142.023 388.7 143.317 389.27 144.318C389.27 144.318 393.912 151.781 395.806 154.727C397.701 157.674 400.811 161.308 400.811 163C403.134 163 410.553 163 413.974 163C413.974 160.144 418 155.682 418 151.386C418 147.089 418 145.853 418 145.853L417.99 143.147Z" fill="white"/>
<path d="M414.495 141.161C414.228 139.693 412.945 138.579 411.401 138.579C410.571 138.579 409.823 138.901 409.267 139.425C409.135 137.804 407.766 136.532 406.123 136.532C405.302 136.532 404.562 136.849 404.01 137.365V124.435C404.01 122.834 402.754 121.5 401.186 121.5C399.613 121.5 398.383 122.841 398.383 124.435V148.618L393.366 141.89C392.645 140.66 391.062 140.273 389.825 140.997L389.824 140.997C388.581 141.725 388.125 143.318 388.836 144.565L388.841 144.573L388.846 144.582L389.27 144.318C388.846 144.582 388.846 144.582 388.846 144.582L388.846 144.582L388.847 144.583L388.849 144.587L388.859 144.603L388.898 144.666L389.049 144.908C389.18 145.118 389.368 145.421 389.601 145.794C390.066 146.54 390.705 147.565 391.404 148.683C392.801 150.916 394.436 153.521 395.386 154.998C395.949 155.874 396.634 156.831 397.304 157.768C397.759 158.404 398.207 159.031 398.606 159.616C399.11 160.355 399.544 161.04 399.851 161.637C400.166 162.25 400.311 162.704 400.311 163V163.5H400.811H400.825H400.838H400.852H400.866H400.88H400.895H400.909H400.924H400.938H400.953H400.968H400.983H400.998H401.013H401.028H401.043H401.059H401.074H401.09H401.106H401.122H401.138H401.154H401.17H401.187H401.203H401.22H401.236H401.253H401.27H401.287H401.304H401.321H401.338H401.356H401.373H401.391H401.409H401.426H401.444H401.462H401.48H401.499H401.517H401.535H401.554H401.572H401.591H401.61H401.629H401.648H401.667H401.686H401.705H401.725H401.744H401.764H401.783H401.803H401.823H401.843H401.863H401.883H401.903H401.923H401.944H401.964H401.985H402.006H402.026H402.047H402.068H402.089H402.11H402.131H402.153H402.174H402.195H402.217H402.238H402.26H402.282H402.304H402.326H402.348H402.37H402.392H402.414H402.437H402.459H402.481H402.504H402.527H402.549H402.572H402.595H402.618H402.641H402.664H402.688H402.711H402.734H402.758H402.781H402.805H402.828H402.852H402.876H402.9H402.924H402.948H402.972H402.996H403.02H403.044H403.069H403.093H403.118H403.142H403.167H403.192H403.217H403.241H403.266H403.291H403.316H403.341H403.367H403.392H403.417H403.443H403.468H403.493H403.519H403.545H403.57H403.596H403.622H403.648H403.674H403.7H403.726H403.752H403.778H403.804H403.83H403.857H403.883H403.91H403.936H403.963H403.989H404.016H404.043H404.07H404.096H404.123H404.15H404.177H404.204H404.231H404.258H404.286H404.313H404.34H404.368H404.395H404.422H404.45H404.477H404.505H404.533H404.56H404.588H404.616H404.644H404.672H404.699H404.727H404.755H404.783H404.812H404.84H404.868H404.896H404.924H404.953H404.981H405.009H405.038H405.066H405.095H405.123H405.152H405.18H405.209H405.238H405.266H405.295H405.324H405.353H405.382H405.411H405.44H405.468H405.497H405.526H405.556H405.585H405.614H405.643H405.672H405.701H405.731H405.76H405.789H405.819H405.848H405.877H405.907H405.936H405.966H405.995H406.025H406.054H406.084H406.113H406.143H406.173H406.202H406.232H406.262H406.291H406.321H406.351H406.381H406.411H406.441H406.47H406.5H406.53H406.56H406.59H406.62H406.65H406.68H406.71H406.74H406.77H406.8H406.83H406.86H406.89H406.921H406.951H406.981H407.011H407.041H407.071H407.101H407.132H407.162H407.192H407.222H407.253H407.283H407.313H407.343H407.374H407.404H407.434H407.465H407.495H407.525H407.555H407.586H407.616H407.646H407.677H407.707H407.737H407.768H407.798H407.828H407.859H407.889H407.919H407.95H407.98H408.01H408.041H408.071H408.101H408.132H408.162H408.192H408.223H408.253H408.283H408.314H408.344H408.374H408.405H408.435H408.465H408.496H408.526H408.556H408.586H408.617H408.647H408.677H408.707H408.737H408.768H408.798H408.828H408.858H408.888H408.918H408.948H408.979H409.009H409.039H409.069H409.099H409.129H409.159H409.189H409.219H409.249H409.279H409.309H409.339H409.368H409.398H409.428H409.458H409.488H409.518H409.547H409.577H409.607H409.636H409.666H409.696H409.725H409.755H409.785H409.814H409.844H409.873H409.903H409.932H409.961H409.991H410.02H410.05H410.079H410.108H410.137H410.167H410.196H410.225H410.254H410.283H410.312H410.341H410.37H410.399H410.428H410.457H410.486H410.515H410.543H410.572H410.601H410.63H410.658H410.687H410.715H410.744H410.772H410.801H410.829H410.858H410.886H410.914H410.942H410.971H410.999H411.027H411.055H411.083H411.111H411.139H411.167H411.195H411.223H411.25H411.278H411.306H411.333H411.361H411.388H411.416H411.443H411.471H411.498H411.525H411.553H411.58H411.607H411.634H411.661H411.688H411.715H411.742H411.769H411.795H411.822H411.849H411.875H411.902H411.928H411.955H411.981H412.008H412.034H412.06H412.086H412.112H412.138H412.164H412.19H412.216H412.242H412.268H412.293H412.319H412.345H412.37H412.395H412.421H412.446H412.471H412.496H412.522H412.547H412.572H412.596H412.621H412.646H412.671H412.695H412.72H412.744H412.769H412.793H412.818H412.842H412.866H412.89H412.914H412.938H412.962H412.986H413.009H413.033H413.057H413.08H413.103H413.127H413.15H413.173H413.196H413.219H413.242H413.265H413.288H413.311H413.333H413.356H413.378H413.401H413.423H413.445H413.468H413.49H413.512H413.534H413.555H413.577H413.599H413.62H413.642H413.663H413.685H413.706H413.727H413.748H413.769H413.79H413.811H413.832H413.852H413.873H413.893H413.914H413.934H413.954H413.974H414.474V163C414.474 162.39 414.692 161.653 415.063 160.78C415.357 160.09 415.728 159.357 416.123 158.574C416.226 158.372 416.329 158.166 416.434 157.957C417.435 155.959 418.5 153.669 418.5 151.386V151.361V151.336V151.311V151.286V151.261V151.237V151.212V151.187V151.163V151.138V151.114V151.089V151.065V151.041V151.017V150.992V150.968V150.944V150.921V150.897V150.873V150.849V150.826V150.802V150.779V150.755V150.732V150.709V150.685V150.662V150.639V150.616V150.593V150.57V150.547V150.525V150.502V150.479V150.457V150.434V150.412V150.39V150.367V150.345V150.323V150.301V150.279V150.257V150.235V150.213V150.192V150.17V150.148V150.127V150.105V150.084V150.063V150.041V150.02V149.999V149.978V149.957V149.936V149.915V149.894V149.873V149.853V149.832V149.811V149.791V149.77V149.75V149.73V149.709V149.689V149.669V149.649V149.629V149.609V149.589V149.57V149.55V149.53V149.51V149.491V149.471V149.452V149.433V149.413V149.394V149.375V149.356V149.337V149.318V149.299V149.28V149.261V149.242V149.224V149.205V149.187V149.168V149.15V149.131V149.113V149.095V149.077V149.059V149.04V149.022V149.005V148.987V148.969V148.951V148.933V148.916V148.898V148.881V148.863V148.846V148.829V148.811V148.794V148.777V148.76V148.743V148.726V148.709V148.692V148.675V148.659V148.642V148.625V148.609V148.592V148.576V148.559V148.543V148.527V148.511V148.494V148.478V148.462V148.446V148.431V148.415V148.399V148.383V148.367V148.352V148.336V148.321V148.305V148.29V148.275V148.259V148.244V148.229V148.214V148.199V148.184V148.169V148.154V148.139V148.124V148.11V148.095V148.081V148.066V148.052V148.037V148.023V148.008V147.994V147.98V147.966V147.952V147.938V147.924V147.91V147.896V147.882V147.868V147.855V147.841V147.828V147.814V147.801V147.787V147.774V147.76V147.747V147.734V147.721V147.708V147.695V147.682V147.669V147.656V147.643V147.63V147.618V147.605V147.592V147.58V147.567V147.555V147.542V147.53V147.518V147.505V147.493V147.481V147.469V147.457V147.445V147.433V147.421V147.409V147.398V147.386V147.374V147.363V147.351V147.34V147.328V147.317V147.305V147.294V147.283V147.272V147.261V147.249V147.238V147.227V147.216V147.206V147.195V147.184V147.173V147.163V147.152V147.141V147.131V147.12V147.11V147.099V147.089V147.079V147.069V147.058V147.048V147.038V147.028V147.018V147.008V146.998V146.988V146.979V146.969V146.959V146.95V146.94V146.93V146.921V146.912V146.902V146.893V146.883V146.874V146.865V146.856V146.847V146.838V146.829V146.82V146.811V146.802V146.793V146.784V146.775V146.767V146.758V146.75V146.741V146.733V146.724V146.716V146.707V146.699V146.691V146.682V146.674V146.666V146.658V146.65V146.642V146.634V146.626V146.618V146.611V146.603V146.595V146.587V146.58V146.572V146.565V146.557V146.55V146.542V146.535V146.528V146.52V146.513V146.506V146.499V146.492V146.485V146.478V146.471V146.464V146.457V146.45V146.443V146.437V146.43V146.423V146.417V146.41V146.404V146.397V146.391V146.384V146.378V146.372V146.365V146.359V146.353V146.347V146.341V146.335V146.329V146.323V146.317V146.311V146.305V146.299V146.293V146.288V146.282V146.276V146.271V146.265V146.26V146.254V146.249V146.244V146.238V146.233V146.228V146.222V146.217V146.212V146.207V146.202V146.197V146.192V146.187V146.182V146.177V146.172V146.168V146.163V146.158V146.153V146.149V146.144V146.14V146.135V146.131V146.126V146.122V146.118V146.113V146.109V146.105V146.101V146.096V146.092V146.088V146.084V146.08V146.076V146.072V146.068V146.065V146.061V146.057V146.053V146.05V146.046V146.042V146.039V146.035V146.032V146.028V146.025V146.021V146.018V146.015V146.011V146.008V146.005V146.002V145.999V145.995V145.992V145.989V145.986V145.983V145.98V145.978V145.975V145.972V145.969V145.966V145.964V145.961V145.958V145.956V145.953V145.951V145.948V145.946V145.943V145.941V145.938V145.936V145.934V145.931V145.929V145.927V145.925V145.923V145.921V145.919V145.917V145.915V145.913V145.911V145.909V145.907V145.905V145.903V145.901V145.9V145.898V145.896V145.895V145.893V145.892V145.89V145.889V145.887V145.886V145.884V145.883V145.882V145.88V145.879V145.878V145.877V145.875V145.874V145.873V145.872V145.871V145.87V145.869V145.868V145.867V145.866V145.865V145.864V145.864V145.863V145.862V145.861V145.861V145.86V145.859V145.859V145.858V145.858V145.857V145.857V145.856V145.856V145.855V145.855V145.855V145.854V145.854V145.854V145.854V145.854V145.853V145.853V145.853V145.853V145.853L418 145.853H418.5L418.5 145.851L418.49 143.147C418.49 143.147 418.49 143.147 418.49 143.146L418.49 143.145L417.99 143.147C417.99 142.031 417.106 141.127 416.017 141.127C415.432 141.127 414.907 141.387 414.546 141.802L414.495 141.161Z" stroke="#101418"/>
</g>
<defs>
<filter id="filter0_dd_3484_9471" x="384.999" y="120" width="37.0008" height="49" filterUnits="userSpaceOnUse" color-interpolation-filters="sRGB">
<feFlood flood-opacity="0" result="BackgroundImageFix"/>
<feColorMatrix in="SourceAlpha" type="matrix" values="0 0 0 0 0 0 0 0 0 0 0 0 0 0 0 0 0 0 127 0" result="hardAlpha"/>
<feOffset dy="1"/>
<feGaussianBlur stdDeviation="0.5"/>
<feColorMatrix type="matrix" values="0 0 0 0 0 0 0 0 0 0 0 0 0 0 0 0 0 0 0.582909 0"/>
<feBlend mode="normal" in2="BackgroundImageFix" result="effect1_dropShadow_3484_9471"/>
<feColorMatrix in="SourceAlpha" type="matrix" values="0 0 0 0 0 0 0 0 0 0 0 0 0 0 0 0 0 0 127 0" result="hardAlpha"/>
<feOffset dy="2"/>
<feGaussianBlur stdDeviation="1.5"/>
<feColorMatrix type="matrix" values="0 0 0 0 0 0 0 0 0 0 0 0 0 0 0 0 0 0 0.179348 0"/>
<feBlend mode="normal" in2="effect1_dropShadow_3484_9471" result="effect2_dropShadow_3484_9471"/>
<feBlend mode="normal" in="SourceGraphic" in2="effect2_dropShadow_3484_9471" result="shape"/>
</filter>
</defs>
</svg>
