<?xml version="1.0" encoding="UTF-8"?>
<svg xmlns="http://www.w3.org/2000/svg" width="296" height="164" fill="none">
	<path fill="#fff" d="M0 0h296v164H0z"/>
	<path fill="#A2A9B1" d="M111.192 62.572H77.475c-.262 0-.475.24-.475.536 0 .296.213.536.475.536h33.717c.262 0 .475-.24.475-.536 0-.296-.213-.536-.475-.536ZM89.84 80H77.16c-.088 0-.16.224-.16.5s.072.5.16.5h12.68c.088 0 .16-.224.16-.5s-.072-.5-.16-.5Zm-4.683 10.43H77.51a.522.522 0 0 0-.51.535c0 .296.228.536.51.536h7.647c.281 0 .51-.24.51-.536a.523.523 0 0 0-.51-.536Zm0 10.713H77.51c-.282 0-.51.24-.51.536 0 .296.228.536.51.536h7.647c.281 0 .51-.24.51-.536a.523.523 0 0 0-.51-.536ZM128.49 90.43h-7.647a.523.523 0 0 0-.51.535c0 .296.229.536.51.536h7.647c.282 0 .51-.24.51-.536a.523.523 0 0 0-.51-.536Zm0 10.713h-7.647c-.281 0-.51.24-.51.536 0 .296.229.536.51.536h7.647c.282 0 .51-.24.51-.536a.523.523 0 0 0-.51-.536Zm-9.868-10.713H87.378c-.261 0-.473.239-.473.535 0 .296.212.536.473.536h31.244c.261 0 .473-.24.473-.536 0-.296-.212-.536-.473-.536Zm0 10.713H87.378c-.261 0-.473.24-.473.536 0 .296.212.536.473.536h31.244c.261 0 .473-.24.473-.536 0-.296-.212-.536-.473-.536ZM115.583 80h12.834c.322 0 .583.224.583.5s-.261.5-.583.5h-12.834c-.322 0-.583-.224-.583-.5s.261-.5.583-.5Zm13.12-4h-10.406c-.164 0-.297.224-.297.5s.133.5.297.5h10.406c.164 0 .297-.224.297-.5s-.133-.5-.297-.5Zm-40.919 0H77.216c-.12 0-.216.224-.216.5s.097.5.216.5h10.568c.12 0 .216-.224.216-.5s-.097-.5-.216-.5Zm40.735 19.787H77.481c-.265 0-.481.24-.481.535 0 .296.216.536.481.536h51.038c.265 0 .481-.24.481-.536 0-.296-.216-.535-.481-.535Zm0 10.713H77.481c-.265 0-.481.24-.481.536 0 .296.216.536.481.536h51.038c.265 0 .481-.24.481-.536 0-.296-.216-.536-.481-.536Zm0-21.428H77.481c-.265 0-.481.24-.481.536 0 .296.216.536.481.536h51.038c.265 0 .481-.24.481-.536 0-.296-.216-.536-.481-.536Zm-27.243-27.857h-23.79c-.269 0-.486.24-.486.535 0 .296.217.536.486.536h23.79c.269 0 .486-.24.486-.535 0-.296-.217-.536-.486-.536Z"/>
	<path fill="#72777D" d="m93 76.121 6.372 2.529v-1.652l-4.304-1.558v-.073l4.304-1.558v-1.652L93 74.686v1.435ZM105.323 70h-1.661l-2.986 10h1.66l2.987-10ZM113 76.121v-1.435l-6.372-2.529v1.652l4.304 1.558v.073l-4.304 1.558v1.652L113 76.121Z"/>
	<g filter="url(#filter0_d_658_7101)">
		<path fill="#000" d="m167 81.685.119-31.257a.713.713 0 0 1 .715-.713h39.39v5.876c0 .392.319.71.71.71h5.804v56.775c0 .393-.193.46-.452.167 0 0-.543-.897-1.59-.897-1.048 0-.953.825-1.878 1.083-.926.257-.928-1.083-1.919-1.083-.992 0-1.046 1.083-1.99 1.083s-.882-1.083-1.914-1.083-1.132 1.083-2.038 1.083c-.906 0-.878-1.083-1.939-1.083s-1.056 1.083-1.994 1.083-.873-1.083-1.865-1.083-.954.826-1.913 1.083c-.958.257-1.129-1.083-2.087-1.083-.958 0-1.03 1.083-1.953 1.083-.924 0-.775-1.083-1.8-1.083-1.024 0-1.139 1.083-2.096 1.083-.958 0-1.04-1.083-2.037-1.083-.997 0-.889 1.083-1.872 1.083-.983 0-1.019-1.083-1.998-1.083-.978 0-.962 1.083-1.925 1.083-.962 0-.918-1.083-1.95-1.083-1.033 0-1.072 1.083-2.039 1.083-.967 0-.882-1.083-1.728-1.083s-1.199 1.372-2.122 1.083c-.923-.289-.817-1.083-1.848-1.083-1.03 0-1.395.855-1.395.855-.219.324-.396.266-.396-.124V81.685Z"/>
		<path stroke="#72777D" stroke-width="1.082" d="M167.541 81.686v-.001l.118-31.255a.177.177 0 0 1 .174-.174h38.85v5.335c0 .69.561 1.252 1.251 1.252h5.263v55.509a2.361 2.361 0 0 0-1.501-.546c-.338 0-.618.067-.86.196-.234.124-.399.29-.52.42a4.358 4.358 0 0 0-.071.076c-.2.216-.312.337-.572.41-.093.025-.111.007-.123-.001-.052-.031-.114-.097-.243-.259l-.038-.049c-.22-.281-.621-.793-1.37-.793-.736 0-1.139.426-1.395.698l-.011.012c-.269.284-.371.372-.584.372-.197 0-.27-.068-.513-.352l-.003-.004c-.112-.131-.274-.321-.499-.468a1.586 1.586 0 0 0-.899-.258c-.754 0-1.176.423-1.451.702-.293.296-.392.38-.587.38-.176 0-.243-.061-.506-.358a2.425 2.425 0 0 0-.521-.472 1.665 1.665 0 0 0-.912-.252c-.775 0-1.178.429-1.441.715-.267.29-.351.367-.553.367-.191 0-.263-.065-.496-.346l-.007-.009c-.107-.128-.264-.317-.478-.464a1.523 1.523 0 0 0-.884-.263c-.329 0-.602.07-.839.197a2.17 2.17 0 0 0-.515.409 2.725 2.725 0 0 0-.054.055c-.218.223-.353.361-.645.439-.102.028-.151.012-.198-.014-.078-.042-.165-.121-.31-.277a2.001 2.001 0 0 1-.057-.063c-.248-.271-.682-.746-1.382-.746-.719 0-1.119.428-1.369.695l-.016.017c-.267.286-.368.37-.568.37-.11 0-.158-.027-.197-.057-.064-.049-.119-.119-.235-.271l-.002-.004c-.1-.131-.251-.329-.471-.483a1.515 1.515 0 0 0-.895-.267c-.741 0-1.165.414-1.443.687l-.009.008c-.292.286-.413.387-.644.387-.227 0-.341-.096-.618-.379l-.014-.014c-.264-.27-.674-.689-1.405-.689-.36 0-.648.101-.885.266a2.315 2.315 0 0 0-.464.46l-.012.014c-.119.146-.183.22-.256.272a.406.406 0 0 1-.255.07c-.238 0-.349-.096-.606-.371l-.021-.021c-.25-.268-.647-.69-1.371-.69-.736 0-1.12.435-1.359.707l-.015.017c-.243.276-.335.358-.551.358-.213 0-.296-.078-.543-.358l-.005-.006a2.441 2.441 0 0 0-.503-.462 1.605 1.605 0 0 0-.899-.256c-.755 0-1.163.424-1.428.701l-.006.006c-.271.282-.377.375-.605.375a.38.38 0 0 1-.244-.068 1.218 1.218 0 0 1-.235-.259 2.41 2.41 0 0 0-.033-.045c-.188-.251-.531-.71-1.216-.71-.37 0-.662.153-.882.316a4.389 4.389 0 0 0-.461.419l-.07.071c-.325.322-.423.34-.547.301l-.001-.001c-.265-.083-.379-.207-.571-.417l-.077-.084a1.915 1.915 0 0 0-.514-.414 1.763 1.763 0 0 0-.847-.191c-.54 0-.953.181-1.25.401V81.686Z"/>
	</g>
	<path fill="#fff" stroke="#72777D" stroke-linecap="round" stroke-width="1.082" d="m167 81.685.119-31.257a.713.713 0 0 1 .715-.713h39.39v5.876c0 .392.319.71.71.71h5.804v56.775c0 .393-.193.46-.452.167 0 0-.543-.897-1.59-.897-1.048 0-.953.825-1.878 1.083-.926.257-.928-1.083-1.919-1.083-.992 0-1.046 1.083-1.99 1.083s-.882-1.083-1.914-1.083-1.132 1.083-2.038 1.083c-.906 0-.878-1.083-1.939-1.083s-1.056 1.083-1.994 1.083-.873-1.083-1.865-1.083-.954.826-1.913 1.083c-.958.257-1.129-1.083-2.087-1.083-.958 0-1.03 1.083-1.953 1.083-.924 0-.775-1.083-1.8-1.083-1.024 0-1.139 1.083-2.096 1.083-.958 0-1.04-1.083-2.037-1.083-.997 0-.889 1.083-1.872 1.083-.983 0-1.019-1.083-1.998-1.083-.978 0-.962 1.083-1.925 1.083-.962 0-.918-1.083-1.95-1.083-1.033 0-1.072 1.083-2.039 1.083-.967 0-.882-1.083-1.728-1.083s-1.199 1.372-2.122 1.083c-.923-.289-.817-1.083-1.848-1.083-1.03 0-1.395.855-1.395.855-.219.324-.396.266-.396-.124V81.685v0Z"/>
	<path fill="#C8CCD1" fill-rule="evenodd" stroke="#72777D" stroke-width="1.082" d="M207.584 56.479h5.736c.027-.001.037-.002.066 0 .194 0 .356-.168.356-.383a.389.389 0 0 0-.154-.315l-.046-.04-5.711-5.919a.336.336 0 0 0-.38-.08.385.385 0 0 0-.224.355v6c0 .214.162.382.357.382Z" clip-rule="evenodd"/>
	<g opacity=".35">
		<path fill="#A2A9B1" d="M173.849 61.107c1.786 0 3.234-1.435 3.234-3.204 0-1.77-1.448-3.204-3.234-3.204s-3.234 1.434-3.234 3.204c0 1.77 1.448 3.204 3.234 3.204Z"/>
		<path fill="#A2A9B1" fill-rule="evenodd" d="M198.051 62.175s7.795 5.25 9.549 3.32c1.754-1.933 0 2.803 0 2.803h-15.391m-24.829-3.276s6.212 4.34 14.869 4.34 2.118 2.78 2.118 2.78h-16.969" clip-rule="evenodd"/>
		<path fill="#C8CCD1" fill-rule="evenodd" d="M168.366 72.184s34.027-16.222 29.763-8.057c-4.263 8.164 15.271-1.918 15.271-1.918v9.975" clip-rule="evenodd"/>
	</g>
	<path fill="#F5F5F5" fill-rule="evenodd" d="M167.38 71.787h45.96v.712h-45.96v-.712Z" clip-rule="evenodd"/>
	<path fill="#A2A9B1" d="M196.929 78.55h-25.276a.356.356 0 0 0 0 .712h25.276a.356.356 0 1 0 0-.712Zm2.848 8.544h-28.124a.356.356 0 0 0 0 .712h28.124a.356.356 0 1 0 0-.712Zm-17.444 19.224h-10.68a.357.357 0 0 0 0 .712h10.68a.356.356 0 1 0 0-.712Zm27.054 0h-25.276a.357.357 0 0 0 0 .712h25.276a.356.356 0 1 0 0-.712Zm-32.394-14.24h-5.34a.356.356 0 0 0 0 .712h5.34a.356.356 0 1 0 0-.712Zm32.396 0h-5.34a.356.356 0 1 0 0 .712h5.34a.356.356 0 0 0 0-.712Zm-7.121 0h-23.496a.356.356 0 0 0 0 .712h23.496a.356.356 0 1 0 0-.712Zm-25.275 11.748h-5.34a.357.357 0 0 0 0 .712h5.34a.356.356 0 1 0 0-.712Zm32.754 0h-12.46a.357.357 0 0 0 0 .712h12.46a.356.356 0 1 0 0-.712Zm-14.243 0h-16.732a.357.357 0 0 0 0 .712h16.732a.356.356 0 1 0 0-.712Zm6.053-16.732h7.832a.356.356 0 1 1 0 .712h-7.832a.356.356 0 0 1 0-.712Zm-1.78 12.46h-28.124a.356.356 0 0 0 0 .712h28.124a.356.356 0 1 0 0-.712Zm-4.629-14.952h-4.272a.356.356 0 0 0 0 .712h4.272a.356.356 0 1 0 0-.712Zm14.241 0h-12.46a.356.356 0 0 0 0 .712h12.46a.356.356 0 1 0 0-.712Zm-20.292 0h-17.444a.356.356 0 0 0 0 .712h17.444a.356.356 0 1 0 0-.712Zm20.292 12.46h-37.736a.356.356 0 0 0 0 .712h37.736a.356.356 0 1 0 0-.712Zm0-2.492h-37.736a.356.356 0 0 0 0 .712h37.736a.356.356 0 1 0 0-.712Zm0 14.24h-37.736a.356.356 0 0 0 0 .712h37.736a.356.356 0 0 0 0-.712Zm0-19.224h-37.736a.356.356 0 0 0 0 .712h37.736a.356.356 0 1 0 0-.712Zm-20.29-13.528h-17.444a.356.356 0 1 0 0 .712h17.444a.356.356 0 0 0 0-.712Z"/>
	<path stroke="#36C" stroke-linecap="round" stroke-width="1.071" d="M148 34v35m0 28v36"/>
	<rect width="178.929" height="115.714" x="58.536" y="24.536" stroke="#C8CCD1" stroke-width="1.071" rx="3.75"/>
	<path fill="#36C" fill-rule="evenodd" d="M147 91V75h-2v16h2Zm4 0V75h-2v16h2Zm-11-8 3-3v6l-3-3Zm16 0-3 3v-6l3 3Z" clip-rule="evenodd"/>
	<defs>
		<filter id="filter0_d_658_7101" width="51.043" height="68.059" x="164.847" y="47.562" color-interpolation-filters="sRGB" filterUnits="userSpaceOnUse">
			<feFlood flood-opacity="0" result="BackgroundImageFix"/>
			<feColorMatrix in="SourceAlpha" result="hardAlpha" values="0 0 0 0 0 0 0 0 0 0 0 0 0 0 0 0 0 0 127 0"/>
			<feOffset/>
			<feGaussianBlur stdDeviation="1.076"/>
			<feColorMatrix values="0 0 0 0 0.961 0 0 0 0 0.961 0 0 0 0 0.961 0 0 0 1 0"/>
			<feBlend in2="BackgroundImageFix" result="effect1_dropShadow_658_7101"/>
			<feBlend in="SourceGraphic" in2="effect1_dropShadow_658_7101" result="shape"/>
		</filter>
	</defs>
</svg>
