<?xml version="1.0" encoding="UTF-8"?>
<svg xmlns="http://www.w3.org/2000/svg" width="64" height="64" viewBox="5.5 -3.5 64 64">
	<circle cx="37.785" cy="28.501" r="28.836" fill="none" stroke="#72777d"/>
	<path fill="#72777d" d="M37.441-3.5q13.428 0 22.857 9.372 4.513 4.514 6.857 10.314 2.343 5.8 2.344 12.314-.001 6.572-2.314 12.313-2.315 5.743-6.828 10.143-4.684 4.628-10.629 7.086-5.942 2.457-12.285 2.457c-6.343 0-8.276-.808-12.143-2.429q-5.8-2.428-10.4-7.027t-7-10.372C5.5 34.899 5.5 32.767 5.5 28.5q0-6.343 2.428-12.2t7.057-10.486Q24.127-3.499 37.441-3.5m.116 5.772q-10.971 0-18.458 7.657-3.772 3.829-5.8 8.6a25.2 25.2 0 0 0-2.029 9.972q-.001 5.144 2.029 9.913 2.029 4.774 5.8 8.516t8.515 5.715a25.7 25.7 0 0 0 9.943 1.971q5.14.001 9.973-1.999 4.827-2.001 8.713-5.771 7.485-7.313 7.484-18.344 0-5.314-1.943-10.057-1.941-4.742-5.654-8.458-7.718-7.715-18.573-7.715m-.401 20.915-4.287 2.229q-.686-1.428-1.685-2-1-.57-1.858-.571-4.285 0-4.286 5.657 0 2.57 1.085 4.113 1.086 1.544 3.201 1.544 2.8 0 3.944-2.743l3.942 2q-1.257 2.344-3.486 3.686-2.227 1.343-4.914 1.343-4.286.001-6.915-2.629-2.628-2.628-2.628-7.313 0-4.571 2.657-7.257t6.715-2.686q5.944-.002 8.515 4.627m18.457 0-4.229 2.229q-.686-1.428-1.686-2-1.003-.57-1.914-.571-4.286 0-4.287 5.657 0 2.57 1.086 4.113 1.084 1.544 3.201 1.544 2.799 0 3.941-2.743l4 2q-1.314 2.344-3.541 3.686a9.23 9.23 0 0 1-4.857 1.343q-4.343.001-6.941-2.629-2.603-2.628-2.602-7.313 0-4.571 2.658-7.257 2.655-2.685 6.713-2.686 5.944-.002 8.458 4.627"/>
</svg>
