<?xml version="1.0" encoding="UTF-8"?>
<svg xmlns="http://www.w3.org/2000/svg" width="24" height="24" viewBox="0 0 24 24">
	<path fill-opacity=".51" d="M9.944.006a1.62 1.62 0 0 0-1.157.469 1.62 1.62 0 0 0-.468 1.156v7.875h-4s.006.025 0 .031c-.006.007-.031 0-.032 0 0 0 .005.029 0 .032-.004.003-.03 0-.03 0-.004.003-.028-.004-.032 0h-.031V9.6c-.004.003-.028-.004-.032 0 0 0 .008.028 0 .031-.007.004-.03 0-.03 0s-.005.025 0 .031c-.012-.005-.032 0-.032 0h-.031s-.004.025 0 .032h-.032s-.004.024 0 .031c0 0 .005.029 0 .031l-.03.031s-.028-.003-.032 0v.032s.027.003.031 0l-.031.031c-.006-.004.004-.028 0-.031-.007-.005-.031 0-.031 0a.1.1 0 0 0 0 .031v.031c-.004.004.004.028 0 .031.004.003-.006.028 0 .032-.011-.005-.032 0-.032 0v.375s.02.005.032 0c-.006.004.004.028 0 .031v.094s.024.004.031 0c.004-.003-.006-.028 0-.032.009-.005.022.006.031 0-.006.005.005.029 0 .032-.006.004-.031 0-.031 0v.031h.031c.004.003-.004.028 0 .031.004.008.032 0 .031 0l.032-.031c.006-.006.031 0 .031 0s.011.037 0 .063c-.002.004-.03-.004-.031 0-.005.006 0 .03 0 .03H4.1l6.031 7.438H3.069a.1.1 0 0 0-.032 0h-.062v.032c-.004.003-.028-.004-.031 0 0 0 .006.026 0 .03-.006.005-.031 0-.032 0H2.85v.032s.002.027 0 .031-.031 0-.031 0h-.032v.032s.006.023 0 .03c-.005.009-.03 0-.03 0s.003.03 0 .032c-.004.002-.032 0-.032 0h-.031v.031h-.032v.062s.005.025 0 .032c-.004.007-.03 0-.03 0v.063s.003.023 0 .03c-.005.009-.032 0-.032 0V21.6h.031v.063s.024-.01.031 0c.008.01 0 .03 0 .03v.063s.024-.008.032 0c.007.008 0 .031 0 .032h.031c.003.003-.004.027 0 .03.004.004.029-.002.031 0s-.007.025 0 .032c.008.007.04.009.031 0-.008-.008-.007.024 0 .031.008.008.03 0 .032 0 .002.003-.004.028 0 .032.003.003.028-.004.031 0a.1.1 0 0 0 0 .03c.008.008.031 0 .031 0 .008.008 0 .032 0 .032h.031c.004.006.032 0 .032 0h.031c.01.008 0 .031 0 .031h.062v.032h15.876a.1.1 0 0 0 .03 0h.063v-.032h.062s-.009-.023 0-.031c0 0 .025.006.032 0 0 0 .028.006.031 0h.032s-.008-.024 0-.031c.008-.008.03 0 .03 0 .008-.008 0-.032 0-.031.004-.004.028.003.032 0 .004-.004-.003-.03 0-.032.001 0 .024.008.031 0 .008-.007.009-.04 0-.031s.024.007.032 0c.007-.007-.001-.03 0-.031.002-.003.027.003.03 0 .004-.004-.003-.028 0-.031l.032-.032c.008-.008.031 0 .031 0v-.031a.1.1 0 0 0 0-.031c.006-.007 0-.032 0-.031.008-.01.031 0 .032 0V21.6h.03v-.062a.1.1 0 0 0 0-.032v-3.062h-.03c-.005-.004.003-.028 0-.031v-.032s-.024.01-.032 0c0 0 .006-.024 0-.031v-.062s-.023.008-.031 0l-.031-.032c-.004-.003.003-.027 0-.031-.004-.004-.029.003-.031 0-.001-.001.007-.024 0-.031-.008-.008-.04-.009-.032 0s.008-.024 0-.031c-.007-.008-.03 0-.031 0-.003-.003.004-.028 0-.032-.004-.003-.028.004-.031 0V18.1c-.008-.008-.032 0-.031 0-.008-.008 0-.031 0-.031h-.032c-.003-.006-.031 0-.031 0-.007-.006-.031 0-.031 0-.01-.008 0-.031 0-.031h-.063v-.032H11.1v-.031l6.625-7.406h.063s.004-.025 0-.031c-.005-.003.005-.028 0-.032l-.032.032s-.012-.043-.031-.063c.005.002.019-.006.031 0s.02-.005.032 0c.004.001-.004.03 0 .031.011.004.03 0 .03 0 .005-.003-.003-.028 0-.031 0 0 .027.003.032 0v-.031s-.025.004-.031 0l.031-.031v.03c.006.005.031 0 .031 0a.1.1 0 0 0 0-.03v-.094c.011.005.032 0 .032 0v-.375s-.02-.005-.032 0v-.031c-.003-.004.004-.028 0-.032v-.062s-.024-.005-.031 0c-.004.003.006.027 0 .031-.023.016-.063.031-.063.031.006-.007-.007-.022 0-.031.008-.014.024-.017.032-.031.006-.005.031 0 .031 0v-.031h-.031c-.004-.004.004-.028 0-.032 0 0-.02-.005-.031 0v-.031s-.021-.006-.032 0c.005-.007 0-.031 0-.031v-.031s-.024-.005-.031 0V9.63s-.025-.004-.031 0c0 0-.025-.006-.031 0-.003-.002.003-.027 0-.031h-.032v-.031a.1.1 0 0 0-.031 0 .1.1 0 0 0-.031 0s-.027.003-.031 0v-.031c-.006-.007-.032 0-.032 0v-.032h-.093a.1.1 0 0 0-.032 0H13.57L13.757.63V.444h-.031c-.004-.004.004-.028 0-.031V.38s-.024.01-.031 0V.288s-.024.007-.031 0c0 0 .007-.024 0-.032a.1.1 0 0 0-.032 0c-.003-.003.004-.027 0-.031-.003-.004-.028.003-.031 0 0-.001.007-.024 0-.031-.007-.008-.04-.009-.031 0 .008.008.007-.024 0-.031-.008-.008-.03 0-.031 0-.003-.003.003-.028 0-.032-.004-.003-.028.004-.032 0a.1.1 0 0 0 0-.031s-.023.008-.031 0 0-.031 0-.031h-.031c-.003-.006-.031 0-.031 0s-.022.007-.032 0c-.01-.008 0-.031 0-.031h-.062V.006zM4.069 10.537l-.032-.03c.005.007 0 .03 0 .03s.025.007.032 0m.093-.875c.004.012-.004.019 0 .032-.008-.009-.024.006-.03 0zm13.594.094c.009-.004.023.035.032.031-.01.006-.023-.005-.032 0 .005-.002-.006-.027 0-.03zm-13.75.094c.009.006.023-.006.032 0 .006.007 0 .031 0 .031s-.017-.021-.032-.031"/>
	<path fill="#fff" d="M9.71.435c-.6 0-1 .4-1 1v8.5H4.305l6.094 7.5 6.688-7.5H12.71l.187-9.5zm-6.718 18v2.78h15.594v-2.78z"/>
</svg>
