<?xml version="1.0" encoding="UTF-8"?>
<svg xmlns="http://www.w3.org/2000/svg" width="64" height="64" viewBox="0 0 64 64">
	<path fill="#202122" d="M30.69.318c-6.128-.134-11.905 3.47-14.575 8.834l-3.205-.646-1.656 2.336 3.918.789c-.157.413-.244.84-.33 1.267-.086.428-.173.855-.188 1.297l-2.777-.56-1.656 2.336 4.345.875c.461 6.913 5.547 13.127 12.565 14.54 3.883.783 7.825-.017 11.07-1.958l.748-3.705c-2.982 2.66-7.135 3.939-11.303 3.1-5.699-1.149-9.817-5.91-10.408-11.44l17.346 3.496 1.658-2.336-19.023-3.832c.015-.442.101-.868.187-1.295.072-.356.173-.856.33-1.27l20.162 4.063 1.657-2.336-20.768-4.184c2.636-4.806 8.255-7.677 14.025-6.515 4.489.904 7.5 3.624 9.227 7.197l1.65-2.3C41.48 4.325 37.82 1.512 33.33.608a15 15 0 0 0-2.64-.29M48.142 27.07q-1.374.023-2.866.405-3.867.987-6.068 3.726-2.728 3.435-1.563 8.006.276 1.077.762 2.158.487 1.08 1.84 3.356l-3.383.863.83 3.254 4.307-1.1q.727 1.29 1.068 2.63.798 3.12-.12 5.661-.92 2.54-2.731 4.242l2.486 3.415q1.23-1.321 2.88-2.327 1.652-1.005 3.233-1.41a12.7 12.7 0 0 1 2.112-.351q.692-.037 3.12.08 2.43.116 3.052.074a10.5 10.5 0 0 0 1.914-.3 9.8 9.8 0 0 0 2.138-.829q1.043-.547 2.846-1.92l-2.201-3.3q-2.279 1.892-3.904 2.308-1.34.342-5.35.406-2.425.036-4.248.502-1.43.363-3.043 1.29 1.52-2.753 1.889-5.116.368-2.365-.12-4.277a5 5 0 0 0-.912-1.827l6.24-1.593-.83-3.252-6.921 1.765q-2.257-3.613-2.88-6.052-.566-2.22.647-4.202 1.214-1.983 3.653-2.605 2.285-.584 4.308.514 2.025 1.097 3.03 3.65l3.78-1.598q-1.603-3.803-4.743-5.33-1.963-.955-4.252-.916m-34.989 1.004-.74 3.627c-1.527-.311-8.78.156-10.004 6.154-1.088 5.336 3.572 7.804 6.91 8.98l-1.222 6.032c-2.369-1.2-2.45-3.15-2.485-4.756L.105 46.988c-.882 6.07 4.032 9.978 6.946 11.014l-.752 3.69 5.234 1.066.74-3.631c4.189.633 9.8-1.81 10.762-6.527 1.102-5.403-3.474-7.934-7.555-9.196l1.127-5.527c1.616.446 2.575 2.271 2.39 3.89l5.454 1.112c1.093-5.36-3.404-9.213-6.857-10.121l.74-3.63-5.18-1.054zm-1.767 8.793-.934 4.58c-3.68-.808-2.96-4.711.934-4.58m3.058 11.908c4.546 1.044 4.162 5.533-1.062 5.198z"/>
</svg>
