<?xml version="1.0" encoding="UTF-8"?>
<svg xmlns="http://www.w3.org/2000/svg" width="24" height="24" viewBox="0 0 24 24">
	<path fill-opacity=".51" d="M6.81 1.55a.5.5 0 0 0 .092.062.5.5 0 0 0 .244.153c-.003-.003.035.004.031 0s.004.035 0 .03l.03.031v.03h.031c-.002-.003.003.035 0 .031l.03.031c-.001-.004.033.034.031.03-.001-.003.002.035 0 .031-.001-.004.033.035.031.03-.002-.003.001.035 0 .031v.031a.5.5 0 0 0 .03.122V4.55c4.157.278 6.5 2.398 7.589 4.59 1.141 2.299 1.103 4.542 1.101 4.59v.122a.5.5 0 0 0-.06.184v.03c0-.003-.033.035-.031.031.001-.004-.002.034 0 .03l-.03.031c.002-.004-.035.035-.032.03.003-.003-.002.035 0 .031l-.03.031c.002-.002-.024-.008-.03 0-.008.008-.002.033 0 .03.003-.003-.004.035 0 .031.003-.003-.035.004-.031 0l-.03.03-.032.031c.004-.002-.034.003-.03 0 .003-.002-.034.033-.03.031.003-.002-.035.032-.031.03.003-.001-.035.002-.03 0 .003-.001-.035.033-.032.031.004-.001-.034.002-.03 0h-.03a.5.5 0 0 0-.123.03h-.183a.5.5 0 0 0-.123-.03h-.03c.003.002-.035-.001-.031 0 .004.002-.035-.032-.03-.03.003.001-.035-.002-.031 0 .003.001-.035-.033-.031-.031l-.03-.03c.003.002-.035-.003-.031 0l-.03-.031-.031-.03c.003.003-.035-.004-.031 0-.008-.008-.002-.033 0-.031l-.03-.031-.031-.03-.03-.031S12.071 10.6 7.36 10.975v2.846a.5.5 0 0 0-.031.122v.03c.001-.003-.002.035 0 .031s-.032.035-.03.03c.001-.003-.002.035 0 .031.001-.003-.033.035-.031.031.002-.003-.002.034 0 .03-.005.008-.032.002-.03 0 .001-.003-.003.035 0 .031l-.031.03c.002-.002-.003.035 0 .031.002-.003-.034.003-.03 0l-.032.031c.003-.003-.002.033 0 .03.003-.002-.033.003-.03 0l-.03.031c.002-.002-.004.033 0 .03.002-.002-.035.003-.031 0l-.03.031c.002-.002-.035.002-.032 0s-.003.033 0 .031c-.01.006-.033.001-.03 0l-.061.03c.005-.002-.036.003-.03 0 .005-.002-.037.033-.032.031.006-.002-.036.002-.03 0 .006-.001-.067.032-.061.03.005 0-.037.002-.03 0h-.185a.5.5 0 0 0-.183-.06c.004.001-.035-.002-.03 0 .003.001-.035-.033-.031-.031l-.061-.03-.031-.031c.004.003-.034-.004-.03 0 .003.004-.004-.035 0-.03l-.031-.031h-.03L.292 8.558.23 8.497c.003.003-.002-.034 0-.031.003.003-.032-.034-.03-.03.002.003-.003-.035 0-.031l-.03-.03c0 .003-.033-.035-.031-.031.001.003-.002-.035 0-.031a.1.1 0 0 0 0-.03c-.004-.008-.032-.002-.031 0v-.061a.5.5 0 0 0-.03-.123v-.122a.5.5 0 0 0 .03-.123v-.061c0 .002.027.008.03 0 0 .004.002-.035 0-.03 0 .003.002-.035 0-.031-.001.004.033-.035.031-.03a.1.1 0 0 1 0-.032c0 .002.027.008.03 0-.002.004.003-.033 0-.03-.001.003.034-.034.031-.03-.002.003.003-.035 0-.031l.062-.062 5.813-5.752.061-.061c-.003.002.034-.002.03 0l.032-.03a.1.1 0 0 0 .03 0c-.003.002.034-.033.03-.031l.031-.03c-.003 0 .035-.003.03 0a.1.1 0 0 0 .032 0c.007-.004.001-.032 0-.032-.004.002.034 0 .03 0-.004.002.035 0 .03 0a.5.5 0 0 0 .123-.03zm15.42 1.53a.5.5 0 0 0 .153.093.5.5 0 0 0 .184.122c-.003-.003.003.034 0 .03l.03.031c-.002-.003.033.003.031 0v.03l.03.031c-.002-.003.003.034 0 .031-.001-.003.033.003.031 0 .006.01.002.033 0 .03l.03.062c-.002-.006.003.036 0 .03-.001-.005.033.037.031.03-.001-.005.002.037 0 .032-.001-.006.032.067.031.06v16.921a.5.5 0 0 0-.03.123c0-.004-.002.034 0 .03 0-.004-.002.035 0 .031.001-.004-.033.034-.031.03.002-.003-.002.035 0 .031s-.033.034-.03.03c.001-.003-.003.035 0 .031-.005.008-.033.002-.031 0 .002-.003-.003.034 0 .031.002-.003-.033.034-.031.03.002-.003-.002.034 0 .031s-.033.003-.03 0l-.031.03c.003-.002-.003.034 0 .031.003-.002-.034.003-.03 0l-.031.031c.003-.003-.004.033 0 .03.003-.002-.034.003-.031 0 .003-.002-.034.033-.03.031.003-.002-.035.002-.031 0 .003-.002-.004.033 0 .03-.01.007-.033.002-.03 0l-.062.031c.005-.002-.036.003-.03 0 .005-.002-.037.033-.031.031s-.036.002-.03 0l-.062.03H3.872a.5.5 0 0 0-.122-.03h-.03c.003.001-.035-.002-.031 0s-.035-.032-.03-.03c.003.001-.035-.002-.031 0 .003.001-.035-.033-.03-.031l-.032-.03c.004.001-.033-.003-.03 0 .003.001-.034-.034-.03-.031.003.002-.034-.003-.031 0 .003.002-.003-.034 0-.031l-.03-.03c.002.002-.034-.003-.031 0 .002.002-.003-.034 0-.031l-.031-.03c.003.002-.033-.004-.03 0 .002.002-.003-.035 0-.031l-.031-.031c.002.003-.002-.034 0-.03l-.03-.031-.031-.061c.002.005-.003-.036 0-.031.002.005-.033-.036-.031-.03s-.002-.037 0-.031c.001.005-.032-.067-.03-.061 0 .005-.002-.037 0-.031V13.27a.5.5 0 0 0 .03-.122v-.061c-.002.003.032-.035.03-.031-.001.004.002-.035 0-.03-.001.003.033-.035.031-.031-.001.001-.004-.024 0-.031-.002.003.033-.004.03 0-.001.003.003-.034 0-.03l.031-.031c-.002.003.003-.034 0-.03-.002.002.034-.004.03 0l.032-.031c-.003.002.002-.034 0-.031-.003.003.033-.003.03 0l.03-.03c-.002.002.004-.034 0-.031-.002.002.035-.003.031 0l.03-.03c-.002.001.035-.003.031 0-.003.001.004-.033 0-.031.01-.006.034-.002.031 0l.061-.031c-.005.002.036-.002.03 0s.037-.033.031-.03c-.005.001.037-.002.031 0-.006 0 .067-.032.061-.031h.214a.5.5 0 0 0 .153.06.5.5 0 0 0 .092.032c-.004-.002.035.001.03 0-.003-.002.035.032.031.03l.031.03c-.003-.002.034.003.03 0l.031.062h.03l2.663 2.6.061.062c-.002-.003.002.034 0 .03l.03.031c-.001-.003.033.034.031.03-.002-.003.002.035 0 .031-.001-.003.032.035.03.03 0-.003.002.035 0 .032a.1.1 0 0 0 0 .03c.004.008.032.002.031 0-.001-.004.002.035 0 .03v.031a.5.5 0 0 0 .031.123v1.285h11.29V7.15h-4.068a.5.5 0 0 0-.093-.03.5.5 0 0 0-.153-.03c.004.001-.034-.033-.03-.031.003.002-.034-.033-.03-.031.003.002-.035-.003-.031 0l-3.948-2.6-.06-.032-.031-.03-.03-.03c.004.004-.036-.067-.032-.062.005.005-.034-.036-.03-.03s-.034-.037-.03-.031c0 .002.004-.021 0-.03.002.003-.033-.035-.031-.031.003.006-.034-.037-.03-.03 0 .002.004-.019 0-.031a.1.1 0 0 0 0-.031c-.004-.008-.032-.002-.032 0 .002.004 0-.035 0-.03.002.003 0-.035 0-.031a.5.5 0 0 0-.03-.123v-.122a.5.5 0 0 0 .03-.122c0 .004.002-.035 0-.031 0 .004.002-.035 0-.03 0 .001.028.007.031 0V3.54c-.001.004.002-.035 0-.03-.001.003.032-.035.03-.031-.001.003.003-.035 0-.031 0 .002.027.007.031 0-.002.003.003-.034 0-.03l.03-.031c-.001.003.003-.034 0-.03l.062-.062.03-.03.031-.031c-.003.002.034-.003.03 0l.031-.03.031-.031c-.004.002.034-.033.03-.031-.003.002.035-.002.031 0s.035-.002.03 0c-.003.002.035-.032.031-.03-.004 0 .035-.002.031 0-.004 0 .035-.002.03 0-.003 0 .035-.032.031-.031h11.72z"/>
	<path fill="#fff" d="M6.798 2.189V5.06c8.873.057 8.7 8.606 8.7 8.606s-3.162-4.296-8.7-3.442v3.442L1.002 7.933zm15.44 1.534V20.46H4.113v-7.227l2.654 2.603v1.97h12.765V6.336h-4.75l-3.94-2.613z"/>
</svg>
