<?xml version="1.0" encoding="UTF-8" standalone="no"?>
<!-- Created with Inkscape (http://www.inkscape.org/) -->

<svg
   xmlns:dc="http://purl.org/dc/elements/1.1/"
   xmlns:cc="http://creativecommons.org/ns#"
   xmlns:rdf="http://www.w3.org/1999/02/22-rdf-syntax-ns#"
   xmlns:svg="http://www.w3.org/2000/svg"
   xmlns="http://www.w3.org/2000/svg"
   xmlns:sodipodi="http://sodipodi.sourceforge.net/DTD/sodipodi-0.dtd"
   xmlns:inkscape="http://www.inkscape.org/namespaces/inkscape"
   width="22"
   height="22"
   id="svg4055"
   version="1.1"
   inkscape:version="0.48.4 r9939"
   sodipodi:docname="format-bold-N.svg">
  <defs
     id="defs4057">
    <filter
       id="filter5056"
       inkscape:label="Diffuse light"
       inkscape:menu="ABCs"
       inkscape:menu-tooltip="Basic diffuse bevel to use for building textures"
       color-interpolation-filters="sRGB">
      <feGaussianBlur
         id="feGaussianBlur5058"
         stdDeviation="6"
         in="SourceGraphic"
         result="result0" />
      <feDiffuseLighting
         id="feDiffuseLighting5060"
         diffuseConstant="1"
         surfaceScale="10"
         result="result5">
        <feDistantLight
           id="feDistantLight5062"
           elevation="25"
           azimuth="235" />
      </feDiffuseLighting>
      <feComposite
         id="feComposite5064"
         in2="SourceGraphic"
         k1="1"
         in="result5"
         result="result4"
         operator="arithmetic"
         k2="0"
         k3="0.6" />
    </filter>
    <filter
       inkscape:collect="always"
       id="filter3953">
      <feGaussianBlur
         inkscape:collect="always"
         stdDeviation="0.30832031"
         id="feGaussianBlur3955" />
    </filter>
    <filter
       inkscape:collect="always"
       id="filter3973">
      <feGaussianBlur
         inkscape:collect="always"
         stdDeviation="0.41109375"
         id="feGaussianBlur3975" />
    </filter>
    <filter
       inkscape:collect="always"
       id="filter4018">
      <feGaussianBlur
         inkscape:collect="always"
         stdDeviation="0.27"
         id="feGaussianBlur4020" />
    </filter>
    <filter
       inkscape:collect="always"
       id="filter4022">
      <feGaussianBlur
         inkscape:collect="always"
         stdDeviation="0.36515625"
         id="feGaussianBlur4024" />
    </filter>
  </defs>
  <sodipodi:namedview
     id="base"
     pagecolor="#ffffff"
     bordercolor="#666666"
     borderopacity="1.0"
     inkscape:pageopacity="0.0"
     inkscape:pageshadow="2"
     inkscape:zoom="22.4"
     inkscape:cx="15.564784"
     inkscape:cy="10.33095"
     inkscape:document-units="px"
     inkscape:current-layer="layer1"
     showgrid="false"
     fit-margin-top="0"
     fit-margin-left="0"
     fit-margin-right="0"
     fit-margin-bottom="0"
     inkscape:window-width="1920"
     inkscape:window-height="1014"
     inkscape:window-x="0"
     inkscape:window-y="27"
     inkscape:window-maximized="1" />
  <metadata
     id="metadata4060">
    <rdf:RDF>
      <cc:Work
         rdf:about="">
        <dc:format>image/svg+xml</dc:format>
        <dc:type
           rdf:resource="http://purl.org/dc/dcmitype/StillImage" />
        <dc:title></dc:title>
      </cc:Work>
    </rdf:RDF>
  </metadata>
  <g
     inkscape:label="Layer 1"
     inkscape:groupmode="layer"
     id="layer1"
     transform="translate(-523.28571,-512.07648)">
    <text
       xml:space="preserve"
       style="font-size:17.60938835px;font-style:normal;font-variant:normal;font-weight:normal;font-stretch:normal;line-height:125%;letter-spacing:0px;word-spacing:0px;fill:#444444;fill-opacity:1;stroke:none;font-family:DejaVu Serif;-inkscape-font-specification:DejaVu Serif"
       x="566.91028"
       y="492.98608"
       id="text5195"
       sodipodi:linespacing="125%"
       transform="scale(0.93034878,1.0748657)"><tspan
         sodipodi:role="line"
         id="tspan5197"
         x="566.91028"
         y="492.98608"
         style="font-weight:bold;fill:#444444;fill-opacity:1;-inkscape-font-specification:DejaVu Serif Bold">P</tspan></text>
    <path
       style="font-size:17.60938834999999969px;font-style:normal;font-variant:normal;font-weight:normal;font-stretch:normal;line-height:125%;letter-spacing:0px;word-spacing:0px;fill:#000000;fill-opacity:1;stroke:none;font-family:DejaVu Serif;-inkscape-font-specification:DejaVu Serif;filter:url(#filter4022)"
       d="m 528.19196,516.70148 0,0.5 1.03125,0 0,-0.5 -1.03125,0 z m 4.09375,0 0,5.875 0.5,0 0,-5.375 0.90625,0 c 0.46699,1e-5 0.88043,0.13824 1.21875,0.375 -0.0173,-0.0237 -0.0444,-0.0395 -0.0625,-0.0625 -0.41065,-0.52987 -0.95764,-0.81249 -1.65625,-0.8125 l -0.90625,0 z m 5.625,0.3125 c 0.59493,0.68939 0.93749,1.55688 0.9375,2.625 -10e-6,1.23228 -0.39823,2.19814 -1.1875,2.9375 -0.78396,0.73321 -1.83368,1.09376 -3.15625,1.09375 l -2.21875,0 0,4.59375 0.5,0 0,-4.09375 2.21875,0 c 1.32257,1e-5 2.37229,-0.36054 3.15625,-1.09375 0.78927,-0.73936 1.18749,-1.70522 1.1875,-2.9375 -10e-6,-1.2261 -0.40356,-2.21045 -1.1875,-2.9375 -0.0765,-0.0715 -0.16834,-0.12295 -0.25,-0.1875 z m -3.6875,11.75 0,0.625 -6.03125,0 0,0.5 6.53125,0 0,-1.125 -0.5,0 z"
       id="text4000"
       inkscape:connector-curvature="0" />
    <path
       style="font-size:17.60938834999999969px;font-style:normal;font-variant:normal;font-weight:normal;font-stretch:normal;line-height:125%;letter-spacing:0px;word-spacing:0px;fill:#ffffff;fill-opacity:1;stroke:none;font-family:DejaVu Serif;-inkscape-font-specification:DejaVu Serif;opacity:0.80000000000000004;filter:url(#filter4018)"
       d="m 528.19196,516.10773 0,1.09375 0.5,0 0,-0.59375 6.8125,0 c 1.19835,1e-5 2.15089,0.30914 2.90625,0.90625 -0.088,-0.10197 -0.14899,-0.21882 -0.25,-0.3125 -0.78396,-0.73319 -1.82835,-1.09374 -3.15625,-1.09375 l -6.8125,0 z m 1.53125,1.59375 0,11.0625 -1.53125,0 0,1.125 0.5,0 0,-0.625 1.53125,0 0,-11.5625 -0.5,0 z m 5.6875,0.375 c 0.37529,0.51597 0.56249,1.21431 0.5625,2.0625 -10e-6,0.89341 -0.20904,1.58897 -0.625,2.125 -0.41065,0.52988 -0.96297,0.81251 -1.65625,0.8125 l -0.40625,0 0,0.5 0.90625,0 c 0.69328,1e-5 1.2456,-0.28262 1.65625,-0.8125 0.41596,-0.53603 0.62499,-1.23159 0.625,-2.125 -10e-6,-0.88723 -0.21437,-1.60127 -0.625,-2.125 -0.13615,-0.17567 -0.2697,-0.32007 -0.4375,-0.4375 z m -2.125,10.6875 0,0.5 1.4375,0 0,-0.5 -1.4375,0 z"
       id="text3996"
       inkscape:connector-curvature="0" />
  </g>
</svg>
