<?xml version="1.0" encoding="UTF-8" standalone="no"?>
<!-- Created with Inkscape (http://www.inkscape.org/) -->
<svg id="svg4055" xmlns:rdf="http://www.w3.org/1999/02/22-rdf-syntax-ns#" xmlns="http://www.w3.org/2000/svg" height="22" width="22" version="1.1" xmlns:cc="http://creativecommons.org/ns#" xmlns:dc="http://purl.org/dc/elements/1.1/">
 <defs id="defs4057">
  <filter id="filter4180">
   <feGaussianBlur id="feGaussianBlur4182" stdDeviation="0.28407221"/>
  </filter>
 </defs>
 <metadata id="metadata4060">
  <rdf:RDF>
   <cc:Work rdf:about="">
    <dc:format>image/svg+xml</dc:format>
    <dc:type rdf:resource="http://purl.org/dc/dcmitype/StillImage"/>
    <dc:title/>
   </cc:Work>
  </rdf:RDF>
 </metadata>
 <g id="layer1" transform="translate(-523.29 -512.08)">
  <text id="text5195" style="word-spacing:0px;letter-spacing:0px" xml:space="preserve" transform="scale(.93035 1.0749)" line-height="125%" font-size="17.609px" y="493.05362" x="567.37231" font-family="DejaVu Serif" fill="#444444"><tspan id="tspan5197" font-style="italic" y="493.05362" x="567.37231" fill="#444444">C</tspan></text>
  <path id="text4158" opacity=".8" d="m535.82 515.92c-1.7546 0.00001-3.2666 0.65023-4.5625 1.9688-1.2906 1.3124-2.1061 3.0434-2.4688 5.1875-0.18665 1.109-0.20649 2.1189-0.0625 3 0.14399 0.87492 0.45753 1.6537 0.9375 2.3438 0.22577 0.32438 0.4661 0.60468 0.75 0.84375-0.0947-0.11143-0.16379-0.21989-0.25-0.34375-0.47997-0.69007-0.79351-1.4688-0.9375-2.3438-0.14399-0.88107-0.12415-1.891 0.0625-3 0.36264-2.1442 1.1782-3.8751 2.4688-5.1875 1.2959-1.3185 2.808-1.9687 4.5625-1.9688 0.65061 0.00001 1.3326 0.0841 2.0312 0.28125 0.53784 0.15065 1.1061 0.38692 1.6875 0.65625l0.0312-0.25c-0.77863-0.40048-1.5148-0.70907-2.2188-0.90625-0.69863-0.19715-1.3806-0.28124-2.0312-0.28125zm2.2188 2c0.40225 0.54813 0.62022 1.338 0.625 2.375h0.4375c-0.0691-0.9005-0.29465-1.5986-0.71875-2.0625-0.101-0.11048-0.21959-0.22428-0.34375-0.3125zm-0.65625 8.4062c-0.42131 0.9735-0.96372 1.6946-1.625 2.1875-0.65596 0.48675-1.4219 0.71875-2.3125 0.71875-0.72676 0-1.3128-0.16146-1.7812-0.5 0.51111 0.66438 1.2631 1 2.2812 1 0.8906 0 1.6565-0.232 2.3125-0.71875 0.66128-0.49291 1.2037-1.214 1.625-2.1875h0.71875c0.0864-0.16682 0.17076-0.32118 0.25-0.5h-1.4688z" filter="url(#filter4180)" fill="#fff"/>
 </g>
</svg>
