<?xml version="1.0" encoding="UTF-8" standalone="no"?>
<!-- Created with Inkscape (http://www.inkscape.org/) -->
<svg id="svg11148" xmlns:rdf="http://www.w3.org/1999/02/22-rdf-syntax-ns#" xmlns="http://www.w3.org/2000/svg" height="22" width="22" version="1.1" xmlns:cc="http://creativecommons.org/ns#" xmlns:dc="http://purl.org/dc/elements/1.1/">
 <defs id="defs11150">
  <filter id="filter11711">
   <feGaussianBlur id="feGaussianBlur11713" stdDeviation="0.40047554"/>
  </filter>
 </defs>
 <metadata id="metadata11153">
  <rdf:RDF>
   <cc:Work rdf:about="">
    <dc:format>image/svg+xml</dc:format>
    <dc:type rdf:resource="http://purl.org/dc/dcmitype/StillImage"/>
    <dc:title/>
   </cc:Work>
  </rdf:RDF>
 </metadata>
 <g id="layer1" transform="translate(-823.29 -707.08)">
  <text id="text11171" style="word-spacing:0px;letter-spacing:0px" font-family="DejaVu Serif" xml:space="preserve" transform="scale(1.2393 .80692)" stroke="#2e3436" line-height="125%" font-size="5.0765px" y="884.87854" x="676.90649" stroke-width="0.77" fill="#969795"><tspan id="tspan11173" font-weight="bold" stroke="#2e3436" y="884.87854" x="676.90649" stroke-width="0.77" fill="#969795">▲</tspan></text>
  <text id="text11693" style="word-spacing:0px;letter-spacing:0px" font-size="18.172px" line-height="125%" y="725.07898" x="825.39417" font-family="DejaVu Serif" xml:space="preserve" fill="#212222"><tspan id="tspan11695" y="725.07898" x="825.39417" fill="#212222">A</tspan></text>
  <path id="text11683" opacity=".69182" d="m830.52 710.76-5.0625 13.219h-1.25v1.0312h0.5v-0.5h1.25l5.0625-13.25h1.3125l-0.1875-0.5h-1.625zm0.8125 2.8125-0.15625 0.40625 2.2812 5.875h-4.5312l-0.1875 0.5h5.2188l-2.625-6.7812zm2.6875 7.7812 1 2.625h-1.5625v1.0312h0.5v-0.5h1.5625l-1.1875-3.1562h-0.3125zm-6.6875 2.625-0.1875 0.53125h1.0625v-0.53125h-0.875zm10.188 0 0.21875 0.53125h0.875v-0.53125h-1.0938z" transform="matrix(.92895 0 0 .92895 59.652 51.581)" filter="url(#filter11711)" fill="#fff"/>
 </g>
</svg>
