<?xml version="1.0" encoding="UTF-8" standalone="no"?>
<!-- Created with Inkscape (http://www.inkscape.org/) -->
<svg id="svg4055" xmlns:rdf="http://www.w3.org/1999/02/22-rdf-syntax-ns#" xmlns="http://www.w3.org/2000/svg" height="22" width="22" version="1.1" xmlns:cc="http://creativecommons.org/ns#" xmlns:dc="http://purl.org/dc/elements/1.1/">
 <metadata id="metadata4060">
  <rdf:RDF>
   <cc:Work rdf:about="">
    <dc:format>image/svg+xml</dc:format>
    <dc:type rdf:resource="http://purl.org/dc/dcmitype/StillImage"/>
    <dc:title/>
   </cc:Work>
  </rdf:RDF>
 </metadata>
 <g id="layer1" transform="matrix(.65136 0 0 .85483 -341.51 -435.96)">
  <g id="text5195" fill="#444" transform="scale(.94313 1.0603)">
   <path id="path2995" d="m565.61 500.92v0.44491h-8.5255v-0.44491h0.54111c0.47297 0 0.85375-0.0842 1.1424-0.25252 0.20843-0.11223 0.36876-0.30463 0.48099-0.57719 0.0882-0.19239 0.13227-0.69743 0.13227-1.5151v-10.726c0-0.8337-0.0441-1.3548-0.13227-1.5632-0.0882-0.20841-0.26655-0.39079-0.5351-0.54713-0.26856-0.1563-0.6313-0.23446-1.0882-0.23448h-0.54111v-0.44491h8.5255v0.44491h-0.54111c-0.47298 0.00002-0.85376 0.0842-1.1424 0.25252-0.20844 0.11225-0.37277 0.30464-0.49301 0.57719-0.0882 0.19241-0.13228 0.69745-0.13228 1.5151v10.726c0 0.83372 0.0461 1.3548 0.13829 1.5632 0.0922 0.20843 0.27255 0.3908 0.54111 0.54712 0.26855 0.15633 0.63129 0.23449 1.0882 0.23449z"/>
   <path id="path2997" d="m573.2 499.71c-1.3708 1.2105-2.6014 1.8157-3.6916 1.8157-0.64132 0-1.1744-0.21043-1.5993-0.6313-0.42488-0.42086-0.63732-0.94794-0.63731-1.5812-0.00001-0.85776 0.36875-1.6294 1.1063-2.3148 0.73751-0.6854 2.3448-1.5973 4.8219-2.7356v-1.1303c-0.00001-0.84974-0.0461-1.3848-0.13829-1.6053-0.0922-0.22044-0.26655-0.41284-0.52307-0.57719-0.25654-0.16433-0.54513-0.24649-0.86578-0.2465-0.52108 0.00001-0.94996 0.11624-1.2866 0.34871-0.20843 0.14431-0.31265 0.31266-0.31264 0.50504-0.00001 0.16836 0.11222 0.37679 0.33669 0.62529 0.30462 0.34471 0.45693 0.6774 0.45694 0.99805-0.00001 0.39282-0.14631 0.7275-0.4389 1.0041-0.29261 0.27658-0.6754 0.41486-1.1484 0.41486-0.50505 0-0.92792-0.15231-1.2686-0.45694-0.34071-0.30462-0.51106-0.66135-0.51105-1.0702-0.00001-0.57718 0.22846-1.1283 0.6854-1.6534 0.45694-0.52507 1.0942-0.9279 1.9119-1.2085 0.81767-0.28056 1.6674-0.42085 2.5492-0.42086 1.0662 0.00001 1.9099 0.22647 2.5312 0.67939 0.62126 0.45294 1.0241 0.94395 1.2085 1.473 0.11222 0.3367 0.16834 1.1103 0.16835 2.3208v4.365c-0.00001 0.51306 0.02 0.83572 0.0601 0.96799 0.0401 0.13228 0.1002 0.23048 0.18037 0.29461 0.0802 0.0641 0.17235 0.0962 0.27657 0.0962 0.20842 0 0.42085-0.14831 0.63731-0.44492l0.36074 0.2886c-0.40083 0.59322-0.81569 1.0241-1.2446 1.2926-0.42889 0.26856-0.91589 0.40283-1.461 0.40283-0.64133 0-1.1424-0.15031-1.5031-0.45092-0.36075-0.30062-0.58121-0.75556-0.66136-1.3648zm0-0.87781v-3.7637c-0.97 0.56918-1.6915 1.1784-2.1644 1.8278-0.31265 0.4329-0.46897 0.86979-0.46897 1.3107 0 0.36876 0.13227 0.69343 0.39682 0.974 0.2004 0.21645 0.48098 0.32467 0.84173 0.32467 0.40082 0 0.86577-0.22446 1.3949-0.67339z"/>
   <path id="path2999" d="m579.4 501.37v-0.44491c0.46495-0.0641 0.7796-0.21845 0.94394-0.46296 0.16434-0.2445 0.2465-0.69542 0.24651-1.3528v-6.794c-0.00001-0.60924-0.0862-1.0341-0.25854-1.2746-0.17235-0.24049-0.48299-0.39681-0.93191-0.46897v-0.44491h5.7478v0.44491c-0.481 0.0722-0.79965 0.2385-0.95597 0.49903-0.15632 0.26055-0.23448 0.73151-0.23448 1.4129v2.6815h0.86578c1.956 0.00001 3.431 0.27858 4.4251 0.83572 0.99403 0.55715 1.4911 1.3287 1.4911 2.3148-0.00001 0.92991-0.44092 1.6714-1.3227 2.2246-0.88183 0.55314-2.1885 0.82971-3.9201 0.82971zm4.5574-5.4472v3.4992c0 0.54513 0.0902 0.88182 0.27056 1.0101 0.18036 0.12827 0.39881 0.1924 0.65535 0.1924 0.62527 0 1.1684-0.21444 1.6294-0.64333 0.46094-0.42888 0.69141-1.0081 0.69142-1.7376-0.00001-1.5472-1.0822-2.3208-3.2467-2.3208z"/>
  </g>
 </g>
</svg>
