<?xml version="1.0" encoding="UTF-8" standalone="no"?>
<!-- Created with Inkscape (http://www.inkscape.org/) -->
<svg id="svg4055" xmlns:rdf="http://www.w3.org/1999/02/22-rdf-syntax-ns#" xmlns="http://www.w3.org/2000/svg" height="22" width="22" version="1.1" xmlns:cc="http://creativecommons.org/ns#" xmlns:dc="http://purl.org/dc/elements/1.1/">
 <defs id="defs4057">
  <filter id="filter3809">
   <feGaussianBlur id="feGaussianBlur3811" stdDeviation="0.30164062"/>
  </filter>
 </defs>
 <metadata id="metadata4060">
  <rdf:RDF>
   <cc:Work rdf:about="">
    <dc:format>image/svg+xml</dc:format>
    <dc:type rdf:resource="http://purl.org/dc/dcmitype/StillImage"/>
    <dc:title/>
   </cc:Work>
  </rdf:RDF>
 </metadata>
 <g id="layer1" transform="translate(-523.29 -512.08)">
  <text id="text5195" style="word-spacing:0px;letter-spacing:0px" xml:space="preserve" transform="scale(.93035 1.0749)" line-height="125%" font-size="17.609px" y="492.98608" x="566.91028" font-family="DejaVu Serif" fill="#444444"><tspan id="tspan5197" y="492.98608" x="566.91028" font-weight="bold" fill="#444444">A</tspan></text>
  <path id="text3023" opacity=".8" d="m532.75 516.11-4.4688 12.656h-1v1.125h0.5v-0.625h1l4.4688-12.656h1.625l-0.1875-0.5h-1.9375zm0.4375 3.9688-0.15625 0.46875 1.4688 4.2812h-3l-0.1875 0.5h3.6875l-1.8125-5.25zm1.9062 6.375 0.8125 2.3125h-1.1875v1.125h0.5v-0.625h1.1875l-1-2.8125h-0.3125zm-5 2.3125-0.1875 0.5h0.9375v-0.5h-0.75zm9.4062 0 0.1875 0.5h0.625v-0.5h-0.8125z" filter="url(#filter3809)" fill="#fff"/>
 </g>
</svg>
