<?xml version="1.0" encoding="UTF-8" standalone="no"?>
<svg id="svg3295" xmlns:rdf="http://www.w3.org/1999/02/22-rdf-syntax-ns#" xmlns="http://www.w3.org/2000/svg" height="22" width="22" version="1.1" xmlns:cc="http://creativecommons.org/ns#" xmlns:dc="http://purl.org/dc/elements/1.1/">
 <metadata id="metadata3313">
  <rdf:RDF>
   <cc:Work rdf:about="">
    <dc:format>image/svg+xml</dc:format>
    <dc:type rdf:resource="http://purl.org/dc/dcmitype/StillImage"/>
    <dc:title/>
   </cc:Work>
  </rdf:RDF>
 </metadata>
 <defs id="defs3297">
  <filter id="b">
   <feGaussianBlur id="feGaussianBlur3300" stdDeviation="0.3806"/>
  </filter>
  <filter id="a">
   <feGaussianBlur id="feGaussianBlur3303" stdDeviation="0.2844"/>
  </filter>
 </defs>
 <path id="path3305" d="m4.9 17.81v-1.118h1.528v-11.562h-1.528v-1.118h7.08q2.184 0 3.28 0.85t1.096 2.56q0 1.229-0.76 1.95-0.752 0.721-2.24 0.906 1.8 0.194 2.76 1.109t0.96 2.431q0 2.052-1.344 3.02-1.336 0.97-4.192 0.97h-6.639zm4.608-8.04h1.048q1.376 0 2.04-0.573 0.664-0.582 0.664-1.774 0-1.202-0.648-1.747-0.64-0.545-2.056-0.545h-1.048v4.64zm0 6.922h1.144q1.528 0 2.264-0.702t0.736-2.172q0-1.479-0.744-2.209t-2.256-0.73h-1.144v5.813z" fill="#444"/>
 <path id="path3307" filter="url(#b)" d="m4.9 4.63v0.5h1.031v-0.5h-1.031zm4.094 0v4.656h0.5v-4.156h1.063c0.826 0 1.445 0.159 1.875 0.438-0.089-0.143-0.186-0.269-0.312-0.375-0.427-0.364-1.119-0.563-2.063-0.563h-1.063zm6.281 0.25c0.394 0.528 0.594 1.225 0.594 2.063 0 0.819-0.275 1.457-0.781 1.937-0.501 0.481-1.227 0.783-2.219 0.906 0.521 0.056 0.96 0.166 1.375 0.313 0.557-0.162 1.01-0.397 1.344-0.719 0.506-0.481 0.781-1.118 0.781-1.938 0-1.14-0.363-1.996-1.094-2.563zm-6.281 5.5v5.813h0.5v-5.313h1.156c0.839 0 1.484 0.194 1.969 0.531-0.069-0.095-0.136-0.2-0.219-0.281-0.496-0.487-1.242-0.75-2.25-0.75h-1.156zm6.906 0.844c0.441 0.563 0.687 1.255 0.687 2.094 0 1.368-0.448 2.384-1.344 3.03-0.891 0.647-2.315 0.969-4.219 0.969h-6.125v0.5h6.625c1.904 0 3.328-0.322 4.219-0.969 0.896-0.647 1.344-1.663 1.344-3.03 0-1.01-0.329-1.796-0.969-2.406-0.067-0.064-0.146-0.129-0.219-0.188z"/>
 <path id="path3309" opacity=".8" filter="url(#a)" d="m4.91 4.04v1.094h0.5v-0.594h7.094c1.434 0 2.52 0.262 3.25 0.813-0.137-0.178-0.286-0.327-0.469-0.469-0.731-0.567-1.825-0.844-3.281-0.844h-7.094zm1.531 1.594v11.06h-1.531v1.125h0.5v-0.625h1.531v-11.562h-0.5zm6.5 0.438c0.217 0.348 0.344 0.808 0.344 1.375 0 0.795-0.245 1.362-0.688 1.75-0.443 0.382-1.114 0.594-2.031 0.594h-0.563v0.5h1.063c0.917 0 1.589-0.212 2.031-0.594 0.443-0.388 0.687-0.955 0.688-1.75 0-0.801-0.224-1.386-0.656-1.75-0.053-0.045-0.126-0.085-0.188-0.125zm1.813 4.531c-0.273 0.079-0.548 0.147-0.875 0.188 1.074 0.116 1.906 0.436 2.531 0.938-0.09-0.115-0.173-0.209-0.281-0.313-0.362-0.345-0.834-0.621-1.375-0.813zm-1.625 1.313c0.344 0.475 0.531 1.085 0.531 1.906 0 0.98-0.228 1.719-0.719 2.187s-1.263 0.688-2.281 0.688h-0.656v0.5h1.156c1.019 0 1.791-0.219 2.281-0.688 0.491-0.468 0.719-1.208 0.719-2.188 0-0.986-0.254-1.701-0.75-2.188-0.083-0.081-0.184-0.151-0.281-0.219z" fill="#fff"/>
</svg>
