<?xml version="1.0" encoding="UTF-8" standalone="no"?>
<!-- Created with Inkscape (http://www.inkscape.org/) -->
<svg id="svg4055" xmlns:rdf="http://www.w3.org/1999/02/22-rdf-syntax-ns#" xmlns="http://www.w3.org/2000/svg" height="22" width="22" version="1.1" xmlns:cc="http://creativecommons.org/ns#" xmlns:dc="http://purl.org/dc/elements/1.1/">
 <defs id="defs4057">
  <filter id="filter3912">
   <feGaussianBlur id="feGaussianBlur3914" stdDeviation="0.28933594"/>
  </filter>
 </defs>
 <metadata id="metadata4060">
  <rdf:RDF>
   <cc:Work rdf:about="">
    <dc:format>image/svg+xml</dc:format>
    <dc:type rdf:resource="http://purl.org/dc/dcmitype/StillImage"/>
    <dc:title/>
   </cc:Work>
  </rdf:RDF>
 </metadata>
 <g id="layer1" transform="translate(-523.29 -512.08)">
  <text id="text5195" style="word-spacing:0px;letter-spacing:0px" xml:space="preserve" transform="scale(.93035 1.0749)" line-height="125%" font-size="17.609px" y="492.98608" x="566.91028" font-family="DejaVu Serif" fill="#444444"><tspan id="tspan5197" y="492.98608" x="566.91028" font-weight="bold" fill="#444444">G</tspan></text>
  <path id="text3894" opacity=".8" d="m534.69 515.86c-2.0479 0.00001-3.6392 0.63086-4.8125 1.9062-1.1679 1.2754-1.7812 3.0258-1.7812 5.25 0 2.2181 0.61333 3.9746 1.7812 5.25 0.12571 0.13665 0.23925 0.25299 0.375 0.375-1.1007-1.2649-1.6562-2.9717-1.6562-5.125 0-2.2242 0.58208-3.9746 1.75-5.25 1.1732-1.2754 2.7959-1.9062 4.8438-1.9062 0.85327 0.00001 1.7046 0.0841 2.5312 0.28125 0.66053 0.15756 1.3326 0.40012 2 0.6875v-0.28125c-0.83729-0.40048-1.6734-0.70907-2.5-0.90625-0.82662-0.19715-1.678-0.28124-2.5312-0.28125zm3.0312 2.2188c0.43644 0.5474 0.76436 1.3048 0.96875 2.3438h0.375c-0.24482-0.95424-0.58532-1.6629-1.0625-2.125-0.0831-0.0814-0.18807-0.14946-0.28125-0.21875zm-1.9062 5.375v1.0938h0.5v-0.59375h3.8125v-0.5h-4.3125zm1.4375 1.5938v3.2812c-0.31466 0.23413-0.67854 0.41418-1.0625 0.53125-0.38398 0.11707-0.77079 0.1875-1.2188 0.1875-0.71603 0-1.3269-0.16866-1.8125-0.53125 0.54902 0.6868 1.327 1.0312 2.3125 1.0312 0.44796 0 0.83477-0.0704 1.2188-0.1875 0.38396-0.11707 0.74784-0.29712 1.0625-0.53125v-3.7812h-0.5z" filter="url(#filter3912)" fill="#fff"/>
 </g>
</svg>
