<?xml version="1.0" encoding="UTF-8" standalone="no"?>
<!-- Created with Inkscape (http://www.inkscape.org/) -->
<svg id="svg4055" xmlns:rdf="http://www.w3.org/1999/02/22-rdf-syntax-ns#" xmlns="http://www.w3.org/2000/svg" height="22" width="22" version="1.1" xmlns:cc="http://creativecommons.org/ns#" xmlns:dc="http://purl.org/dc/elements/1.1/">
 <defs id="defs4057">
  <filter id="filter4108">
   <feGaussianBlur id="feGaussianBlur4110" stdDeviation="0.29320256"/>
  </filter>
 </defs>
 <metadata id="metadata4060">
  <rdf:RDF>
   <cc:Work rdf:about="">
    <dc:format>image/svg+xml</dc:format>
    <dc:type rdf:resource="http://purl.org/dc/dcmitype/StillImage"/>
    <dc:title/>
   </cc:Work>
  </rdf:RDF>
 </metadata>
 <g id="layer1" transform="translate(-523.29 -512.08)">
  <text id="text5195" style="word-spacing:0px;letter-spacing:0px" xml:space="preserve" transform="scale(.93035 1.0749)" line-height="125%" font-size="17.609px" y="493.06223" x="569.04468" font-family="DejaVu Serif" fill="#444444"><tspan id="tspan5197" font-style="italic" y="493.06223" x="569.04468" fill="#444444">A</tspan></text>
  <path id="text4090" opacity=".8" d="m535.79 516.17-6.4062 12.812h-1.0625l-0.15625 1h0.5625l0.0937-0.5h1.0625l6.4062-12.812h0.9375l-0.0937-0.5h-1.3438zm0.375 2.75-0.3125 0.625 0.90625 5.4375h-3.625l-0.25 0.5h4.375l-1.0938-6.5625zm0.8125 7.5312 0.40625 2.5312h-1.3125l-0.15625 1h0.5625l0.0937-0.5h1.3125l-0.46875-3.0312h-0.4375zm-5.8438 2.5312-0.25 0.5h0.71875l0.0937-0.5h-0.5625zm8.5312 0 0.0937 0.5h0.59375l0.0625-0.5h-0.75z" filter="url(#filter4108)" fill="#fff"/>
 </g>
</svg>
