<?xml version="1.0" encoding="UTF-8" standalone="no"?>
<!-- Created with Inkscape (http://www.inkscape.org/) -->

<svg
   xmlns:osb="http://www.openswatchbook.org/uri/2009/osb"
   xmlns:dc="http://purl.org/dc/elements/1.1/"
   xmlns:cc="http://creativecommons.org/ns#"
   xmlns:rdf="http://www.w3.org/1999/02/22-rdf-syntax-ns#"
   xmlns:svg="http://www.w3.org/2000/svg"
   xmlns="http://www.w3.org/2000/svg"
   xmlns:xlink="http://www.w3.org/1999/xlink"
   xmlns:sodipodi="http://sodipodi.sourceforge.net/DTD/sodipodi-0.dtd"
   xmlns:inkscape="http://www.inkscape.org/namespaces/inkscape"
   width="22"
   height="22"
   id="svg6665"
   version="1.1"
   inkscape:version="0.48.4 r9939"
   sodipodi:docname="insert-signature.svg">
  <defs
     id="defs6667">
    <linearGradient
       id="linearGradient3844">
      <stop
         style="stop-color:#ececec;stop-opacity:1;"
         offset="0"
         id="stop3846" />
      <stop
         style="stop-color:#cecece;stop-opacity:1;"
         offset="1"
         id="stop3848" />
    </linearGradient>
    <linearGradient
       id="linearGradient3780">
      <stop
         style="stop-color:#ffffff;stop-opacity:1;"
         offset="0"
         id="stop3782" />
      <stop
         style="stop-color:#000000;stop-opacity:1;"
         offset="1"
         id="stop3784" />
    </linearGradient>
    <linearGradient
       id="linearGradient8680">
      <stop
         style="stop-color:#2e366a;stop-opacity:0.99215686;"
         offset="0"
         id="stop8682" />
      <stop
         id="stop8688"
         offset="0.4154374"
         style="stop-color:#3c91de;stop-opacity:1;" />
      <stop
         style="stop-color:#2e366a;stop-opacity:0.99358976;"
         offset="1"
         id="stop8684" />
    </linearGradient>
    <linearGradient
       inkscape:collect="always"
       id="linearGradient8662">
      <stop
         style="stop-color:#000000;stop-opacity:1;"
         offset="0"
         id="stop8664" />
      <stop
         style="stop-color:#000000;stop-opacity:0;"
         offset="1"
         id="stop8666" />
    </linearGradient>
    <linearGradient
       id="linearGradient8656"
       osb:paint="solid">
      <stop
         style="stop-color:#000000;stop-opacity:1;"
         offset="0"
         id="stop8658" />
    </linearGradient>
    <linearGradient
       id="linearGradient7212">
      <stop
         style="stop-color:#000000;stop-opacity:1;"
         offset="0"
         id="stop7214" />
      <stop
         style="stop-color:#000000;stop-opacity:0;"
         offset="1"
         id="stop7216" />
    </linearGradient>
    <linearGradient
       inkscape:collect="always"
       xlink:href="#linearGradient8662"
       id="linearGradient8670"
       x1="16.330652"
       y1="8.7101812"
       x2="17.635729"
       y2="1.9547856"
       gradientUnits="userSpaceOnUse" />
    <linearGradient
       inkscape:collect="always"
       xlink:href="#linearGradient8680"
       id="linearGradient8686"
       x1="12.19534"
       y1="11.109293"
       x2="20.350513"
       y2="12.52982"
       gradientUnits="userSpaceOnUse" />
    <linearGradient
       inkscape:collect="always"
       xlink:href="#linearGradient8680"
       id="linearGradient8809"
       x1="910.96173"
       y1="694.78741"
       x2="921.80005"
       y2="696.93402"
       gradientUnits="userSpaceOnUse"
       gradientTransform="translate(-26.508294,6.8837482)" />
    <linearGradient
       inkscape:collect="always"
       xlink:href="#linearGradient3780"
       id="linearGradient3840"
       gradientUnits="userSpaceOnUse"
       gradientTransform="translate(-19.422226,4.7882523)"
       x1="914.08923"
       y1="691.73273"
       x2="914.625"
       y2="689.00946" />
    <mask
       maskUnits="userSpaceOnUse"
       id="mask3836">
      <rect
         style="fill:url(#linearGradient3840);fill-opacity:1;fill-rule:nonzero;stroke:none"
         id="rect3838"
         width="21.294643"
         height="21.741072"
         x="874.80103"
         y="689.3111" />
    </mask>
    <radialGradient
       inkscape:collect="always"
       xlink:href="#linearGradient3844"
       id="radialGradient3850"
       cx="921.40735"
       cy="698.09576"
       fx="921.40735"
       fy="698.09576"
       r="3.38059"
       gradientTransform="matrix(0.37329045,0.12989255,-0.3815617,0.95521397,839.37118,-91.004306)"
       gradientUnits="userSpaceOnUse" />
    <linearGradient
       inkscape:collect="always"
       xlink:href="#linearGradient8680"
       id="linearGradient3859"
       gradientUnits="userSpaceOnUse"
       gradientTransform="translate(-26.508294,6.8837482)"
       x1="910.96173"
       y1="694.78741"
       x2="921.80005"
       y2="696.93402" />
    <radialGradient
       inkscape:collect="always"
       xlink:href="#linearGradient3844"
       id="radialGradient3861"
       gradientUnits="userSpaceOnUse"
       gradientTransform="matrix(0.37329045,0.12989255,-0.3815617,0.95521397,839.37118,-91.004306)"
       cx="921.40735"
       cy="698.09576"
       fx="921.40735"
       fy="698.09576"
       r="3.38059" />
    <radialGradient
       inkscape:collect="always"
       xlink:href="#linearGradient3844"
       id="radialGradient3865"
       gradientUnits="userSpaceOnUse"
       gradientTransform="matrix(0.32194816,0.22927541,-0.63390316,0.81005546,1060.6407,-75.559535)"
       cx="921.40735"
       cy="698.09576"
       fx="921.40735"
       fy="698.09576"
       r="3.38059" />
    <linearGradient
       inkscape:collect="always"
       xlink:href="#linearGradient8680"
       id="linearGradient3873"
       gradientUnits="userSpaceOnUse"
       gradientTransform="translate(-26.508294,6.8837482)"
       x1="910.96173"
       y1="694.78741"
       x2="921.80005"
       y2="696.93402" />
    <radialGradient
       inkscape:collect="always"
       xlink:href="#linearGradient3844"
       id="radialGradient3875"
       gradientUnits="userSpaceOnUse"
       gradientTransform="matrix(0.32194816,0.22927541,-0.63390316,0.81005546,1060.6407,-75.559535)"
       cx="921.40735"
       cy="698.09576"
       fx="921.40735"
       fy="698.09576"
       r="3.38059" />
  </defs>
  <sodipodi:namedview
     id="base"
     pagecolor="#ffffff"
     bordercolor="#666666"
     borderopacity="1.0"
     inkscape:pageopacity="0.0"
     inkscape:pageshadow="2"
     inkscape:zoom="32"
     inkscape:cx="9.8024665"
     inkscape:cy="9.5718478"
     inkscape:document-units="px"
     inkscape:current-layer="layer1"
     showgrid="false"
     fit-margin-top="0"
     fit-margin-left="0"
     fit-margin-right="0"
     fit-margin-bottom="0"
     inkscape:window-width="1920"
     inkscape:window-height="1014"
     inkscape:window-x="0"
     inkscape:window-y="27"
     inkscape:window-maximized="1" />
  <metadata
     id="metadata6670">
    <rdf:RDF>
      <cc:Work
         rdf:about="">
        <dc:format>image/svg+xml</dc:format>
        <dc:type
           rdf:resource="http://purl.org/dc/dcmitype/StillImage" />
        <dc:title></dc:title>
      </cc:Work>
    </rdf:RDF>
  </metadata>
  <g
     inkscape:label="Layer 1"
     inkscape:groupmode="layer"
     id="layer1"
     transform="translate(-900.42859,-684.2193)">
    <path
       style="fill:#000000;fill-opacity:1;fill-rule:nonzero;stroke:none"
       id="path7202"
       d="m 2.7162576,15.606291 c 0.014982,-0.0061 0.030116,-0.01186 0.044947,-0.01833 0.044032,-0.0192 0.097586,-0.04461 0.1391489,-0.06714 0.029295,-0.01588 0.115542,-0.06645 0.08666,-0.04983 -1.0038452,0.57765 -1.2838827,0.741183 -0.8581766,0.492994 0.037046,-0.02158 0.073951,-0.0434 0.111137,-0.06473 0.3901054,-0.223795 0.7795876,-0.448685 1.1707359,-0.670652 0.1635679,-0.09282 0.3365902,-0.170765 0.5032587,-0.257936 0.2575795,-0.140862 0.5187569,-0.275236 0.7722876,-0.423334 -2.1829922,1.306573 -1.0930511,0.627884 -0.8202154,0.470171 0.4751945,-0.274686 0.9514185,-0.555191 1.4317232,-0.823686 0.142362,-0.0764 0.2991256,-0.120806 0.4528415,-0.168535 0.092107,-0.02377 0.1895155,-0.05226 0.2845027,-0.03273 0.1019002,0.05033 0.1453779,0.142963 0.182287,0.24448 0.042624,0.163605 0.049796,0.334568 0.06126,0.502654 0.01013,0.221059 0.018945,0.44211 0.029896,0.663161 0.016456,0.256167 0.00893,0.51265 -0.014887,0.767993 -0.02608,0.262109 -0.085432,0.519124 -0.1458886,0.774983 -0.058063,0.245373 -0.1262914,0.488199 -0.1847641,0.733455 -0.048858,0.231812 -0.099166,0.463109 -0.1648223,0.690807 -0.060983,0.207897 -0.1436609,0.408045 -0.224407,0.60874 -0.076214,0.195637 -0.1765255,0.379946 -0.2875951,0.55762 -0.1229874,0.189026 -0.2690224,0.36206 -0.4187308,0.530284 -0.1080837,0.122432 -0.2253887,0.23643 -0.3582161,0.331605 -0.9365499,0.568706 -0.9088579,0.650165 -1.6646157,0.742537 -0.1617523,0.01598 -0.3238321,0.02852 -0.4862917,0.03398 -0.1146667,-0.0056 -0.2089106,-0.0583 -0.3027264,-0.11981 C 1.9620107,20.999097 1.8715075,20.938702 1.7802895,20.879209 1.6972907,20.817586 1.653071,20.717491 1.6033139,20.62964 1.5322312,20.50861 1.4548867,20.391629 1.3913122,20.26633 c -0.07264,-0.167297 -0.077499,-0.350154 -0.075953,-0.529538 0.00745,-0.273623 0.081469,-0.538238 0.1656536,-0.796711 0.1177555,-0.330292 0.2815884,-0.640339 0.4449819,-0.949575 0.1838689,-0.336162 0.3698925,-0.67143 0.574008,-0.995796 0.1722137,-0.280536 0.3960701,-0.521103 0.6240914,-0.756187 0.2471914,-0.251128 0.5159797,-0.479759 0.7906068,-0.700066 0.313975,-0.239169 0.6487409,-0.449607 0.9828024,-0.659265 0.2562013,-0.152136 0.5076318,-0.311266 0.7522445,-0.481369 0.1960321,-0.137571 0.3878661,-0.280917 0.5829129,-0.419856 0.1499281,-0.112844 0.3077473,-0.213969 0.4533425,-0.332505 0.1496353,-0.126105 0.3009994,-0.250081 0.4379018,-0.390134 0.1195688,-0.131818 0.2271819,-0.274088 0.3189983,-0.426504 0.062814,-0.102531 0.113777,-0.2116 0.1599077,-0.322448 0.063539,-0.144198 0.1109773,-0.294886 0.1634422,-0.443344 0.064032,-0.188872 0.126562,-0.378363 0.1864819,-0.568603 0.069997,-0.218007 0.1527336,-0.431587 0.2355382,-0.644965 0.054774,-0.155522 0.1151256,-0.309556 0.1523278,-0.470447 0.026038,-0.144681 0.049854,-0.290434 0.045029,-0.4377538 C 8.3728056,9.8149502 8.2986317,9.7164754 8.2186271,9.6233765 8.1527242,9.5612044 8.0878966,9.4961292 7.9999384,9.4682539 7.8943613,9.4485021 7.7961169,9.4921617 7.7002258,9.5308343 7.672613,9.5438024 7.6443143,9.5554004 7.6173876,9.5697387 7.5876293,9.5855848 7.501067,9.6379656 7.530365,9.621284 7.854214,9.4368913 8.1754789,9.2479294 8.5010524,9.0665988 c 0.033437,-0.018623 -0.06322,0.04321 -0.093763,0.066276 C 8.3324417,9.1893972 8.3044135,9.2171152 8.2347401,9.279519 8.0586202,9.4483447 7.9233976,9.6519943 7.8010037,9.8614313 7.6446745,10.143055 7.5121438,10.43663 7.4008933,10.738685 7.2913871,11.042517 7.242477,11.362648 7.1966248,11.68095 c -0.046701,0.306129 -0.098682,0.611218 -0.1604766,0.914653 -0.069932,0.311062 -0.1303383,0.624124 -0.2053817,0.934029 -0.053132,0.217313 -0.1256675,0.428574 -0.2144463,0.633693 -0.070224,0.153442 -0.1444406,0.304866 -0.2009688,0.464022 -0.023085,0.08928 -0.044673,0.04986 -0.027236,0.02219 0.00703,-0.01116 0.023065,-0.01327 0.03568,-0.01714 0.055026,-0.01686 0.1124832,-0.02441 0.1687912,-0.03631 0.2495019,-0.05445 0.4969053,-0.117852 0.7472309,-0.168556 0.2078164,-0.04257 0.4206442,-0.04789 0.6319581,-0.05484 0.1112543,0.0017 0.222991,-0.008 0.3342245,-0.0037 0.010785,4.09e-4 0.1315998,0.01128 0.1444173,0.01242 0.085402,0.01413 0.1710335,0.02622 0.2517865,0.05899 0.069322,0.0321 0.035224,0.0175 0.1021532,0.04413 0.096055,0.03846 0.1784192,0.09809 0.2647994,0.153327 0.073649,0.04237 0.1387492,0.09149 0.1985346,0.151826 0.069801,0.07284 0.1257312,0.157748 0.1829061,0.240546 0.075399,0.100562 0.1419414,0.207061 0.2040451,0.316171 0.053096,0.100156 0.083151,0.209652 0.117392,0.317073 0.028897,0.07491 0.054643,0.150188 0.066664,0.229714 0.00421,0.07158 0.015172,0.141967 0.026594,0.212643 0.011359,0.02911 2.46e-4,0.06649 0.011714,0.09523 0.00541,0.01355 0.015129,-0.02494 0.023065,-0.03718 0.011365,-0.01752 0.025663,-0.03295 0.038495,-0.04943 -1.6473699,0.951732 -1.0951999,0.71807 -0.7535789,0.329888 0.1826495,-0.207543 0.3377825,-0.433409 0.4931041,-0.661483 0.3230554,-0.499315 0.6008614,-1.025465 0.8693004,-1.555496 0.221221,-0.454212 0.697738,-1.414258 1.360067,-1.001832 0.09569,0.09864 0.130656,0.235312 0.170828,0.363106 0.05204,0.175681 0.102576,0.351999 0.149221,0.529214 0.04699,0.18583 0.08151,0.37423 0.112944,0.563198 0.02677,0.237133 0.05235,0.47409 0.08814,0.710058 0.03428,0.212668 0.06367,0.426352 0.108012,0.637221 0.04557,0.169703 0.07868,0.34187 0.105252,0.515444 0.02396,0.171647 0.0343,0.344972 0.04747,0.517733 0.01488,0.200315 0.04953,0.398524 0.07848,0.597144 0.03496,0.229975 0.07662,0.458743 0.120696,0.687112 0.03845,0.200967 0.0777,0.401683 0.134613,0.598349 0.0354,0.13636 0.08742,0.26712 0.140805,0.39718 0.03573,0.09033 0.07249,0.179719 0.116236,0.266461 0.03868,0.06517 0.07198,0.136032 0.124362,0.191551 0.03586,0.04701 0.07495,0.09145 0.110956,0.138208 0,0 -1.101429,0.656126 -1.101429,0.656126 l 0,0 c -0.03528,-0.04495 -0.06752,-0.09205 -0.102723,-0.137022 -0.05344,-0.0685 -0.09652,-0.143971 -0.136931,-0.220759 -0.04265,-0.09072 -0.08493,-0.180839 -0.113685,-0.277246 -0.05547,-0.135393 -0.09871,-0.27549 -0.133505,-0.417596 -0.05566,-0.202218 -0.09403,-0.407487 -0.128609,-0.614261 -0.04161,-0.229361 -0.09004,-0.457466 -0.127185,-0.687658 -0.034,-0.200007 -0.06664,-0.400419 -0.09074,-0.601875 -0.01332,-0.169591 -0.02923,-0.339002 -0.04597,-0.508257 -0.02563,-0.172233 -0.05242,-0.344519 -0.09624,-0.513271 -0.04161,-0.214841 -0.06837,-0.432032 -0.102606,-0.64811 -0.03153,-0.234649 -0.06223,-0.469334 -0.09324,-0.704051 -0.03109,-0.185035 -0.07426,-0.367436 -0.112127,-0.551139 -0.04449,-0.173758 -0.09469,-0.346743 -0.151172,-0.516884 -0.02349,-0.06181 -0.04615,-0.124371 -0.07439,-0.184247 -0.0027,-0.0058 -0.02385,-0.05109 -0.03331,-0.05446 -0.0038,-0.0014 -0.0056,0.0059 -0.0083,0.0089 -0.04238,0.431954 -0.01018,0.02835 1.044188,-0.598079 0.01795,-0.01066 -0.03748,0.01977 -0.05228,0.03449 -0.08975,0.08926 -0.153018,0.24089 -0.225393,0.341311 -0.31381,0.519598 -0.596513,1.057134 -0.904591,1.580105 -0.138226,0.221515 -0.277079,0.440545 -0.431606,0.651159 -0.01081,0.01474 -0.15741,0.215292 -0.191992,0.237176 -0.3772715,0.238747 -0.7672827,0.456741 -1.1509238,0.685111 -0.02887,0.0019 -0.058438,0.0124 -0.08661,0.0058 -0.026874,-0.0063 -0.050191,-0.02451 -0.070937,-0.04271 -0.052286,-0.04588 -0.053976,-0.09572 -0.057642,-0.158149 -0.00887,-0.0718 -0.026621,-0.142245 -0.026236,-0.214908 -0.00741,-0.07405 -0.025133,-0.145375 -0.052512,-0.214763 -0.026575,-0.100553 -0.051945,-0.201804 -0.099326,-0.295099 -0.056912,-0.106337 -0.120959,-0.208157 -0.1948934,-0.303682 -0.056727,-0.07473 -0.1133246,-0.150592 -0.1814828,-0.215437 -0.055909,-0.05163 -0.1192899,-0.09211 -0.1821679,-0.134745 -0.077625,-0.05375 -0.1611438,-0.09744 -0.248478,-0.133484 -0.1039986,-0.04318 -0.2122199,-0.06926 -0.325112,-0.0758 -0.1533511,-0.01046 -0.3072442,-0.0072 -0.4608359,-0.0046 -0.2041835,0.0058 -0.4080615,0.02076 -0.6082629,0.06387 -0.2525206,0.05286 -0.5027377,0.115275 -0.7545027,0.171468 -0.057625,0.0097 -0.1476894,0.03013 -0.2085337,0.02141 -0.077663,-0.01112 -0.1597738,-0.07269 -0.1470492,-0.160339 0.00262,-0.01803 0.014679,-0.03336 0.022018,-0.05004 0.033638,-0.06959 0.058539,-0.142074 0.090848,-0.212291 0.040671,-0.08839 0.087761,-0.17386 0.1263158,-0.263273 0.096033,-0.201276 0.1759203,-0.40906 0.2395654,-0.622927 0.090072,-0.307158 0.1542067,-0.620475 0.2222366,-0.933056 0.057106,-0.301042 0.102744,-0.603666 0.1552106,-0.905485 0.048603,-0.326463 0.1004989,-0.655268 0.2058798,-0.968975 C 6.4103983,10.945225 6.5353501,10.649404 6.6797727,10.36247 6.7961866,10.144795 6.9232919,9.9336751 7.0902422,9.75003 7.5351459,9.3040342 8.1056686,8.9955291 8.6884875,8.7620282 c 0.1256889,-0.036068 0.2543632,-0.060833 0.3757558,0.00346 0.090074,0.055422 0.1667795,0.1286976 0.2358293,0.2085297 0.094252,0.116132 0.178679,0.2377166 0.2036035,0.3889655 0.013427,0.1577518 -0.011563,0.3119029 -0.031747,0.4682589 -0.010529,0.057463 -0.016746,0.099176 -0.032934,0.1556224 -0.033401,0.1164624 -0.088218,0.2259294 -0.1246818,0.3413884 -0.08508,0.210344 -0.1722066,0.420098 -0.2404575,0.636732 -0.05771,0.189481 -0.1147613,0.379157 -0.1751629,0.567705 -0.050196,0.148813 -0.1005161,0.297497 -0.1471959,0.447455 -0.053123,0.11273 -0.089635,0.233814 -0.1582751,0.339371 -0.096677,0.159039 -0.2018903,0.312507 -0.3232974,0.454109 -0.1258605,0.151197 -0.275562,0.276538 -0.4247797,0.404024 -0.045588,0.03882 -0.089538,0.07961 -0.1363751,0.11691 -0.1032697,0.08224 -0.2199272,0.145039 -0.323707,0.226493 -0.1983624,0.149887 0.023963,-0.01524 -0.183262,0.129644 -0.1386032,0.0969 -0.2707178,0.203158 -0.4112703,0.2974 -0.2489405,0.177555 -0.5042078,0.345361 -0.7704442,0.496145 -0.3367592,0.206226 -0.6724487,0.415458 -0.991997,0.64776 -0.2723213,0.214778 -0.5364281,0.440516 -0.7857476,0.681775 -0.2271957,0.231058 -0.4562523,0.46292 -0.6347064,0.735237 -0.216352,0.317721 -0.408533,0.650929 -0.5897197,0.989826 -0.1558498,0.301637 -0.3127824,0.603033 -0.4306315,0.922183 -0.084928,0.243041 -0.1568744,0.493451 -0.1660699,0.752465 0.00113,0.158061 0.00729,0.320518 0.065694,0.469435 0.05965,0.123148 0.1362585,0.236855 0.2074265,0.353521 0.046765,0.07192 0.090011,0.149767 0.1629358,0.198684 0.08101,0.06413 0.1666965,0.122086 0.2574145,0.171736 0.088055,0.04281 0.1695465,0.06715 0.2686271,0.05993 0.1515264,-0.0012 0.3032783,-0.0066 0.4535735,-0.02736 0.1103917,-0.01631 0.2201976,-0.03396 0.3278808,-0.06409 0.4145129,-0.115996 1.0197914,-0.60846 -0.8266012,0.516908 0.1478191,-0.07849 0.2650675,-0.184499 0.3818233,-0.303699 0.151761,-0.164142 0.3038857,-0.328394 0.4326506,-0.511896 0.107296,-0.1733 0.2140082,-0.347559 0.2928106,-0.536247 0.080229,-0.199643 0.1698965,-0.395509 0.2334674,-0.601419 0.073219,-0.224178 0.1261847,-0.45457 0.1742457,-0.685327 0.054259,-0.247041 0.1255423,-0.489938 0.1861619,-0.735462 0.060901,-0.251514 0.1218702,-0.503683 0.1555321,-0.760603 0.024278,-0.248577 0.033736,-0.498072 0.014942,-0.747532 -0.012474,-0.218845 -0.024976,-0.437614 -0.035828,-0.656534 -0.013863,-0.15431 -0.027381,-0.310524 -0.064487,-0.461133 -0.019344,-0.04998 -0.042869,-0.128433 -0.1102792,-0.113455 -0.082695,0.01604 -0.1659707,0.02956 -0.2455245,0.05872 -0.1468592,0.04807 -0.2935592,0.09717 -0.4257726,0.179398 -0.1044819,0.05858 -0.061879,0.03454 -0.1701311,0.0959 -0.031925,0.0181 -0.1275071,0.07272 -0.095761,0.05431 0.3172726,-0.183974 0.6350084,-0.367149 0.9523446,-0.551014 0.037701,-0.02184 -0.075626,0.0433 -0.1134385,0.06495 -0.3883499,0.224961 -0.7766997,0.449922 -1.1650496,0.674883 -0.2573702,0.143147 -0.5166836,0.282804 -0.7769328,0.42064 -0.1266246,0.06474 -0.2537499,0.128578 -0.3794392,0.195128 -0.041511,0.02198 -0.1646218,0.09051 -0.1240878,0.06677 0.065161,-0.03815 1.3501761,-0.781852 0.8252087,-0.478022 -0.4634021,0.276695 -0.3115777,0.186742 -1.2613365,0.729481 -0.099927,0.0571 -0.208062,0.102156 -0.3188431,0.132947 0,0 1.0158165,-0.776752 1.0158165,-0.776752 z"
       inkscape:connector-curvature="0"
       transform="translate(900.42859,684.2193)" />
    <g
       id="g3868"
       transform="translate(-0.1875,0.375)">
      <path
         transform="matrix(0.9138951,0.02916988,-0.12956575,1.1023997,194.56326,-104.29886)"
         mask="url(#mask3836)"
         sodipodi:nodetypes="cccc"
         inkscape:connector-curvature="0"
         id="path7210"
         d="m 888.30688,690.10346 -2.60119,12.43889 5.91169,1.23434 2.57512,-12.50165"
         style="fill:url(#linearGradient3873);fill-opacity:1;fill-rule:nonzero;stroke:#000000;stroke-width:0.50066453;stroke-linecap:butt;stroke-linejoin:miter;stroke-miterlimit:4;stroke-opacity:1;stroke-dasharray:none" />
      <path
         sodipodi:nodetypes="cccc"
         inkscape:connector-curvature="0"
         id="path3842"
         d="m 912.90679,696.01618 0.30405,5.25331 2.08892,0.60935 2.98991,-4.27396"
         style="fill:url(#radialGradient3875);fill-opacity:1;stroke:#000000;stroke-width:0.45993432;stroke-linecap:butt;stroke-linejoin:miter;stroke-miterlimit:4;stroke-opacity:1;stroke-dasharray:none" />
      <path
         sodipodi:nodetypes="ccc"
         inkscape:connector-curvature="0"
         id="path3852"
         d="m 913.18227,701.08114 0.31101,3.10057 1.90916,-2.43627"
         style="fill:#313131;fill-opacity:1;stroke:#000000;stroke-width:0.45736727;stroke-linecap:butt;stroke-linejoin:miter;stroke-miterlimit:4;stroke-opacity:1;stroke-dasharray:none" />
    </g>
  </g>
</svg>
