<?xml version="1.0" encoding="UTF-8" standalone="no"?>
<svg id="svg2" xmlns:rdf="http://www.w3.org/1999/02/22-rdf-syntax-ns#" xmlns="http://www.w3.org/2000/svg" height="22" width="22" version="1.1" xmlns:cc="http://creativecommons.org/ns#" xmlns:xlink="http://www.w3.org/1999/xlink" viewBox="0 0 744.1 1052.36" xmlns:dc="http://purl.org/dc/elements/1.1/">
 <metadata id="metadata57">
  <rdf:RDF>
   <cc:Work rdf:about="">
    <dc:format>image/svg+xml</dc:format>
    <dc:type rdf:resource="http://purl.org/dc/dcmitype/StillImage"/>
   </cc:Work>
  </rdf:RDF>
 </metadata>
 <defs id="defs4">
  <linearGradient id="b" y2="13.22" gradientUnits="userSpaceOnUse" y1="10.27" x2="38.8" x1="27.8">
   <stop id="stop7" stop-color="#014" offset="0"/>
   <stop id="stop9" stop-color="#579" offset=".5"/>
   <stop id="stop11" stop-color="#014" offset="1"/>
  </linearGradient>
  <radialGradient id="g" gradientUnits="userSpaceOnUse" cy="45" cx="2.7" gradientTransform="matrix(29.03 .2224 -.07362 9.612 -167 540.2)" r="11">
   <stop id="stop14" offset="0"/>
   <stop id="stop16" stop-opacity="0" offset="1"/>
  </radialGradient>
  <linearGradient id="c" x1="24.84" gradientUnits="userSpaceOnUse" x2="37.4" gradientTransform="matrix(22.865 0 0 22.865 -154.11 .2025)" y1="22.41" y2="25.75">
   <stop id="stop19" stop-color="#888" offset="0"/>
   <stop id="stop21" stop-color="#fff" offset=".5"/>
   <stop id="stop23" stop-color="#888" offset="1"/>
  </linearGradient>
  <linearGradient id="d" y2="1888.3" xlink:href="#b" gradientUnits="userSpaceOnUse" y1="1887.9" gradientTransform="matrix(47.835,0,0,47.835,-169.9,-89523)" x2="14.54" x1="13.155"/>
  <linearGradient id="f" x1="13.5" gradientUnits="userSpaceOnUse" y1="1877" gradientTransform="matrix(47.835,0,0,47.835,-169.9,-89523)" x2="19.72" y2="1878.7">
   <stop id="stop27" stop-color="#248" offset="0"/>
   <stop id="stop29" stop-color="#4ae" offset=".5"/>
   <stop id="stop31" stop-color="#248" offset="1"/>
  </linearGradient>
  <linearGradient id="a" x1="13.62" xlink:href="#b" gradientUnits="userSpaceOnUse" y1="1877.1" gradientTransform="matrix(47.835,0,0,47.835,-169.9,-89523)" x2="19.56" y2="1878.7"/>
  <linearGradient id="e" x1="14.04" gradientUnits="userSpaceOnUse" y1="1874.7" gradientTransform="matrix(47.835,0,0,47.835,-169.9,-89523)" x2="14.43" y2="1873.2">
   <stop id="stop35" stop-color="#fff" stop-opacity="0" offset="0"/>
   <stop id="stop37" stop-color="#fff" offset="1"/>
  </linearGradient>
 </defs>
 <g id="g4185">
  <path id="path39" d="m236.82 741.64c-20.703 86.581-64.003 167.52-126.09 231.52 80.937-43.291 146.81-109.16 191.96-188.23 33.877 60.224 67.543 112.46 114.56 161.4 26.491 10.562-3.5293-35.297-11.059-54.101l-99.736-171.3-52.714 79.071 20.703-82.802-312.41-1.8823c-64.003 26.348-96.005 109.16-62.09 171.3 28.232 56.445 101.65 82.802 157.62 56.445 96.005-37.641 129.87-176.94 60.224-255.97-30.112-33.877-77.971-49.414-85.481-96.483-16.938-73.427 3.7641-145.42 71.513-186.84 48.935-31.997 124.23-22.588 156.23 28.232 30.112 43.291 15.058 111.03-31.997 133.65-30.112 22.588-71.513-41.406-88.447 5.6445-7.5292 33.877 35.761 45.171 58.359 30.112 56.11-34.059 103.08-77.158 111.03-144.94 9.4091-48.935-22.588-103.51-73.427-111.03-64.003-11.294-122.36 26.348-167.52 67.304-73.427 64.003-105.38 160.49-67.304 252.71 16.938 41.406 61.037 56.971 92.991 87.06 35.761 31.997 47.055 89.882 15.058 128.01-30.112 41.406-96.005 37.641-131.74 5.6445-37.641-30.112-73.427-82.802-50.801-131.74 13.174-26.348 43.291-35.761 69.648-33.877 58.359 0 116.67-5.6445 173.16 0 24.468 3.7641 47.055 9.4091 67.304 20.703m82.037-56.971c-13.174-62.09 32.786-86.581 64.769-112.46 5.6445-3.7641 9.4091 0 3.7641 5.6445-9.4091 22.588-31.997 40.024-28.232 66.395 0 11.294-38.431 46.553-40.315 40.904"/>
  <g id="g41" stroke-linejoin="round" transform="matrix(.99255 .12187 -.12187 .99255 92.973 -65.57)">
   <ellipse id="ellipse43" opacity=".4" rx="322.32" ry="105.7" transform="rotate(-43.014)" cy="976" cx="-94.7" fill="url(#g)"/>
   <path id="path45" stroke="#014" stroke-width="12.8" fill="url(#c)" d="m413.86 511.7 29.496 444.5 8.2314 2.2865 249-369.96"/>
   <path id="path47" fill="url(#d)" d="m437.6 779.91 11.959 173.64 98.54-143.5"/>
   <path id="path49" stroke="url(#a)" stroke-width="12.9" fill="url(#f)" d="m529.93 86.306-115.76 426.21 287.01 76.536 115.28-425.73"/>
   <path id="path51" stroke="url(#a)" stroke-width="9.57" fill="none" d="m635.16 564.66 113.37-421.43m-154.03-41.138-113.37 421.9"/>
   <path id="path53" fill="url(#e)" d="m520.36 81.522-18.66 70.318 307.1 82.28 18.66-70.32-307.1-82.278"/>
  </g>
 </g>
</svg>
