<?xml version="1.0" encoding="UTF-8" standalone="no"?>
<!-- Created with Inkscape (http://www.inkscape.org/) -->

<svg
   xmlns:dc="http://purl.org/dc/elements/1.1/"
   xmlns:cc="http://creativecommons.org/ns#"
   xmlns:rdf="http://www.w3.org/1999/02/22-rdf-syntax-ns#"
   xmlns:svg="http://www.w3.org/2000/svg"
   xmlns="http://www.w3.org/2000/svg"
   xmlns:sodipodi="http://sodipodi.sourceforge.net/DTD/sodipodi-0.dtd"
   xmlns:inkscape="http://www.inkscape.org/namespaces/inkscape"
   width="22"
   height="22"
   id="svg7700"
   version="1.1"
   inkscape:version="0.48.4 r9939"
   sodipodi:docname="insert-link.svg">
  <defs
     id="defs7702">
    <linearGradient
       id="linearGradient8229">
      <stop
         style="stop-color:#ececec;stop-opacity:1;"
         offset="0"
         id="stop8231" />
      <stop
         style="stop-color:#9da09f;stop-opacity:1;"
         offset="1"
         id="stop8233" />
    </linearGradient>
  </defs>
  <sodipodi:namedview
     id="base"
     pagecolor="#ffffff"
     bordercolor="#666666"
     borderopacity="1.0"
     inkscape:pageopacity="0.0"
     inkscape:pageshadow="2"
     inkscape:zoom="38.272727"
     inkscape:cx="11"
     inkscape:cy="11"
     inkscape:document-units="px"
     inkscape:current-layer="layer1"
     showgrid="false"
     fit-margin-top="0"
     fit-margin-left="0"
     fit-margin-right="0"
     fit-margin-bottom="0"
     inkscape:window-width="1920"
     inkscape:window-height="1041"
     inkscape:window-x="0"
     inkscape:window-y="0"
     inkscape:window-maximized="1" />
  <metadata
     id="metadata7705">
    <rdf:RDF>
      <cc:Work
         rdf:about="">
        <dc:format>image/svg+xml</dc:format>
        <dc:type
           rdf:resource="http://purl.org/dc/dcmitype/StillImage" />
        <dc:title></dc:title>
      </cc:Work>
    </rdf:RDF>
  </metadata>
  <g
     inkscape:label="Layer 1"
     inkscape:groupmode="layer"
     id="layer1"
     transform="translate(-843.28571,-701.36218)">
    <g
       id="g8544"
       transform="translate(-0.03819,0)">
      <path
         sodipodi:nodetypes="ssssssssssssssssss"
         inkscape:connector-curvature="0"
         id="rect8508"
         d="m 847.87034,708.6932 c -1.78875,0 -3.22236,1.30374 -3.22236,2.89165 l 0,1.55466 c 0,1.58791 1.43361,2.89165 3.22236,2.89165 l 2.90712,0 c 1.78875,0 3.22236,-1.30374 3.22236,-2.89165 l 0,-1.55466 c 0,-1.58791 -1.43361,-2.89165 -3.22236,-2.89165 z m 0.51649,1.76812 1.7863,0 c 1.10879,0 1.69598,0.40915 1.69598,1.39344 l 0,0.99498 c 0,0.9843 -0.66558,1.28893 -1.77437,1.28893 l -1.7863,0 c -1.10879,0 -1.59148,-0.34383 -1.59148,-1.32813 l 0,-0.99498 c 0,-0.98429 0.56108,-1.35424 1.66987,-1.35424 z"
         style="fill:#dcdcdc;fill-opacity:1;fill-rule:nonzero;stroke:#393a3d;stroke-width:0.69803369;stroke-linecap:square;stroke-linejoin:miter;stroke-miterlimit:4;stroke-opacity:1;stroke-dasharray:none" />
      <path
         style="fill:#dcdcdc;fill-opacity:1;fill-rule:nonzero;stroke:#393a3d;stroke-width:0.69803369;stroke-linecap:square;stroke-linejoin:miter;stroke-miterlimit:4;stroke-opacity:1;stroke-dasharray:none"
         d="m 857.87034,708.6932 c -1.78875,0 -3.22236,1.30374 -3.22236,2.89165 l 0,1.55466 c 0,1.58791 1.43361,2.89165 3.22236,2.89165 l 2.90712,0 c 1.78875,0 3.22236,-1.30374 3.22236,-2.89165 l 0,-1.55466 c 0,-1.58791 -1.43361,-2.89165 -3.22236,-2.89165 z m 0.51649,1.76812 1.7863,0 c 1.10879,0 1.69598,0.40915 1.69598,1.39344 l 0,0.99498 c 0,0.9843 -0.66558,1.28893 -1.77437,1.28893 l -1.7863,0 c -1.10879,0 -1.59148,-0.34383 -1.59148,-1.32813 l 0,-0.99498 c 0,-0.98429 0.56108,-1.35424 1.66987,-1.35424 z"
         id="path8520"
         inkscape:connector-curvature="0"
         sodipodi:nodetypes="ssssssssssssssssss" />
      <path
         id="path8522"
         transform="translate(843.28571,701.36218)"
         d="m 9.90625,8.3125 c 0.219379,0.2493818 0.400172,0.5353409 0.53125,0.84375 l 1.21875,0 C 11.78881,8.8397468 11.967186,8.5700989 12.1875,8.3125 l -2.28125,0 z M 6.375,9.09375 C 5.9621997,9.4039663 5.725025,9.7591417 5.71875,10.0625 l -0.03125,1.25 c -0.0151,0.72807 1.26414,2.375 3.53125,2.375 l 3.6875,0 c 2.26711,0 3.46875,-1.61553 3.46875,-2.34375 l 0,-1.28125 c 0,-0.2949291 -0.211045,-0.6348842 -0.59375,-0.9375 l -0.4375,0 c -0.63503,0 -1.1133,0.14044 -1.40625,0.4375 0.224818,0.1572379 0.34375,0.3524935 0.34375,0.53125 l 0,0.75 c 0,0.45142 -0.90722,0.78125 -2.3125,0.78125 l -2.28125,0 C 8.28222,11.625 7.75,11.29515 7.75,10.84375 l 0,-0.6875 c 0,-0.1767274 0.1306645,-0.3924485 0.375,-0.5625 -0.2943153,-0.3314596 -0.7859446,-0.5 -1.4375,-0.5 l -0.3125,0 z"
         style="fill:#f4f4f5;fill-opacity:1;fill-rule:nonzero;stroke:#393a3d;stroke-width:0.60000002;stroke-linecap:square;stroke-linejoin:miter;stroke-miterlimit:4;stroke-opacity:1;stroke-dasharray:none"
         inkscape:connector-curvature="0" />
    </g>
  </g>
</svg>
