<?xml version="1.0" encoding="UTF-8" standalone="no"?>
<!-- Created with Inkscape (http://www.inkscape.org/) -->

<svg
   xmlns:dc="http://purl.org/dc/elements/1.1/"
   xmlns:cc="http://creativecommons.org/ns#"
   xmlns:rdf="http://www.w3.org/1999/02/22-rdf-syntax-ns#"
   xmlns:svg="http://www.w3.org/2000/svg"
   xmlns="http://www.w3.org/2000/svg"
   xmlns:sodipodi="http://sodipodi.sourceforge.net/DTD/sodipodi-0.dtd"
   xmlns:inkscape="http://www.inkscape.org/namespaces/inkscape"
   width="22"
   height="22"
   id="svg9896"
   version="1.1"
   inkscape:version="0.48.4 r9939"
   sodipodi:docname="Nowy dokument 48">
  <defs
     id="defs9898">
    <filter
       inkscape:collect="always"
       id="filter10487"
       x="-0.08373546"
       width="1.1674709"
       y="-0.13860559"
       height="1.2772112">
      <feGaussianBlur
         inkscape:collect="always"
         stdDeviation="0.58113281"
         id="feGaussianBlur10489" />
    </filter>
    <filter
       inkscape:collect="always"
       id="filter10491"
       x="-0.13307104"
       width="1.2661421"
       y="-0.085893642"
       height="1.1717873">
      <feGaussianBlur
         inkscape:collect="always"
         stdDeviation="0.58045312"
         id="feGaussianBlur10493" />
    </filter>
  </defs>
  <sodipodi:namedview
     id="base"
     pagecolor="#ffffff"
     bordercolor="#666666"
     borderopacity="1.0"
     inkscape:pageopacity="0.0"
     inkscape:pageshadow="2"
     inkscape:zoom="11.313708"
     inkscape:cx="18.926984"
     inkscape:cy="14.173711"
     inkscape:document-units="px"
     inkscape:current-layer="layer1"
     showgrid="false"
     fit-margin-top="0"
     fit-margin-left="0"
     fit-margin-right="0"
     fit-margin-bottom="0"
     inkscape:window-width="1920"
     inkscape:window-height="1041"
     inkscape:window-x="0"
     inkscape:window-y="0"
     inkscape:window-maximized="1" />
  <metadata
     id="metadata9901">
    <rdf:RDF>
      <cc:Work
         rdf:about="">
        <dc:format>image/svg+xml</dc:format>
        <dc:type
           rdf:resource="http://purl.org/dc/dcmitype/StillImage" />
        <dc:title></dc:title>
      </cc:Work>
    </rdf:RDF>
  </metadata>
  <g
     inkscape:label="Layer 1"
     inkscape:groupmode="layer"
     id="layer1"
     transform="translate(-364,-521.36218)">
    <g
       id="g10495"
       transform="translate(20.359375,-0.98355932)">
      <path
         sodipodi:nodetypes="cccccccccc"
         inkscape:connector-curvature="0"
         id="path9915"
         d="m 353.50893,536.39789 0,5.04465 -7.1875,-7.14286 7.1875,-7.1875 0,4.24107 4.28571,0 0,-6.11607 5.17857,0 0,11.20536 z"
         style="fill:#373736;fill-opacity:1;stroke:#000000;stroke-width:1px;stroke-linecap:butt;stroke-linejoin:miter;stroke-opacity:1" />
      <path
         inkscape:connector-curvature="0"
         id="path10454"
         d="m 361.96875,525.23718 0,10.21875 -9.46875,-0.0625 0,5.0625 1,1 0,-5.0625 9.46875,0.0625 0,-11.21875 -1,0 z m -8.46875,1.875 -1,1 0,2.25 1,0 0,-3.25 z"
         style="opacity:0.6;fill:#000000;fill-opacity:1;stroke:none;filter:url(#filter10491)" />
      <path
         inkscape:connector-curvature="0"
         id="path10425"
         d="m 357.78125,525.23718 0,6.125 -3.28125,0 0,1 4.28125,0 0,-6.125 4.1875,0 0,-1 -5.1875,0 z m -4.28125,1.875 -7.1875,7.1875 1,1 6.1875,-6.1875 0,-2 z"
         style="opacity:0.6;fill:#ffffff;fill-opacity:1;stroke:none;filter:url(#filter10487)" />
    </g>
  </g>
</svg>
