<?xml version="1.0" encoding="UTF-8" standalone="no"?>
<!-- Created with Inkscape (http://www.inkscape.org/) -->

<svg
   xmlns:dc="http://purl.org/dc/elements/1.1/"
   xmlns:cc="http://creativecommons.org/ns#"
   xmlns:rdf="http://www.w3.org/1999/02/22-rdf-syntax-ns#"
   xmlns:svg="http://www.w3.org/2000/svg"
   xmlns="http://www.w3.org/2000/svg"
   xmlns:sodipodi="http://sodipodi.sourceforge.net/DTD/sodipodi-0.dtd"
   xmlns:inkscape="http://www.inkscape.org/namespaces/inkscape"
   width="22"
   height="22"
   id="svg7132"
   version="1.1"
   inkscape:version="0.48.4 r9939"
   sodipodi:docname="Nowy dokument 27">
  <defs
     id="defs7134" />
  <sodipodi:namedview
     id="base"
     pagecolor="#ffffff"
     bordercolor="#666666"
     borderopacity="1.0"
     inkscape:pageopacity="0.0"
     inkscape:pageshadow="2"
     inkscape:zoom="15.839192"
     inkscape:cx="-9.8129606"
     inkscape:cy="7.4207416"
     inkscape:document-units="px"
     inkscape:current-layer="layer1"
     showgrid="false"
     fit-margin-top="0"
     fit-margin-left="0"
     fit-margin-right="0"
     fit-margin-bottom="0"
     inkscape:window-width="1920"
     inkscape:window-height="1041"
     inkscape:window-x="0"
     inkscape:window-y="0"
     inkscape:window-maximized="1" />
  <metadata
     id="metadata7137">
    <rdf:RDF>
      <cc:Work
         rdf:about="">
        <dc:format>image/svg+xml</dc:format>
        <dc:type
           rdf:resource="http://purl.org/dc/dcmitype/StillImage" />
        <dc:title></dc:title>
      </cc:Work>
    </rdf:RDF>
  </metadata>
  <g
     inkscape:label="Layer 1"
     inkscape:groupmode="layer"
     id="layer1"
     transform="translate(-714.71429,-701.36218)">
    <g
       id="g7675"
       transform="translate(26.036511,-0.0978784)">
      <path
         sodipodi:nodetypes="ccscscc"
         inkscape:connector-curvature="0"
         id="path7155"
         d="m 691.68161,706.63153 -1.45209,12.6269 c 0,0 3.54369,-1.49312 6.50286,-0.88388 2.14658,0.44194 3.34613,1.38896 3.34613,1.38896 0,0 2.77792,-2.39911 6.12405,-1.6415 3.34613,0.75762 2.90418,0.69448 2.90418,0.69448 l -1.19955,-12.2481"
         style="fill:#52394e;fill-opacity:1;stroke:#52394e;stroke-width:2;stroke-linecap:butt;stroke-linejoin:miter;stroke-miterlimit:4;stroke-opacity:1;stroke-dasharray:none" />
      <path
         sodipodi:nodetypes="ccsccsc"
         inkscape:connector-curvature="0"
         id="path7151"
         d="m 692.06042,707.26287 -0.82075,10.60661 c 0,0 2.39912,-1.76777 4.9245,-1.19956 2.84205,0.63945 3.47239,1.76776 3.47239,1.76776 l 0,-12.6269 c 0,0 -2.58851,-1.89404 -4.86135,-0.82075 -2.27285,1.07329 -2.71479,2.27284 -2.71479,2.27284 z"
         style="fill:#ffffff;fill-opacity:1;stroke:#b1b2af;stroke-width:1px;stroke-linecap:butt;stroke-linejoin:miter;stroke-opacity:1" />
      <path
         sodipodi:nodetypes="csccscc"
         inkscape:connector-curvature="0"
         id="path7153"
         d="m 699.63656,706.06332 c 0,0 2.27285,-2.14658 4.98763,-1.13642 2.71479,1.01015 2.65165,2.0203 2.65165,2.0203 l 1.01016,10.79601 c 0,0 -1.95717,-1.26269 -4.29315,-0.69448 -2.33598,0.56821 -3.53553,1.76776 -3.53553,1.76776 z"
         style="fill:#ffffff;fill-opacity:1;stroke:#b1b2af;stroke-width:1px;stroke-linecap:butt;stroke-linejoin:miter;stroke-opacity:1" />
      <path
         sodipodi:nodetypes="csc"
         inkscape:connector-curvature="0"
         id="path7157"
         d="m 699.8891,706.56839 c 0,0 -0.31573,1.12962 2.28105,5.17626 2.65428,4.13625 2.07524,6.56677 2.07524,6.56677"
         style="fill:none;stroke:#c04848;stroke-width:1.60000002;stroke-linecap:butt;stroke-linejoin:miter;stroke-miterlimit:4;stroke-opacity:1;stroke-dasharray:none" />
    </g>
  </g>
</svg>
