<?xml version="1.0" encoding="UTF-8" standalone="no"?>
<!-- Created with Inkscape (http://www.inkscape.org/) -->
<svg id="svg7700" xmlns:rdf="http://www.w3.org/1999/02/22-rdf-syntax-ns#" xmlns="http://www.w3.org/2000/svg" height="22" width="22" version="1.1" xmlns:cc="http://creativecommons.org/ns#" xmlns:dc="http://purl.org/dc/elements/1.1/">
 <metadata id="metadata7705">
  <rdf:RDF>
   <cc:Work rdf:about="">
    <dc:format>image/svg+xml</dc:format>
    <dc:type rdf:resource="http://purl.org/dc/dcmitype/StillImage"/>
    <dc:title/>
   </cc:Work>
  </rdf:RDF>
 </metadata>
 <g id="layer1" transform="translate(-843.29 -701.36)">
  <g id="g8544" transform="translate(-.03819)" stroke="#393a3d" stroke-linecap="square">
   <path id="rect8508" d="m847.87 708.69c-1.7888 0-3.2224 1.3037-3.2224 2.8916v1.5547c0 1.5879 1.4336 2.8916 3.2224 2.8916h2.9071c1.7888 0 3.2224-1.3037 3.2224-2.8916v-1.5547c0-1.5879-1.4336-2.8916-3.2224-2.8916zm0.51649 1.7681h1.7863c1.1088 0 1.696 0.40915 1.696 1.3934v0.99498c0 0.9843-0.66558 1.2889-1.7744 1.2889h-1.7863c-1.1088 0-1.5915-0.34383-1.5915-1.3281v-0.99498c0-0.98429 0.56108-1.3542 1.6699-1.3542z" stroke-width=".69803" fill="#dcdcdc"/>
   <path id="path8520" d="m857.87 708.69c-1.7888 0-3.2224 1.3037-3.2224 2.8916v1.5547c0 1.5879 1.4336 2.8916 3.2224 2.8916h2.9071c1.7888 0 3.2224-1.3037 3.2224-2.8916v-1.5547c0-1.5879-1.4336-2.8916-3.2224-2.8916zm0.51649 1.7681h1.7863c1.1088 0 1.696 0.40915 1.696 1.3934v0.99498c0 0.9843-0.66558 1.2889-1.7744 1.2889h-1.7863c-1.1088 0-1.5915-0.34383-1.5915-1.3281v-0.99498c0-0.98429 0.56108-1.3542 1.6699-1.3542z" stroke-width=".69803" fill="#dcdcdc"/>
   <path id="path8522" d="m9.9062 8.3125c0.21938 0.24938 0.40017 0.53534 0.53125 0.84375h1.2188c0.133-0.3165 0.311-0.5861 0.532-0.8437h-2.2812zm-3.5312 0.7813c-0.4128 0.3102-0.65 0.6653-0.6562 0.9682l-0.03125 1.25c-0.0151 0.72807 1.2641 2.375 3.5312 2.375h3.6875c2.2671 0 3.4688-1.6155 3.4688-2.3438v-1.2812c0-0.29493-0.21104-0.63488-0.59375-0.9375h-0.4375c-0.63503 0-1.1133 0.14044-1.4062 0.4375 0.22482 0.15724 0.34375 0.35249 0.34375 0.53125v0.75c0 0.45142-0.90722 0.78125-2.3125 0.78125h-2.2812c-1.4066 0.001-1.9388-0.329-1.9388-0.78v-0.6875c0-0.17673 0.13066-0.39245 0.375-0.5625-0.29432-0.33146-0.78594-0.5-1.4375-0.5h-0.3125z" transform="translate(843.29 701.36)" stroke-width="0.6" fill="#f4f4f5"/>
  </g>
 </g>
</svg>
