<?xml version="1.0" encoding="UTF-8" standalone="no"?>
<!-- Created with Inkscape (http://www.inkscape.org/) -->
<svg id="svg10519" xmlns:rdf="http://www.w3.org/1999/02/22-rdf-syntax-ns#" xmlns="http://www.w3.org/2000/svg" height="22" width="22" version="1.1" xmlns:cc="http://creativecommons.org/ns#" xmlns:xlink="http://www.w3.org/1999/xlink" xmlns:dc="http://purl.org/dc/elements/1.1/">
 <defs id="defs10521">
  <linearGradient id="linearGradient11142" y2="728.31" gradientUnits="userSpaceOnUse" x2="818.53" gradientTransform="translate(66.374 4.6114)" y1="729.21" x1="819.43">
   <stop id="stop11079" stop-color="#a48757" offset="0"/>
   <stop id="stop11081" stop-color="#eeeac6" offset="1"/>
  </linearGradient>
  <linearGradient id="linearGradient11144" y2="725.49" gradientUnits="userSpaceOnUse" x2="813.53" gradientTransform="translate(55.608 8.9694)" y1="726.62" x1="814.56">
   <stop id="stop11105" stop-color="#b8b8b7" offset="0"/>
   <stop id="stop11107" stop-color="#a3a4a3" offset="1"/>
  </linearGradient>
  <radialGradient id="radialGradient11146" gradientUnits="userSpaceOnUse" cy="4.3959" cx="6.7155" r="5.4277">
   <stop id="stop11113" stop-color="#e6edf5" offset="0"/>
   <stop id="stop11115" stop-color="#7da2cc" stop-opacity=".58333" offset="1"/>
  </radialGradient>
 </defs>
 <metadata id="metadata10524">
  <rdf:RDF>
   <cc:Work rdf:about="">
    <dc:format>image/svg+xml</dc:format>
    <dc:type rdf:resource="http://purl.org/dc/dcmitype/StillImage"/>
    <dc:title/>
   </cc:Work>
  </rdf:RDF>
 </metadata>
 <g id="layer1" transform="translate(-823.29 -718.51)">
  <g id="g11129" transform="matrix(.87946 0 0 .87946 60.517 83.917)">
   <rect id="rect10538" stroke-linejoin="round" height="17.015" width="14.186" stroke="#878984" y="725.57" x="869.68" fill="#fefefe"/>
   <rect id="rect11048" height="14.098" width="11.049" y="726.98" x="871.19" fill="#eaeaea"/>
   <g fill="#c6c6c5">
    <rect id="rect11050" height="1.1049" width="8.9714" y="729.06" x="872.24"/>
    <rect id="rect11052" height="1.1049" width="8.9714" y="731.06" x="872.24"/>
    <rect id="rect11054" height="1.1049" width="8.9714" y="735.06" x="872.24"/>
   </g>
   <g id="g11125">
    <path id="path11075" d="m880 736.45 9.3029-9.4354 2.4528 2.3423-9.3029 9.2587-3.9775 1.6794z" stroke="#804f01" stroke-miterlimit="2" stroke-width="0.7" fill="url(#linearGradient11142)"/>
    <path id="path11085" d="m878.69 738.79-1.0275 2.3312 2.3754-1.0938z"/>
   </g>
   <g id="g11121" stroke="#878984">
    <path id="path11097" d="m870.4 732.43-2.4558 2.4558v1.9905h1.6286l2.6367-2.6367" stroke-width="0.8" fill="url(#linearGradient11144)"/>
    <path id="path11101" d="m11.91 5.9796a4.9277 4.9277 0 0 1 -4.9273 4.9274 4.9277 4.9277 0 0 1 -4.9277 -4.9274 4.9277 4.9277 0 0 1 4.9277 -4.9276 4.9277 4.9277 0 0 1 4.9273 4.9276z" transform="matrix(.92061 0 0 .92061 867.89 724.95)" fill="url(#radialGradient11146)"/>
   </g>
  </g>
 </g>
</svg>
